<?xml version="1.0" encoding="UTF-8" standalone="no"?>
<svg width="56px" height="31px" viewBox="0 0 56 31" version="1.1" xmlns="http://www.w3.org/2000/svg" xmlns:xlink="http://www.w3.org/1999/xlink">
    <!-- Generator: Sketch 43.1 (39012) - http://www.bohemiancoding.com/sketch -->
    <title>P</title>
    <desc>Created with Sketch.</desc>
    <defs></defs>
    <g id="Page-1" stroke="none" stroke-width="1" fill="none" fill-rule="evenodd">
        <path d="M47.016,19.836 C44.807989,23.1960168 41.9580175,25.8299905 38.466,27.738 C34.9739825,29.6460095 31.22402,30.6 27.216,30.6 C22.415976,30.6 18.0240199,29.2740133 14.04,26.622 C10.0559801,23.9699867 7.15200912,20.4240222 5.328,15.984 C1.9679832,15.1199957 0.21600072,14.4480024 0.072,13.968 C0.02399976,13.8239993 0,13.5360022 0,13.104 C1.58400792,13.896004 3.02399352,14.292 4.32,14.292 C4.48800084,14.292 4.61999952,14.2800001 4.716,14.256 C3.97199628,11.9279884 3.6,9.48001284 3.6,6.912 C3.6,6.23999664 3.61199988,5.73600168 3.636,5.4 C3.34799856,5.1599988 3.204,4.87200168 3.204,4.536 C3.204,4.24799856 3.30599898,4.00800096 3.51,3.816 C3.71400102,3.62399904 3.95999856,3.528 4.248,3.528 C4.6080018,3.528 4.9079988,3.68399844 5.148,3.996 L12.456,3.996 C12.456,3.29999652 13.0079945,2.952 14.112,2.952 C14.304001,2.952 14.5499985,2.96399988 14.85,2.988 C15.1500015,3.01200012 15.3359996,3.024 15.408,3.024 L17.424,3.024 C17.9040024,2.37599676 18.8039934,2.052 20.124,2.052 C20.316001,2.052 20.5319988,2.07599976 20.772,2.124 C21.0360013,0.70799292 21.5399963,0 22.284,0 C22.6200017,0 22.883999,0.21599784 23.076,0.648 L25.056,0.648 L25.056,1.188 L26.784,1.188 C26.784,2.00400408 26.5920019,2.60399808 26.208,2.988 L26.208,3.636 L27.396,3.636 C27.588001,3.08399724 27.9719971,2.55600252 28.548,2.052 C29.2200034,2.55600252 29.6399992,3.20399604 29.808,3.996 L30.168,3.96 C30.1920001,3.93599988 30.2939991,3.70200222 30.474,3.258 C30.6540009,2.81399778 30.9719977,2.4120018 31.428,2.052 C32.1480036,2.652003 32.5679994,3.29999652 32.688,3.996 L49.5,3.996 C49.692001,3.68399844 49.9799981,3.528 50.364,3.528 C50.6520014,3.528 50.897999,3.62399904 51.102,3.816 C51.306001,4.00800096 51.408,4.24799856 51.408,4.536 C51.408,5.0160024 51.1920022,5.33999916 50.76,5.508 C50.7840001,5.8680018 50.796,6.41999628 50.796,7.164 C50.796,9.42001128 50.4720032,11.6279892 49.824,13.788 C52.7760148,14.8920055 54.4439981,15.6839976 54.828,16.164 C54.9720007,16.356001 55.044,16.5599989 55.044,16.776 C55.044,17.0880016 54.9360011,17.3279992 54.72,17.496 C54.311998,17.8080016 51.7440236,18.5879938 47.016,19.836 Z M47.808,16.452 C43.9199806,16.1639986 40.1880179,15.6840034 36.612,15.012 C34.3559887,18.0840154 29.8680336,20.3039932 23.148,21.672 C23.0519995,21.672 22.9800002,21.6600001 22.932,21.636 C22.6679987,21.5399995 22.2840025,21.3600013 21.78,21.096 C21.2759975,20.8319987 20.9160011,20.6520005 20.7,20.556 C19.091992,19.8359964 17.4600083,19.2240025 15.804,18.72 C14.4839934,18.3359981 11.2440258,17.4840066 6.084,16.164 C7.95600936,20.4120212 10.793981,23.7719876 14.598,26.244 C18.402019,28.7160124 22.6319767,29.952 27.288,29.952 C31.080019,29.952 34.6259835,29.0820087 37.926,27.342 C41.2260165,25.6019913 43.9559892,23.1840155 46.116,20.088 C40.5479722,21.6000076 34.6320313,22.8839947 28.368,23.94 L28.656,22.896 C30.9840116,22.3919975 32.6159953,21.6720047 33.552,20.736 C33.960002,20.736 34.559996,20.7419999 35.352,20.754 C36.144004,20.7660001 36.743998,20.772 37.152,20.772 C37.344001,20.772 37.9199952,20.5860019 38.88,20.214 C39.8400048,19.8419981 40.5119981,19.5720008 40.896,19.404 C41.3280022,19.211999 42.0239952,18.8700025 42.984,18.378 C43.9440048,17.8859975 44.8139961,17.4780016 45.594,17.154 C46.3740039,16.8299984 47.1119965,16.5960007 47.808,16.452 Z M33.192,10.728 C33.192,8.99999136 31.6200157,7.74000396 28.476,6.948 C23.0039726,5.53199292 15.6240464,4.824 6.336,4.824 L5.256,4.824 C5.1359994,5.32800252 4.80000276,5.58 4.248,5.58 C4.22399988,5.91600168 4.212,6.41999664 4.212,7.092 C4.212,9.56401236 4.58399628,11.9159888 5.328,14.148 C5.37600024,14.148 5.44799952,14.1240002 5.544,14.076 L5.868,14.076 C7.04400588,14.7000031 8.51399118,15.1379987 10.278,15.39 C12.0420088,15.6420013 13.6499927,15.7799999 15.102,15.804 C16.5540073,15.8280001 18.0719921,16.0859975 19.656,16.578 C21.2400079,17.0700025 22.535995,17.8679945 23.544,18.972 C24.0000023,18.6599984 25.1699906,18.006005 27.054,17.01 C28.9380094,16.013995 30.1199976,15.3000022 30.6,14.868 L31.896,13.5 L31.86,13.104 C31.86,12.0239946 32.3039956,11.2320025 33.192,10.728 Z M50.148,5.58 C49.739998,5.4599994 49.4760006,5.19600204 49.356,4.788 L35.46,5.904 C35.9160023,6.2640018 36.2279992,6.57599868 36.396,6.84 L36.252,7.848 L37.188,8.208 C37.5240017,9.09600444 37.692,9.87599664 37.692,10.548 C38.6520048,10.5720001 39.7019943,10.7039988 40.842,10.944 C41.9820057,11.1840012 42.8399971,11.3879992 43.416,11.556 C43.9920029,11.7240008 45.0419924,12.0719974 46.566,12.6 C48.0900076,13.1280026 48.9839987,13.4399995 49.248,13.536 C49.8960032,11.3519891 50.22,9.20401056 50.22,7.092 C50.22,6.75599832 50.1960002,6.25200336 50.148,5.58 Z" id="P" fill="#71E879"></path>
    </g>
</svg>