<?xml version="1.0" encoding="UTF-8" standalone="no"?>
<svg width="56px" height="32px" viewBox="0 0 56 32" version="1.1" xmlns="http://www.w3.org/2000/svg" xmlns:xlink="http://www.w3.org/1999/xlink">
    <!-- Generator: Sketch 43.1 (39012) - http://www.bohemiancoding.com/sketch -->
    <title>P</title>
    <desc>Created with Sketch.</desc>
    <defs></defs>
    <g id="Page-1" stroke="none" stroke-width="1" fill="none" fill-rule="evenodd">
        <path d="M47.124,20.752 C44.915989,24.1120168 42.0660175,26.7459905 38.574,28.654 C35.0819825,30.5620095 31.33202,31.516 27.324,31.516 C22.523976,31.516 18.1320199,30.1900133 14.148,27.538 C10.1639801,24.8859867 7.26000912,21.3400222 5.436,16.9 C2.0759832,16.0359957 0.32400072,15.3640024 0.18,14.884 C0.13199976,14.7399993 0.108,14.4520022 0.108,14.02 C1.69200792,14.812004 3.13199352,15.208 4.428,15.208 C4.59600084,15.208 4.72799952,15.1960001 4.824,15.172 C4.07999628,12.8439884 3.708,10.3960128 3.708,7.828 C3.708,7.15599664 3.71999988,6.65200168 3.744,6.316 C3.45599856,6.0759988 3.312,5.78800168 3.312,5.452 C3.312,5.16399856 3.41399898,4.92400096 3.618,4.732 C3.82200102,4.53999904 4.06799856,4.444 4.356,4.444 C4.7160018,4.444 5.0159988,4.59999844 5.256,4.912 L12.564,4.912 C12.564,4.21599652 13.1159945,3.868 14.22,3.868 C14.412001,3.868 14.6579985,3.87999988 14.958,3.904 C15.2580015,3.92800012 15.4439996,3.94 15.516,3.94 L17.532,3.94 C18.0120024,3.29199676 18.9119934,2.968 20.232,2.968 C20.424001,2.968 20.6399988,2.99199976 20.88,3.04 C21.1440013,1.62399292 21.6479963,0.916 22.392,0.916 C22.7280017,0.916 22.991999,1.13199784 23.184,1.564 L25.164,1.564 L25.164,2.104 L26.892,2.104 C26.892,2.92000408 26.7000019,3.51999808 26.316,3.904 L26.316,4.552 L27.504,4.552 C27.696001,3.99999724 28.0799971,3.47200252 28.656,2.968 C29.3280034,3.47200252 29.7479992,4.11999604 29.916,4.912 L30.276,4.876 C30.3000001,4.85199988 30.4019991,4.61800222 30.582,4.174 C30.7620009,3.72999778 31.0799977,3.3280018 31.536,2.968 C32.2560036,3.568003 32.6759994,4.21599652 32.796,4.912 L49.608,4.912 C49.800001,4.59999844 50.0879981,4.444 50.472,4.444 C50.7600014,4.444 51.005999,4.53999904 51.21,4.732 C51.414001,4.92400096 51.516,5.16399856 51.516,5.452 C51.516,5.9320024 51.3000022,6.25599916 50.868,6.424 C50.8920001,6.7840018 50.904,7.33599628 50.904,8.08 C50.904,10.3360113 50.5800032,12.5439892 49.932,14.704 C52.8840148,15.8080055 54.5519981,16.5999976 54.936,17.08 C55.0800007,17.272001 55.152,17.4759989 55.152,17.692 C55.152,18.0040016 55.0440011,18.2439992 54.828,18.412 C54.419998,18.7240016 51.8520236,19.5039938 47.124,20.752 Z M47.916,17.368 C44.0279806,17.0799986 40.2960179,16.6000034 36.72,15.928 C34.4639887,19.0000154 29.9760336,21.2199932 23.256,22.588 C23.1599995,22.588 23.0880002,22.5760001 23.04,22.552 C22.7759987,22.4559995 22.3920025,22.2760013 21.888,22.012 C21.3839975,21.7479987 21.0240011,21.5680005 20.808,21.472 C19.199992,20.7519964 17.5680083,20.1400025 15.912,19.636 C14.5919934,19.2519981 11.3520258,18.4000066 6.192,17.08 C8.06400936,21.3280212 10.901981,24.6879876 14.706,27.16 C18.510019,29.6320124 22.7399767,30.868 27.396,30.868 C31.188019,30.868 34.7339835,29.9980087 38.034,28.258 C41.3340165,26.5179913 44.0639892,24.1000155 46.224,21.004 C40.6559722,22.5160076 34.7400313,23.7999947 28.476,24.856 L28.764,23.812 C31.0920116,23.3079975 32.7239953,22.5880047 33.66,21.652 C34.068002,21.652 34.667996,21.6579999 35.46,21.67 C36.252004,21.6820001 36.851998,21.688 37.26,21.688 C37.452001,21.688 38.0279952,21.5020019 38.988,21.13 C39.9480048,20.7579981 40.6199981,20.4880008 41.004,20.32 C41.4360022,20.127999 42.1319952,19.7860025 43.092,19.294 C44.0520048,18.8019975 44.9219961,18.3940016 45.702,18.07 C46.4820039,17.7459984 47.2199965,17.5120007 47.916,17.368 Z M33.3,11.644 C33.3,9.91599136 31.7280157,8.65600396 28.584,7.864 C23.1119726,6.44799292 15.7320464,5.74 6.444,5.74 L5.364,5.74 C5.2439994,6.24400252 4.90800276,6.496 4.356,6.496 C4.33199988,6.83200168 4.32,7.33599664 4.32,8.008 C4.32,10.4800124 4.69199628,12.8319888 5.436,15.064 C5.48400024,15.064 5.55599952,15.0400002 5.652,14.992 L5.976,14.992 C7.15200588,15.6160031 8.62199118,16.0539987 10.386,16.306 C12.1500088,16.5580013 13.7579927,16.6959999 15.21,16.72 C16.6620073,16.7440001 18.1799921,17.0019975 19.764,17.494 C21.3480079,17.9860025 22.643995,18.7839945 23.652,19.888 C24.1080023,19.5759984 25.2779906,18.922005 27.162,17.926 C29.0460094,16.929995 30.2279976,16.2160022 30.708,15.784 L32.004,14.416 L31.968,14.02 C31.968,12.9399946 32.4119956,12.1480025 33.3,11.644 Z M50.256,6.496 C49.847998,6.3759994 49.5840006,6.11200204 49.464,5.704 L35.568,6.82 C36.0240023,7.1800018 36.3359992,7.49199868 36.504,7.756 L36.36,8.764 L37.296,9.124 C37.6320017,10.0120044 37.8,10.7919966 37.8,11.464 C38.7600048,11.4880001 39.8099943,11.6199988 40.95,11.86 C42.0900057,12.1000012 42.9479971,12.3039992 43.524,12.472 C44.1000029,12.6400008 45.1499924,12.9879974 46.674,13.516 C48.1980076,14.0440026 49.0919987,14.3559995 49.356,14.452 C50.0040032,12.2679891 50.328,10.1200106 50.328,8.008 C50.328,7.67199832 50.3040002,7.16800336 50.256,6.496 Z" id="P" fill="#71E879"></path>
    </g>
</svg>