<?xml version="1.0" encoding="UTF-8" standalone="no"?>
<svg width="20px" height="32px" viewBox="0 0 20 32" version="1.1" xmlns="http://www.w3.org/2000/svg" xmlns:xlink="http://www.w3.org/1999/xlink">
    <!-- Generator: Sketch 43.1 (39012) - http://www.bohemiancoding.com/sketch -->
    <title>Group</title>
    <desc>Created with Sketch.</desc>
    <defs></defs>
    <g id="Page-1" stroke="none" stroke-width="1" fill="none" fill-rule="evenodd">
        <g id="Group" transform="translate(-7.000000, -1.000000)">
            <path d="M25.324,10.36 C24.8199975,13.6720166 24.5560001,15.3399999 24.532,15.364 L22.732,15.364 L22.732,15.94 L24.424,16.012 C25.2400041,17.5960079 25.7079994,19.0959929 25.828,20.512 L24.208,20.512 L23.524,32.968 L20.176,32.968 L19.456,20.512 L17.836,20.512 C17.836,19.9599972 18.0039983,19.0960059 18.34,17.92 C18.4360005,17.6319986 18.5979989,17.2720022 18.826,16.84 C19.0540011,16.4079978 19.2039996,16.1080008 19.276,15.94 L20.968,15.94 L20.968,15.364 L19.132,15.364 C19.1079999,15.3399999 18.8440025,13.6720166 18.34,10.36 L10.744,10.36 L10.744,10.144 L7.972,10.144 L7,9.172 L7.972,8.128 L20.788,8.128 L20.788,7.192 C20.5719989,6.7119976 20.464,6.30400168 20.464,5.968 C20.464,5.65599844 20.5239994,5.34400156 20.644,5.032 L20.176,4.564 L20.176,3.808 C20.2240002,3.75999976 20.2959995,3.69400042 20.392,3.61 C20.4880005,3.52599958 20.5779996,3.44200042 20.662,3.358 C20.7460004,3.27399958 20.8119998,3.19600036 20.86,3.124 L20.86,2.836 C20.86,2.5959988 20.8719999,2.41000066 20.896,2.278 C20.9200001,2.14599934 20.9979993,2.01400066 21.13,1.882 C21.2620007,1.74999934 21.4479988,1.67200012 21.688,1.648 L21.688,1.504 C21.688,1.16799832 21.7959989,1 22.012,1 C22.2520012,1 22.372,1.16799832 22.372,1.504 L22.372,1.648 C22.7080017,1.72000036 22.9239995,1.8459991 23.02,2.026 C23.1160005,2.2060009 23.164,2.46399832 23.164,2.8 L23.164,3.124 C23.2120002,3.19600036 23.2779996,3.27399958 23.362,3.358 C23.4460004,3.44200042 23.5359995,3.52599958 23.632,3.61 C23.7280005,3.69400042 23.7999998,3.75999976 23.848,3.808 L23.848,4.564 L23.344,5.032 C23.4880007,5.36800168 23.56,5.69199844 23.56,6.004 C23.56,6.43600216 23.4520011,6.8319982 23.236,7.192 L23.236,8.128 L25.18,8.128 C25.6840025,8.128 26.0679987,8.20599922 26.332,8.362 C26.5960013,8.51800078 26.728,8.85999736 26.728,9.388 C26.728,10.0360032 26.2600047,10.36 25.324,10.36 Z M22.156,15.94 L22.156,15.364 L21.508,15.364 L21.508,15.94 L22.156,15.94 Z M22.192,13.816 C22.192,13.5999989 22.0720012,13.492 21.832,13.492 C21.7359995,13.492 21.6640002,13.5159998 21.616,13.564 C21.5439996,13.6360004 21.508,13.7199995 21.508,13.816 C21.508,14.0560012 21.6159989,14.176 21.832,14.176 C22.0720012,14.176 22.192,14.0560012 22.192,13.816 Z M22.192,12.808 C22.192,12.5679988 22.0720012,12.448 21.832,12.448 C21.7359995,12.448 21.6640002,12.4719998 21.616,12.52 C21.5439996,12.6160005 21.508,12.7119995 21.508,12.808 C21.508,12.9040005 21.5319998,12.9759998 21.58,13.024 C21.6520004,13.0960004 21.7359995,13.132 21.832,13.132 C22.0720012,13.132 22.192,13.0240011 22.192,12.808 Z M22.192,11.764 C22.192,11.5239988 22.0720012,11.404 21.832,11.404 C21.7359995,11.404 21.6640002,11.4279998 21.616,11.476 C21.5439996,11.5720005 21.508,11.6679995 21.508,11.764 C21.508,12.0040012 21.6159989,12.124 21.832,12.124 C22.0720012,12.124 22.192,12.0040012 22.192,11.764 Z M22.192,10.72 C22.192,10.4799988 22.0720012,10.36 21.832,10.36 C21.7359995,10.36 21.6640002,10.3839998 21.616,10.432 C21.5439996,10.5280005 21.508,10.6239995 21.508,10.72 C21.508,10.9600012 21.6159989,11.08 21.832,11.08 C22.0720012,11.08 22.192,10.9600012 22.192,10.72 Z M10.744,9.856 L10.744,8.488 L8.116,8.488 L7.396,9.172 L8.116,9.856 L10.744,9.856 Z M18.88,9.856 L18.88,8.488 L16.036,8.488 L15.352,9.172 L16.036,9.856 L18.88,9.856 Z M23.128,5.248 L20.968,5.32 L20.86,5.248 C20.7879996,5.68000216 20.752,5.99199904 20.752,6.184 C20.752,6.5440018 20.8779987,6.88599838 21.13,7.21 C21.3820013,7.53400162 21.6759983,7.696 22.012,7.696 C22.3960019,7.696 22.7019989,7.51000186 22.93,7.138 C23.1580011,6.76599814 23.272,6.38800192 23.272,6.004 C23.272,5.69199844 23.2240005,5.44000096 23.128,5.248 Z M22.768,3.412 L22.408,3.232 L22.552,2.872 L22.192,3.016 L22.012,2.656 L21.868,3.016 L21.508,2.872 L21.616,3.232 L21.292,3.412 L21.616,3.592 L21.508,3.952 L21.868,3.844 L22.012,4.168 L22.192,3.844 L22.552,3.952 L22.408,3.592 L22.768,3.412 Z M22.264,2.188 L22.264,1.36 C22.264,1.21599928 22.1800008,1.144 22.012,1.144 C21.8679993,1.144 21.796,1.21599928 21.796,1.36 L21.796,2.188 C21.796,2.33200072 21.8679993,2.404 22.012,2.404 C22.1800008,2.404 22.264,2.33200072 22.264,2.188 Z" id="M" fill="#81C3E6"></path>
            <rect id="Rectangle" x="0" y="0" width="33" height="33"></rect>
        </g>
    </g>
</svg>