<?xml version="1.0" encoding="UTF-8" standalone="no"?>
<svg width="32px" height="32px" viewBox="0 0 32 32" version="1.1" xmlns="http://www.w3.org/2000/svg" xmlns:xlink="http://www.w3.org/1999/xlink">
    <!-- Generator: Sketch 43.1 (39012) - http://www.bohemiancoding.com/sketch -->
    <title>V</title>
    <desc>Created with Sketch.</desc>
    <defs></defs>
    <g id="Page-1" stroke="none" stroke-width="1" fill="none" fill-rule="evenodd">
        <path d="M28.86,24.256 C27.4439929,26.4400109 25.6020113,28.1499938 23.334,29.386 C21.0659887,30.6220062 18.6240131,31.24 16.008,31.24 C13.3919869,31.24 10.9500113,30.6220062 8.682,29.386 C6.41398866,28.1499938 4.57200708,26.4400109 3.156,24.256 L28.86,24.256 Z M31.308,15.94 C31.308,18.7720142 30.6240068,21.3399885 29.256,23.644 L2.796,23.644 C1.40399304,21.2919882 0.708,18.7240139 0.708,15.94 C0.708,11.6919788 2.19598512,8.08001488 5.172,5.104 C8.14801488,2.12798512 11.7599788,0.64 16.008,0.64 C20.2560212,0.64 23.8679851,2.12798512 26.844,5.104 C29.8200149,8.08001488 31.308,11.6919788 31.308,15.94 Z M27.888,9.856 C27.888,9.54399844 27.7200017,9.388 27.384,9.388 L27.024,9.388 C26.8079989,9.388 26.4120029,9.15400234 25.836,8.686 C25.2599971,8.21799766 24.672003,7.984 24.072,7.984 C22.3919916,7.984 21.552,9.05198932 21.552,11.188 L21.12,11.188 C20.8079984,10.6599974 20.3040035,10.096003 19.608,9.496 L20.4,8.704 L20.4,8.272 L11.724,8.272 L11.724,8.704 L12.444,9.424 C11.0279929,10.5520056 10.1040022,12.0999902 9.672,14.068 C8.99999664,14.068 8.44200222,13.870002 7.998,13.474 C7.55399778,13.077998 7.2420009,12.676002 7.062,12.268 C6.8819991,11.859998 6.76800024,11.656 6.72,11.656 C6.14399712,10.5279944 5.59200264,9.82000144 5.064,9.532 L4.164,10.036 C4.764003,10.6600031 5.29199772,11.571994 5.748,12.772 C5.96400108,13.3960031 6.08399988,13.9599975 6.108,14.464 C6.18000036,15.5200053 6.52799688,16.5399951 7.152,17.524 C7.77600312,18.5080049 8.57999508,19 9.564,19 C9.85200144,19 10.0679993,18.9760002 10.212,18.928 C10.7160025,20.1040059 11.4119956,21.0519964 12.3,21.772 L11.328,23.032 L20.616,23.032 L19.68,21.772 C20.9520064,20.7159947 21.7799981,19.3360085 22.164,17.632 L22.668,17.92 C22.668,18.2320016 22.7879988,18.5319986 23.028,18.82 C23.0520001,18.82 23.0999996,18.8379998 23.172,18.874 C23.2440004,18.9100002 23.3039998,18.928 23.352,18.928 C23.6880017,18.928 23.856,18.724002 23.856,18.316 C23.856,18.2679998 23.8260003,18.1960005 23.766,18.1 C23.7059997,18.0039995 23.676,17.9320002 23.676,17.884 C23.676,17.6439988 23.9639971,17.1460038 24.54,16.39 C25.1160029,15.6339962 25.6919971,14.7820047 26.268,13.834 C26.8440029,12.8859953 27.132,12.0280038 27.132,11.26 C27.132,11.1879996 27.1260001,11.0740008 27.114,10.918 C27.1019999,10.7619992 27.096,10.6480004 27.096,10.576 L27.096,10.396 L27.204,10.36 C27.6600023,10.36 27.888,10.1920017 27.888,9.856 Z M26.088,11.296 C26.088,11.8240026 25.9020019,12.4239966 25.53,13.096 C25.1579981,13.7680034 24.6840029,14.4879962 24.108,15.256 C23.5319971,16.0240038 23.148001,16.5759983 22.956,16.912 L22.344,16.552 C22.3680001,16.359999 22.38,16.060002 22.38,15.652 C22.38,14.7159953 22.2240016,13.744005 21.912,12.736 C22.2720018,12.3759982 22.5119994,12.100001 22.632,11.908 C22.6560001,11.8359996 22.668,11.7280007 22.668,11.584 C22.668,11.4879995 22.6500002,11.3320011 22.614,11.116 C22.5779998,10.8999989 22.56,10.7440005 22.56,10.648 C22.6080002,10.5519995 22.6739996,10.3300017 22.758,9.982 C22.8420004,9.63399826 22.9679992,9.38200078 23.136,9.226 C23.3040008,9.06999922 23.6039978,8.992 24.036,8.992 C24.5640026,8.992 25.0379979,9.23799754 25.458,9.73 C25.8780021,10.2220025 26.088,10.7439972 26.088,11.296 Z M19.14,7.48 C18.9719992,6.7599964 18.5940029,6.18400216 18.006,5.752 C17.4179971,5.31999784 16.7640036,5.104 16.044,5.104 C15.2999963,5.104 14.6580027,5.31999784 14.118,5.752 C13.5779973,6.18400216 13.212001,6.7599964 13.02,7.48 L19.14,7.48 Z M17.052,3.628 C17.052,3.33999856 16.956001,3.1060009 16.764,2.926 C16.571999,2.7459991 16.3320014,2.656 16.044,2.656 C15.7799987,2.656 15.552001,2.75199904 15.36,2.944 C15.167999,3.13600096 15.072,3.36399868 15.072,3.628 C15.072,3.89200132 15.167999,4.11999904 15.36,4.312 C15.552001,4.50400096 15.7799987,4.6 16.044,4.6 C16.3320014,4.6 16.571999,4.5100009 16.764,4.33 C16.956001,4.1499991 17.052,3.91600144 17.052,3.628 Z" id="V" fill="#5D1990"></path>
    </g>
</svg>