<?xml version="1.0" encoding="UTF-8" standalone="no"?>
<svg width="31px" height="31px" viewBox="0 0 31 31" version="1.1" xmlns="http://www.w3.org/2000/svg" xmlns:xlink="http://www.w3.org/1999/xlink">
    <!-- Generator: Sketch 43.1 (39012) - http://www.bohemiancoding.com/sketch -->
    <title>V</title>
    <desc>Created with Sketch.</desc>
    <defs></defs>
    <g id="Page-1" stroke="none" stroke-width="1" fill="none" fill-rule="evenodd">
        <path d="M28.152,23.616 C26.7359929,25.8000109 24.8940113,27.5099938 22.626,28.746 C20.3579887,29.9820062 17.9160131,30.6 15.3,30.6 C12.6839869,30.6 10.2420113,29.9820062 7.974,28.746 C5.70598866,27.5099938 3.86400708,25.8000109 2.448,23.616 L28.152,23.616 Z M30.6,15.3 C30.6,18.1320142 29.9160068,20.6999885 28.548,23.004 L2.088,23.004 C0.69599304,20.6519882 0,18.0840139 0,15.3 C0,11.0519788 1.48798512,7.44001488 4.464,4.464 C7.44001488,1.48798512 11.0519788,0 15.3,0 C19.5480212,0 23.1599851,1.48798512 26.136,4.464 C29.1120149,7.44001488 30.6,11.0519788 30.6,15.3 Z M27.18,9.216 C27.18,8.90399844 27.0120017,8.748 26.676,8.748 L26.316,8.748 C26.0999989,8.748 25.7040029,8.51400234 25.128,8.046 C24.5519971,7.57799766 23.964003,7.344 23.364,7.344 C21.6839916,7.344 20.844,8.41198932 20.844,10.548 L20.412,10.548 C20.0999984,10.0199974 19.5960035,9.456003 18.9,8.856 L19.692,8.064 L19.692,7.632 L11.016,7.632 L11.016,8.064 L11.736,8.784 C10.3199929,9.91200564 9.39600216,11.4599902 8.964,13.428 C8.29199664,13.428 7.73400222,13.230002 7.29,12.834 C6.84599778,12.437998 6.5340009,12.036002 6.354,11.628 C6.1739991,11.219998 6.06000024,11.016 6.012,11.016 C5.43599712,9.88799436 4.88400264,9.18000144 4.356,8.892 L3.456,9.396 C4.056003,10.0200031 4.58399772,10.931994 5.04,12.132 C5.25600108,12.7560031 5.37599988,13.3199975 5.4,13.824 C5.47200036,14.8800053 5.81999688,15.8999951 6.444,16.884 C7.06800312,17.8680049 7.87199508,18.36 8.856,18.36 C9.14400144,18.36 9.35999928,18.3360002 9.504,18.288 C10.0080025,19.4640059 10.7039956,20.4119964 11.592,21.132 L10.62,22.392 L19.908,22.392 L18.972,21.132 C20.2440064,20.0759947 21.0719981,18.6960085 21.456,16.992 L21.96,17.28 C21.96,17.5920016 22.0799988,17.8919986 22.32,18.18 C22.3440001,18.18 22.3919996,18.1979998 22.464,18.234 C22.5360004,18.2700002 22.5959998,18.288 22.644,18.288 C22.9800017,18.288 23.148,18.084002 23.148,17.676 C23.148,17.6279998 23.1180003,17.5560005 23.058,17.46 C22.9979997,17.3639995 22.968,17.2920002 22.968,17.244 C22.968,17.0039988 23.2559971,16.5060038 23.832,15.75 C24.4080029,14.9939962 24.9839971,14.1420047 25.56,13.194 C26.1360029,12.2459953 26.424,11.3880038 26.424,10.62 C26.424,10.5479996 26.4180001,10.4340008 26.406,10.278 C26.3939999,10.1219992 26.388,10.0080004 26.388,9.936 L26.388,9.756 L26.496,9.72 C26.9520023,9.72 27.18,9.55200168 27.18,9.216 Z M25.38,10.656 C25.38,11.1840026 25.1940019,11.7839966 24.822,12.456 C24.4499981,13.1280034 23.9760029,13.8479962 23.4,14.616 C22.8239971,15.3840038 22.440001,15.9359983 22.248,16.272 L21.636,15.912 C21.6600001,15.719999 21.672,15.420002 21.672,15.012 C21.672,14.0759953 21.5160016,13.104005 21.204,12.096 C21.5640018,11.7359982 21.8039994,11.460001 21.924,11.268 C21.9480001,11.1959996 21.96,11.0880007 21.96,10.944 C21.96,10.8479995 21.9420002,10.6920011 21.906,10.476 C21.8699998,10.2599989 21.852,10.1040005 21.852,10.008 C21.9000002,9.91199952 21.9659996,9.69000174 22.05,9.342 C22.1340004,8.99399826 22.2599992,8.74200078 22.428,8.586 C22.5960008,8.42999922 22.8959978,8.352 23.328,8.352 C23.8560026,8.352 24.3299979,8.59799754 24.75,9.09 C25.1700021,9.58200246 25.38,10.1039972 25.38,10.656 Z M18.432,6.84 C18.2639992,6.1199964 17.8860029,5.54400216 17.298,5.112 C16.7099971,4.67999784 16.0560036,4.464 15.336,4.464 C14.5919963,4.464 13.9500027,4.67999784 13.41,5.112 C12.8699973,5.54400216 12.504001,6.1199964 12.312,6.84 L18.432,6.84 Z M16.344,2.988 C16.344,2.69999856 16.248001,2.4660009 16.056,2.286 C15.863999,2.1059991 15.6240014,2.016 15.336,2.016 C15.0719987,2.016 14.844001,2.11199904 14.652,2.304 C14.459999,2.49600096 14.364,2.72399868 14.364,2.988 C14.364,3.25200132 14.459999,3.47999904 14.652,3.672 C14.844001,3.86400096 15.0719987,3.96 15.336,3.96 C15.6240014,3.96 15.863999,3.8700009 16.056,3.69 C16.248001,3.5099991 16.344,3.27600144 16.344,2.988 Z" id="V" fill="#5D1990"></path>
    </g>
</svg>