<?xml version="1.0" encoding="UTF-8"?>
<svg width="197px" height="154px" viewBox="0 0 197 154" version="1.1" xmlns="http://www.w3.org/2000/svg" xmlns:xlink="http://www.w3.org/1999/xlink">
    <!-- Generator: Sketch 43.1 (39012) - http://www.bohemiancoding.com/sketch -->
    <title>Fill 200</title>
    <desc>Created with Sketch.</desc>
    <defs></defs>
    <g id="Page-1" stroke="none" stroke-width="1" fill="none" fill-rule="evenodd">
        <g id="art-nouveau" transform="translate(0.000000, -1620.000000)" fill="#927832">
            <g id="Group-202" transform="translate(0.000000, 1576.000000)">
                <path d="M144.153,113.5 C144.921,113.29 145.298,114 145.106,114.66 C144.267,114.96 143.924,114.21 144.153,113.5 Z M144.877,106.43 C145.251,106.45 145.814,106.27 145.976,106.74 C146.435,107.44 145.135,108.38 144.61,107.71 C144.076,107.46 144.334,106.5 144.877,106.43 L144.877,106.43 Z M127.289,101.47 C128.091,101.39 128.916,101.52 129.635,101.89 C129.752,102.34 129.424,102.87 128.943,102.83 C128.213,102.8 127.432,102.92 126.769,102.54 C126.691,102.14 126.803,101.52 127.289,101.47 L127.289,101.47 Z M129.97,97.97 C130.787,97.69 131.683,97.88 132.502,98.08 C132.64,98.63 132.38,99.09 131.899,99.35 C130.914,99.49 129.865,99.18 128.939,99.65 C127.865,100.2 126.483,100.38 125.43,99.68 C125.204,99.08 125.839,98.73 126.335,98.62 C127.539,98.31 128.833,98.57 129.97,97.97 L129.97,97.97 Z M146.608,97.84 C146.921,97.86 147.408,97.67 147.563,98.05 C148.191,98.74 147.117,99.94 146.359,99.48 C145.738,99.1 146.035,98.1 146.608,97.84 L146.608,97.84 Z M147.193,91.89 C147.507,91.4 148.279,91.84 147.974,92.49 C147.44,92.59 146.94,92.56 147.193,91.89 L147.193,91.89 Z M147.749,85.79 C148.066,85.77 148.39,85.78 148.711,85.82 C148.757,86.25 148.77,86.68 148.702,87.11 C148.353,87.16 148.002,87.16 147.655,87.12 C147.285,86.84 147.191,85.88 147.749,85.79 L147.749,85.79 Z M148.323,79.66 C148.696,79.56 148.851,79.73 148.767,80.1 C148.384,80.2 148.209,80.04 148.323,79.66 L148.323,79.66 Z M97.824,104.43 C97.296,104.77 97.391,105.62 97.791,106.03 C98.231,106.21 98.643,105.81 98.871,105.5 C99.13,104.87 98.446,104.06 97.824,104.43 L97.824,104.43 Z M86.981,97.82 C86.463,97.99 85.925,98.01 85.395,98.09 C83.903,98.83 83.582,100.61 82.47,101.71 C82.097,102.12 81.574,102.66 82.09,103.2 C82.913,103.36 83.67,102.81 84.495,103.01 C85.646,103.61 86.233,104.93 87.437,105.46 C88.025,105.53 88.619,105.5 89.211,105.5 C90.366,105.57 91.471,104.74 92.621,105.19 C93.03,105.38 93.395,105.74 93.878,105.71 C94.44,104.64 94.89,103.51 95.388,102.4 C95.769,101.7 95.49,100.78 94.855,100.33 C93.567,99.29 92.115,98.45 90.565,97.88 C89.364,97.97 88.144,97.59 86.981,97.82 L86.981,97.82 Z M187.641,62.4 C186.537,65.18 184.729,67.57 182.968,69.97 C182.38,71 181.49,71.8 180.752,72.71 C180.077,73.76 179.448,74.84 178.742,75.87 C177.617,77.07 176.077,77.79 175.02,79.06 C174.017,79.09 173.177,79.69 172.206,79.86 C167.441,80.21 163.223,83.1 158.455,83.32 C158.207,82.42 159.165,81.94 159.913,81.87 C161.412,81.66 162.761,80.88 164.262,80.71 C164.959,80.63 164.478,79.51 163.928,79.7 C162.864,80.04 161.746,80.19 160.697,80.58 C158.042,81.93 154.994,82.03 152.153,82.78 C152.138,82.39 152.05,81.9 152.495,81.73 C154.783,80.26 157.701,80.62 160.097,79.4 C160.573,79.39 160.523,78.65 160.067,78.66 C158.377,78.18 156.728,77.4 154.965,77.3 C154.094,76.88 153.251,76.35 152.255,76.29 C148.931,76.04 145.625,75.88 142.298,75.64 C141.269,75.09 140.263,74.49 139.289,73.85 C138.389,73.22 138.26,72.06 137.754,71.17 C137.22,70.82 136.738,71.49 136.204,71.47 C135.403,71.43 134.659,71.73 133.913,71.97 C132.191,72.18 130.419,72.39 128.699,72.03 C127.557,73.18 126.879,74.84 125.399,75.66 C122.583,77.19 119.326,77.65 116.533,79.21 C115.94,79.82 115.461,80.55 114.821,81.13 C113.752,82.05 113.287,83.44 112.856,84.74 C112.947,86.21 112.015,87.45 111.848,88.89 C111.398,91.49 110.927,94.15 111.252,96.79 C111.324,98.38 111.118,100.01 111.571,101.56 C111.915,102.95 110.925,104.19 111.037,105.57 C110.53,106.45 109.595,105.68 108.83,105.86 C107.863,107.06 107.744,108.64 107.242,110.05 C107.04,110.77 106.51,111.8 107.358,112.3 C108.516,112.42 109.676,112.56 110.791,112.91 C113.376,112.92 116.173,111.48 117.013,108.9 C117.516,107.84 117.621,106.66 118.064,105.57 C118.293,104.38 117.989,103.14 118.254,101.95 C118.747,100.47 118.6,98.87 118.357,97.37 C118.434,96.18 118.115,95.03 117.78,93.91 C117.483,91.77 116.951,89.58 117.527,87.45 C117.604,86.65 118.087,85.5 119.076,85.8 C119.709,86.5 118.904,87.4 118.936,88.18 C118.85,91.25 119.381,94.33 120.529,97.19 C121.076,98.67 121.318,100.28 122.14,101.66 C123.259,104.42 124.788,107.13 124.903,110.16 C125.099,111.46 125.324,112.76 125.457,114.07 C125.619,114.54 126.112,114.79 126.588,114.85 C127.525,114.99 128.451,115.26 129.408,115.23 C130.082,115.21 131.098,115.51 130.771,116.37 C129.159,117.47 127.239,115.98 125.473,116.39 C124.795,117.22 124.591,118.38 124.666,119.42 C125.602,120.77 127.316,121.13 128.779,121.63 C130.164,122.28 131.746,121.6 133.161,122.16 C134.265,122.61 135.455,122.41 136.592,122.67 C139.304,122.71 142.098,122.84 144.688,121.92 C145.709,121.58 146.818,121.6 147.799,121.14 C148.6,120.8 149.833,120.76 150.063,119.74 C149.943,119.05 149.353,118.57 149.097,117.94 C148.611,116.8 148.214,115.6 148.1,114.35 C147.924,113.4 147.125,112.6 147.393,111.58 C147.894,108.69 149.219,106.02 149.635,103.1 C150.454,100.23 150.713,97.24 151.174,94.3 C151.295,92.42 151.376,90.51 152.036,88.72 C152.619,87.68 153.818,87.18 154.933,86.97 C157.323,87 159.669,86.64 162.011,86.93 C164.803,86.5 167.63,86.84 170.429,86.98 C173.231,87.6 176.553,87.72 178.859,85.73 C179.804,85.06 180.218,83.92 181.019,83.12 C183.003,81 184.881,78.79 186.562,76.43 C187.63,75.37 188.303,73.99 189.428,72.99 C190.031,72.4 190.254,71.55 190.769,70.9 C192.104,69.38 193.195,67.55 193.667,65.58 C192.597,64.45 191.154,63.83 189.849,63.04 C189.165,62.76 188.298,62.14 187.641,62.4 L187.641,62.4 Z M185.394,52.78 C185.214,53.63 186.081,52.67 185.394,52.78 L185.394,52.78 Z M131.501,50.4 C130.798,50.63 130.101,50.89 129.455,51.25 C128.699,51.82 128.167,52.67 127.303,53.11 C126.434,53.44 125.778,52.42 124.915,52.77 C124.14,53.47 124.14,54.57 123.919,55.51 C123.817,55.97 124.108,56.37 124.331,56.74 C125.169,56.84 126.198,56.49 126.839,57.21 C126.279,58.38 124.943,57.93 123.967,58.36 C123.386,59.56 122.922,60.93 123.147,62.28 C123.692,63.13 124.792,63.41 125.744,63.23 C126.437,62.65 126.901,61.43 127.997,61.73 C127.204,63.19 126.32,64.66 125.096,65.81 C124.776,66.44 124.771,67.18 124.453,67.82 C124.143,68.37 124.151,69.14 124.704,69.53 C125.627,69.64 126.558,69.53 127.483,69.57 C128.003,69.87 128.365,70.45 128.98,70.58 C131.767,71.2 134.908,71.47 137.441,69.93 C138.05,68.9 137.344,67.56 137.812,66.47 C138.349,65.21 137.768,63.82 137.206,62.67 C136.592,62.48 136.301,63.11 135.9,63.43 C135.522,63.49 135.138,63.48 134.761,63.45 C134.724,63.06 134.705,62.61 135.195,62.54 C136.858,62.09 137.287,59.25 135.486,58.7 C134.612,58.15 133.653,58.74 132.753,58.86 C131.493,58.18 131.467,56.36 132.125,55.25 C132.698,54.11 133.975,53.63 134.766,52.69 C134.824,52.03 135.039,50.87 134.1,50.79 C133.221,50.72 132.366,50.11 131.501,50.4 L131.501,50.4 Z M184.777,46.9 C184.37,46.98 184.434,47.39 184.487,47.71 C185.331,49.3 186.786,50.48 187.527,52.13 C187.571,52.52 187.575,52.91 187.517,53.3 C187.187,53.72 186.572,53.44 186.125,53.52 C186.498,55.14 188.341,55.72 189.472,56.72 C190.273,57.93 190.424,59.43 190.358,60.85 C190.266,61.73 191.278,61.94 191.811,62.4 C192.119,62.71 192.73,62.86 192.965,62.38 C193.294,61.56 193.713,60.77 193.932,59.91 C194.337,57.77 194.907,55.31 193.603,53.35 C192.421,52.5 191.604,51.25 190.37,50.47 C189.022,49.46 187.7,48.42 186.342,47.43 C185.864,47.16 185.359,46.59 184.777,46.9 L184.777,46.9 Z M182.329,45.05 C185.118,44.58 187.895,46.02 189.902,47.88 C190.974,49.07 192.481,49.73 193.648,50.82 C194.651,51.81 195.767,52.8 196.227,54.17 C196.754,57.22 195.434,60.13 194.217,62.84 C194.109,63.61 195.071,63.93 195.453,64.49 C196.169,65.24 195.477,66.22 194.972,66.87 C193.798,69.47 192.029,71.77 190.157,73.9 C189.235,75.26 188.286,76.6 187.148,77.79 C185.756,79.81 184.254,81.74 182.6,83.55 C181.764,84.35 181.4,85.49 180.474,86.21 C179.596,87.45 178.313,88.49 176.75,88.63 C175.457,88.72 174.201,89.48 172.898,89.1 C170.34,88.96 167.828,88.35 165.272,88.26 C162.336,88.33 159.396,88.27 156.46,88.31 C155.705,88.55 154.915,88.47 154.14,88.5 C152.975,89.1 152.994,90.49 152.925,91.62 C152.975,93.4 152.538,95.14 152.547,96.92 C151.582,101.02 150.841,105.23 149.487,109.22 C149.518,110.56 149.161,111.89 149.468,113.22 C149.317,114.84 150.275,116.22 150.897,117.63 C151.698,119.45 152.796,121.15 154.209,122.56 C154.951,123.27 155.933,123.63 156.792,124.18 C159.229,126.28 161.891,128.2 164.849,129.49 C165.58,130.24 166.578,130.57 167.466,131.08 C169.126,132.41 170.615,133.93 172.247,135.28 C173.69,136.83 175.38,138.16 176.589,139.92 C178.295,143.04 181.866,144.48 183.927,147.3 C185.289,149.64 183.642,152.15 183.501,154.57 C183.516,155.71 182.108,156.06 182.031,157.14 C181.987,158.21 181.121,158.96 180.874,159.96 C180.565,161.6 179.65,163.03 178.898,164.5 C178.161,165.85 178.02,167.44 177.274,168.78 C176.66,169.97 176.719,171.38 176.108,172.58 C175.591,174.49 174.602,176.24 174.264,178.2 C174.19,179.56 173.247,180.66 173.126,182.02 C172.593,183.67 172.075,185.31 171.664,187 C171.994,187.86 173.046,188.26 173.088,189.25 C173.86,189.42 174.385,190.01 174.949,190.51 C175.507,190.69 175.908,190.25 176.321,189.97 C177.148,189.86 178.055,189.97 178.687,190.57 C179.491,191.28 180.773,191.3 181.371,192.27 C181.695,192.96 181.892,193.74 181.77,194.51 C181.42,195.17 180.612,195.35 179.984,195.64 C178.332,195.81 176.612,194.45 175.023,195.39 C174.587,195.8 173.98,195.66 173.448,195.63 C171.941,195.5 170.424,196.49 168.952,195.86 C167.85,196.4 166.607,196.77 165.365,196.63 C165.143,196.19 165.251,195.33 164.512,195.51 C163.462,195.64 162.333,195.21 161.744,194.31 C161.434,191.69 163.008,189.42 163.808,187.05 C164.665,185.56 165.321,183.97 166.08,182.43 C166.071,180.75 167.113,179.3 167.048,177.62 C166.984,176.14 167.747,174.69 167.3,173.23 C166.915,171.98 166.984,170.66 166.689,169.4 C166.81,168.53 167.147,167.69 167.085,166.79 C167.516,162.25 171.378,159.15 172.494,154.86 C172.814,154.19 172.424,153.45 171.942,152.98 C170.637,151.88 168.869,151.75 167.376,151.02 C166.267,150.47 164.99,150.46 163.853,149.98 C162.075,149.59 160.604,148.44 158.899,147.85 C156.706,147.25 155.019,145.63 153.107,144.49 C151.669,143.77 150.69,141.98 148.886,142.16 C147.894,141.81 147.1,140.87 145.944,140.98 C144.419,140.37 142.883,139.75 141.431,138.97 C140.103,138.23 138.711,136.86 137.079,137.56 C134.564,138.76 132.245,140.4 129.516,141.1 C128.274,141.49 127.069,142.02 125.966,142.71 C124.29,143.45 122.443,143.8 120.83,144.67 C119.344,146.31 117.078,146.7 115.044,147.25 C113.527,147.99 112.161,149.06 110.487,149.4 C108.004,150.32 105.385,150.72 102.8,151.23 C102.148,151.97 101.467,152.88 101.567,153.92 C101.969,155.63 101.286,157.36 101.658,159.08 C101.627,160.94 102.762,162.58 102.736,164.44 C103.332,167.36 101.897,170.11 101.337,172.91 C100.902,174.03 100.896,175.23 100.749,176.41 C100.58,177.13 100.128,177.8 100.197,178.57 C100.272,181.38 99.958,184.21 100.467,186.98 C100.972,188.79 102.021,190.4 102.524,192.21 C103.004,193.34 102.938,194.75 102.141,195.71 C101.156,196.45 99.903,197.04 98.641,196.84 C97.722,196.84 96.784,196.77 95.88,196.96 C93.931,196.88 91.929,196.4 89.976,196.82 C86.776,196.86 83.591,197.15 80.42,197.58 C79.013,197.68 77.294,197.61 76.405,196.34 C75.86,194.96 76.922,193.42 78.278,193.04 C79.128,192.64 80.086,192.95 80.974,192.73 C81.979,192.46 83.042,192.78 84.043,192.45 C85.858,192.51 87.555,191.6 89.05,190.65 C90.309,189.6 91.921,189.14 93.206,188.13 C93.494,187.82 93.766,187.43 93.683,186.98 C93.181,183.73 93.386,180.39 92.74,177.17 C92.941,174.59 92.14,172.09 92.158,169.53 C91.842,168.35 92.141,167.12 91.784,165.95 C91.922,164.39 91.313,162.91 91.386,161.36 C90.919,159.98 91.645,158.57 91.243,157.2 C91.034,155.44 90.287,153.8 90.179,152.03 C89.214,149.41 90.402,146.49 92.406,144.74 C93.47,144.19 94.79,143.84 95.41,142.73 C99.328,138.13 103.772,133.89 108.858,130.59 C110.781,128.93 113.091,127.82 115.16,126.36 C116.268,125.36 117.728,124.92 118.895,123.99 C122.344,122.18 124.376,118.18 124.096,114.34 C123.587,110.29 122.681,106.18 120.635,102.6 C120.449,102.63 120.092,102.46 120.069,102.76 C119.032,104.82 119.436,107.33 118.176,109.32 C117.565,110.16 117.384,111.25 116.652,112 C114.5,113.78 111.608,115.44 108.746,114.35 C107.833,114.34 107.091,113.63 106.191,113.7 C105.714,114.43 105.391,115.24 105.02,116.03 C104.621,117.03 104.396,118.27 103.385,118.86 C102.649,118.89 102.003,118.43 101.445,118 C99.449,116.11 97.484,114.15 95.847,111.93 C94.484,110.58 92.484,109.37 92.275,107.31 C91.868,106.62 91.005,106.79 90.347,106.92 C88.993,107.28 87.41,107.46 86.162,106.69 C85.281,105.97 84.569,105.06 83.711,104.32 C83.181,104.26 82.806,104.69 82.35,104.87 C81.757,104.95 81.157,104.89 80.565,104.94 C79.852,105.39 79.423,106.16 78.732,106.64 C78.358,106.63 77.97,106.44 77.793,106.1 C76.945,104.69 76.941,102.94 77.398,101.4 C77.565,100.59 77.866,99.24 78.971,99.55 C79.224,101.16 78.13,102.99 79.262,104.43 C79.944,103.8 80.194,102.85 80.833,102.18 C81.922,101.01 82.61,99.53 83.725,98.39 C84.313,97.49 85.468,96.75 85.291,95.55 C83.775,95.47 82.731,96.9 81.289,97.13 C80.586,97.37 80.071,98.13 79.272,98.05 C77.23,97.92 75.413,96.82 73.981,95.4 C72.596,94.67 71.348,93.69 69.86,93.18 C68.686,92.76 67.715,91.94 66.545,91.52 C63.772,90.38 61.33,88.44 58.357,87.87 C57.244,87.26 56.379,86.15 55.028,86.06 C52.203,84.77 49.447,83.32 46.6,82.07 C44.93,81.12 42.998,80.81 41.316,79.9 C40.25,79.34 39.052,79.06 38.042,78.4 C36.921,77.68 35.51,77.75 34.35,77.12 C33.243,76.47 31.982,76.19 30.742,75.91 C29.744,75.86 29.028,75.08 28.132,74.74 C25.65,74.14 23.169,73.35 20.61,73.01 C19.741,73.08 18.971,72.61 18.14,72.45 C17.431,72.37 16.708,72.49 16.008,72.32 C14.779,72.16 13.682,71.38 12.409,71.47 C10.355,71.23 8.348,70.63 6.263,70.67 C5.333,70.49 4.456,70.12 3.532,69.93 C2.38,69.62 1.162,69.9 0.017,69.52 C-0.141,68.63 0.855,67.86 1.682,68.06 C2.721,68.39 3.83,68.09 4.871,68.4 C6.334,68.78 7.833,68.95 9.341,69.03 C10.423,69.32 11.415,69.87 12.451,70.29 C13.848,70.33 15.13,71.01 16.527,71.08 C18.617,71.19 20.598,71.98 22.688,72.1 C25.073,72.76 27.584,73.08 29.804,74.23 C30.836,74.68 31.969,74.82 33.026,75.21 C34.243,75.58 35.318,76.31 36.543,76.65 C38.717,77.28 40.767,78.24 42.84,79.12 C44.125,79.46 45.392,79.9 46.544,80.58 C48.381,81.67 50.539,82.04 52.36,83.16 C53.704,83.68 54.808,84.69 56.222,85.05 C58.154,85.8 60.059,86.61 61.878,87.61 C63.449,87.98 64.833,88.83 66.285,89.5 C67.599,89.91 68.796,90.6 70.092,91.05 C71.486,91.53 72.496,92.67 73.857,93.22 C75.466,93.87 76.704,95.13 78.254,95.89 C78.864,96.21 79.638,96.85 80.305,96.3 C81.24,95.53 82.217,94.81 83.353,94.37 C84.321,93.77 85.454,93.44 86.599,93.65 C87.464,94.24 86.89,95.47 86.779,96.3 C87.907,96.44 89.03,95.87 90.143,96.25 C92.919,96.85 95.506,98.33 97.394,100.46 C98.927,101.09 100.493,101.75 102.177,101.84 C102.985,101.85 103.731,102.19 104.501,102.39 C105.636,102.01 106.775,102.53 107.87,102.81 C108.479,102.95 108.63,103.88 109.325,103.78 C109.617,103.55 109.856,103.22 109.944,102.85 C110.071,100.95 109.916,99.05 109.609,97.18 C109.287,94.09 109.963,91.03 110.351,87.97 C110.442,86.93 110.896,85.98 111.243,85.01 C111.936,82.18 113.611,79.58 115.946,77.84 C118.355,76.28 121.32,76.24 123.963,75.31 C125.266,74.76 126.481,73.81 126.992,72.46 C127.328,71.99 127.06,71.45 126.678,71.12 C125.487,71.02 123.964,71.46 123.21,70.23 C122.769,68.97 123.592,67.67 123.293,66.39 C122.916,66.02 122.429,65.81 122.046,65.46 C121.976,64.73 121.755,64.03 121.456,63.36 C120.963,61.56 122.75,59.99 122.233,58.19 C121.871,56.01 122.556,53.74 123.924,52.02 C124.788,51.16 123.716,49.66 124.827,48.92 C126.165,48.29 127.717,48.65 129.153,48.52 C130.603,48.3 132.082,47.98 133.54,48.33 C134.943,47.92 136.331,48.5 137.682,48.86 C140.072,49.61 141.747,51.73 142.78,53.92 C143.502,55.17 144.219,56.52 144.148,58 C144.198,59.19 143.282,60.07 142.546,60.89 C141.817,61.92 140.764,62.66 139.986,63.65 C139.659,64.31 139.313,64.95 139.065,65.64 C138.579,67.26 139.865,68.83 139.378,70.43 C139.296,71.06 140.228,71.2 140.33,71.77 C140.378,73.05 141.752,73.54 142.685,74.11 C144.45,74.01 146.126,74.57 147.882,74.55 C149.362,74.95 150.938,74.42 152.404,74.93 C154.085,75.5 155.864,75.74 157.499,76.45 C157.895,76.61 158.31,76.72 158.732,76.79 C160.905,77.01 162.855,78.33 165.076,78.19 C166.965,78.7 168.974,78.9 170.875,78.35 C172.008,77.83 173.353,78.56 174.443,77.9 C177.142,76.88 178.33,74.09 179.972,71.95 C182.026,69.91 183.427,67.36 185.068,65 C185.601,63.62 186.419,62.4 187.065,61.08 C187.472,60.3 188.703,61.24 189.045,60.37 C189.239,59.33 188.671,58.36 188.079,57.55 C186.448,56.28 184.461,55.26 183.479,53.35 C182.91,52.24 182.013,51.37 181.108,50.55 C180.921,50.33 180.575,50.12 180.663,49.78 C180.634,48.73 182.666,48.64 182.011,47.56 C181.508,46.84 181.121,45.24 182.329,45.05 L182.329,45.05 Z" id="Fill-200"></path>
            </g>
        </g>
    </g>
</svg>