<?xml version="1.0" encoding="UTF-8" standalone="no"?>
<svg width="26px" height="32px" viewBox="0 0 26 32" version="1.1" xmlns="http://www.w3.org/2000/svg" xmlns:xlink="http://www.w3.org/1999/xlink">
    <!-- Generator: Sketch 43.1 (39012) - http://www.bohemiancoding.com/sketch -->
    <title>O</title>
    <desc>Created with Sketch.</desc>
    <defs></defs>
    <g id="Page-1" stroke="none" stroke-width="1" fill="none" fill-rule="evenodd">
        <path d="M11.39,5.536 L8.33,5.536 C8.37800024,5.87200168 8.48599916,6.1599988 8.654,6.4 C8.654,6.47200036 8.78599868,6.59199916 9.05,6.76 C9.31400132,6.92800084 9.52999916,7.012 9.698,7.012 L10.022,7.012 C10.3820018,7.012 10.6939987,6.85600156 10.958,6.544 C11.2220013,6.23199844 11.3659999,5.8960018 11.39,5.536 Z M25.574,9.784 L24.602,15.292 C24.7220006,15.3640004 24.8539993,15.5079989 24.998,15.724 C25.0940005,15.916001 25.142,16.0599995 25.142,16.156 C25.142,16.6120023 24.8660028,16.84 24.314,16.84 L21.866,29.944 C22.6340038,30.0880007 23.2099981,30.5199964 23.594,31.24 C23.0419972,31.2640001 22.2140055,31.276 21.11,31.276 L19.166,31.276 C19.5500019,30.5559964 20.1259962,30.100001 20.894,29.908 L18.446,16.84 C18.2299989,16.84 18.0440008,16.7740007 17.888,16.642 C17.7319992,16.5099993 17.654,16.3360011 17.654,16.12 C17.654,15.8799988 17.8219983,15.6160014 18.158,15.328 L17.51,11.728 L13.73,11.728 L13.082,15.292 C13.4660019,15.5560013 13.658,15.8319986 13.658,16.12 C13.658,16.3360011 13.5680009,16.5099993 13.388,16.642 C13.2079991,16.7740007 13.0100011,16.84 12.794,16.84 L10.346,29.944 C11.1140038,30.0880007 11.6899981,30.5199964 12.074,31.24 C11.5219972,31.2640001 10.6940055,31.276 9.59,31.276 L7.646,31.276 C8.05400204,30.5559964 8.6179964,30.100001 9.338,29.908 L6.926,16.84 C6.70999892,16.84 6.52400078,16.7740007 6.368,16.642 C6.21199922,16.5099993 6.134,16.3360011 6.134,16.12 C6.134,15.927999 6.30199832,15.6640017 6.638,15.328 L5.99,11.728 L0.374,11.728 L7.79,4.312 L8.726,0.64 L11.03,0.64 L12.254,5.536 L12.074,5.608 C12.074,6.06400228 11.9420013,6.42399868 11.678,6.688 L11.174,9.784 L12.218,9.784 C12.5780018,9.27999748 12.9499981,9.028 13.334,9.028 L13.694,9.208 C13.7420002,9.23200012 13.7839998,9.26799976 13.82,9.316 C13.8560002,9.36400024 13.8859999,9.42399964 13.91,9.496 L13.982,9.64 L19.31,4.312 L20.21,0.64 L22.514,0.64 L23.774,5.536 L23.558,5.608 C23.558,5.89600144 23.4380012,6.25599784 23.198,6.688 L22.658,9.784 L23.702,9.784 C23.7500002,9.73599976 23.8099996,9.67000042 23.882,9.586 C23.9540004,9.50199958 24.0199997,9.43600024 24.08,9.388 C24.1400003,9.33999976 24.2059996,9.2860003 24.278,9.226 C24.3500004,9.1659997 24.4279996,9.11800018 24.512,9.082 C24.5960004,9.04599982 24.6739996,9.028 24.746,9.028 C25.1780022,9.028 25.4539994,9.27999748 25.574,9.784 Z M13.622,9.892 C13.6460001,9.84399976 13.658,9.77200048 13.658,9.676 C13.5619995,9.45999892 13.4300008,9.352 13.262,9.352 C13.2379999,9.352 13.2140001,9.35799994 13.19,9.37 C13.1659999,9.38200006 13.1420001,9.388 13.118,9.388 C13.0459996,9.41200012 11.9660104,10.4679896 9.878,12.556 C8.1979916,10.755991 7.13000228,9.70000156 6.674,9.388 L6.494,9.352 C6.2539988,9.40000024 6.134,9.5439988 6.134,9.784 C6.134,9.85600036 7.20198932,10.9599893 9.338,13.096 C7.48999076,14.9440092 6.55400012,15.9039996 6.53,15.976 L6.53,16.084 L6.494,16.156 C6.494,16.3960012 6.64999844,16.516 6.962,16.516 C7.05800048,16.4679998 8.02999076,15.5200092 9.878,13.672 C10.0460008,13.8160007 10.3579977,14.1279976 10.814,14.608 C11.2700023,15.0880024 11.695998,15.5139981 12.092,15.886 C12.488002,16.2580019 12.7459994,16.4679998 12.866,16.516 L13.046,16.516 L13.19,16.408 C13.2620004,16.1919989 13.298,16.0720001 13.298,16.048 C13.2259996,15.8799992 12.9620023,15.592002 12.506,15.184 C12.0499977,14.775998 11.822,14.5360004 11.822,14.464 L10.454,13.096 C12.5180103,11.0319897 13.5739998,9.96400036 13.622,9.892 Z M25.106,9.892 C25.1300001,9.84399976 25.142,9.77200048 25.142,9.676 C25.142,9.45999892 25.0100013,9.352 24.746,9.352 C24.6499995,9.352 24.5540005,9.39999952 24.458,9.496 C24.1219983,9.80800156 23.7800017,10.1379983 23.432,10.486 C23.0839983,10.8340017 22.712002,11.211998 22.316,11.62 C21.919998,12.028002 21.6140011,12.3399989 21.398,12.556 C19.6939915,10.7079908 18.6260022,9.65200132 18.194,9.388 L18.014,9.352 C17.7739988,9.40000024 17.654,9.5439988 17.654,9.784 C17.654,9.88000048 18.0859957,10.3659956 18.95,11.242 C19.8140043,12.1180044 20.449998,12.7359982 20.858,13.096 C18.9859906,14.9680094 18.0380001,15.9279998 18.014,15.976 C18.014,16.0000001 18.0020001,16.0359998 17.978,16.084 L17.978,16.156 C17.978,16.3960012 18.1099987,16.516 18.374,16.516 C18.3980001,16.516 18.4219999,16.5100001 18.446,16.498 C18.4700001,16.4859999 18.4939999,16.48 18.518,16.48 C18.6140005,16.4319998 19.5739909,15.4960091 21.398,13.672 C21.5660008,13.8160007 22.0159963,14.2779961 22.748,15.058 C23.4800037,15.8380039 23.9899986,16.323999 24.278,16.516 L24.566,16.516 L24.71,16.408 C24.7820004,16.1919989 24.818,16.0720001 24.818,16.048 C24.7459996,15.9039993 24.506002,15.6400019 24.098,15.256 C23.689998,14.8719981 23.4500004,14.6320005 23.378,14.536 C23.3299998,14.536 23.306,14.5120002 23.306,14.464 L21.938,13.096 C22.0580006,12.9759994 22.3879973,12.6700025 22.928,12.178 C23.4680027,11.6859975 23.9119983,11.2660017 24.26,10.918 C24.6080017,10.5699983 24.8899989,10.2280017 25.106,9.892 Z M8.582,9.82 C8.582,9.74799964 8.53400048,9.45400258 8.438,8.938 C8.34199952,8.42199742 8.24600048,7.91800246 8.15,7.426 C8.05399952,6.93399754 8.006,6.67600012 8.006,6.652 L4.838,9.82 L5.81,9.82 C5.81,9.60399892 5.87599934,9.41800078 6.008,9.262 C6.14000066,9.10599922 6.31399892,9.028 6.53,9.028 C6.74600108,9.028 7.11799736,9.29199736 7.646,9.82 L8.582,9.82 Z M20.066,9.82 L19.526,6.652 L16.358,9.82 L17.294,9.712 C17.294,9.54399916 17.3719992,9.38800072 17.528,9.244 C17.6840008,9.09999928 17.857999,9.028 18.05,9.028 C18.1460005,9.028 18.2539994,9.0579997 18.374,9.118 C18.4940006,9.1780003 18.5839997,9.2379997 18.644,9.298 C18.7040003,9.3580003 18.7939994,9.45399934 18.914,9.586 C19.0340006,9.71800066 19.1059999,9.79599988 19.13,9.82 L20.066,9.82 Z M10.886,7.408 C10.6219987,7.57600084 10.3580013,7.66 10.094,7.66 L9.59,7.66 C9.3499988,7.66 9.09800132,7.57600084 8.834,7.408 L9.266,9.784 L10.49,9.784 L10.886,7.408 Z M22.406,7.408 C22.1179986,7.57600084 21.8540012,7.66 21.614,7.66 L21.11,7.66 C20.8939989,7.66 20.6420014,7.57600084 20.354,7.408 L20.75,9.784 L21.974,9.784 L22.406,7.408 Z M22.91,5.536 L19.85,5.536 C19.85,5.6560006 19.8979995,5.84199874 19.994,6.094 C20.0900005,6.34600126 20.1979994,6.50799964 20.318,6.58 C20.6060014,6.86800144 20.9059984,7.012 21.218,7.012 L21.542,7.012 C21.9020018,7.012 22.2139987,6.85600156 22.478,6.544 C22.7420013,6.23199844 22.8859999,5.8960018 22.91,5.536 Z" id="O" fill="#73C2EC"></path>
    </g>
</svg>