<?xml version="1.0" encoding="UTF-8"?>
<svg width="217px" height="249px" viewBox="0 0 217 249" version="1.1" xmlns="http://www.w3.org/2000/svg" xmlns:xlink="http://www.w3.org/1999/xlink">
    <!-- Generator: Sketch 43.1 (39012) - http://www.bohemiancoding.com/sketch -->
    <title>Group 2</title>
    <desc>Created with Sketch.</desc>
    <defs></defs>
    <g id="Page-1" stroke="none" stroke-width="1" fill="none" fill-rule="evenodd">
        <g id="Group-2">
            <path d="M76.519,243.6 C89.173,243.59 101.829,243.6 114.483,243.57 C116.447,243.14 118.426,243.67 120.402,243.57 C129.51,243.63 138.62,243.58 147.728,243.61 C148.515,243.76 149.305,243.84 150.086,243.6 C160.703,243.6 171.321,243.6 181.938,243.61 C182.808,243.74 183.699,243.88 184.579,243.7 C186.115,243.35 187.651,243.96 189.193,243.73 C191.6,243.66 194.08,243.42 196.496,243.79 C200.425,243.68 204.387,243.97 208.297,243.62 C209.753,244.08 211.242,243.28 212.703,243.76 C213.732,243.67 214.769,243.52 215.812,243.62 C216.65,244.07 216.594,245.15 216.631,245.97 C216.599,246.72 216.77,247.7 216.021,248.16 C213.946,248.33 211.897,247.82 209.83,248.05 C208.885,248.28 207.913,248.15 206.97,248 C200.917,248 194.863,247.97 188.812,248 C186.895,247.89 184.983,248.44 183.081,248.02 C181.886,248.35 180.668,247.78 179.452,248.04 C177.553,248.49 175.603,247.81 173.717,248.16 C173.266,248.13 172.834,247.97 172.379,248 C167.603,248.02 162.826,247.99 158.047,248 C157.206,247.94 156.395,248.25 155.567,248 C146.964,247.95 138.359,247.99 129.757,247.97 C129.142,247.81 128.511,247.74 127.878,247.79 C126.276,247.9 124.653,247.63 123.077,247.97 C120.744,247.64 118.362,247.89 116.008,247.8 C115.225,247.69 114.46,248.12 113.694,247.88 C112.297,247.56 110.896,248.24 109.513,247.83 C104.355,247.78 99.192,247.79 94.035,247.84 C92.702,248.26 91.353,247.55 90.023,247.96 C86.964,247.99 83.905,247.97 80.846,247.97 C79.487,248.05 78.174,247.7 76.832,247.98 C75.493,247.67 74.175,248.06 72.822,247.98 C62.565,247.97 52.306,248.01 42.051,247.98 C40.981,247.83 39.884,247.69 38.816,247.95 C36.707,247.98 34.599,247.98 32.49,247.95 C31.356,247.65 30.2,247.91 29.061,247.97 C27.102,247.68 25.107,247.86 23.131,247.83 C22.187,248.06 21.222,247.97 20.276,247.81 C14.706,247.79 9.132,247.81 3.563,247.79 C2.237,247.46 2.315,245.92 2.383,244.84 C2.276,244.05 3.101,243.44 3.838,243.6 C5.167,243.78 6.537,243.89 7.861,243.62 C9.368,243.91 10.917,243.76 12.441,243.76 C16.287,243.79 20.131,243.75 23.974,243.79 C24.754,243.97 25.541,244.03 26.316,243.79 C31.818,243.8 37.322,243.75 42.825,243.78 C43.467,243.83 44.092,243.47 44.73,243.68 C46.006,244.04 47.283,243.42 48.547,243.76 C50.472,243.98 52.377,243.37 54.276,243.77 C56.446,243.74 58.631,243.89 60.781,243.6 C62.119,243.64 63.476,243.48 64.794,243.76 C65.926,243.55 67.097,243.52 68.226,243.77 C69.82,243.75 71.432,243.87 73.009,243.6 C74.175,243.67 75.363,243.99 76.519,243.6 Z M166.138,191.04 C166.573,191.02 167.098,190.97 167.304,191.46 C167.425,192.5 166.821,193.44 166.276,194.27 C165.726,194.28 164.941,194.53 164.627,193.93 C164.182,193.54 164.72,193.03 164.824,192.59 C165.072,191.97 165.213,190.87 166.138,191.04 L166.138,191.04 Z M107.082,178.03 C107.919,177.49 108.863,178.26 109.194,179.03 C109.781,179.91 109.652,181 109.57,181.99 C109.299,182.72 108.616,183.5 107.769,183.39 C107.015,183.13 106.223,182.76 105.806,182.04 C105.147,180.62 105.731,178.82 107.082,178.03 L107.082,178.03 Z M78.045,176.72 C79.236,176.25 80.4,177.77 79.533,178.74 C78.606,180.31 76.722,180.74 75.47,181.95 C73.23,183.98 71.393,186.4 69.31,188.58 C68.039,190.32 67.175,192.37 65.649,193.91 C65.272,194.4 64.769,193.86 64.513,193.53 C64.331,192.52 64.799,191.56 64.867,190.57 C64.901,189.75 65.491,189.1 66.026,188.54 C66.873,187.63 67.255,186.38 68.142,185.5 C69.356,184.15 70.33,182.62 71.681,181.4 C73.319,179.29 75.477,177.53 78.045,176.72 L78.045,176.72 Z M167.476,176.34 C167.979,176.3 168.49,176.3 168.996,176.35 C169.645,176.8 169.959,177.59 170.169,178.32 C170.199,179.14 169.624,179.83 169.131,180.44 C168.59,181 168.294,181.77 167.673,182.25 C166.787,182.36 165.869,181.7 165.632,180.85 C165.623,179.84 165.457,178.79 165.784,177.82 C166.003,177.04 166.784,176.62 167.476,176.34 L167.476,176.34 Z M68.858,176.13 C69.658,175.75 70.749,175.94 71.192,176.76 C71.286,177.47 70.789,178.04 70.648,178.69 C70.591,179.36 70.665,180.02 70.597,180.68 C70.059,181.86 68.551,181.95 67.426,181.86 C66.594,180.84 65.392,179.71 65.675,178.27 C66.405,177.15 67.717,176.7 68.858,176.13 L68.858,176.13 Z M52.629,173.24 C53.161,173.11 53.885,172.86 54.294,173.36 C55.386,174.17 55.054,175.77 54.468,176.81 C54.413,177.86 53.628,178.62 53.138,179.49 C52.755,180.11 51.916,180.56 51.228,180.26 C50.654,179.28 51.002,177.95 50.269,177.01 C49.849,176.5 49.937,175.81 50,175.21 C50.715,174.38 51.555,173.57 52.629,173.24 L52.629,173.24 Z M151.224,171.75 C152.925,170.93 153.949,173.36 153.463,174.69 C152.962,175.58 152.698,176.7 151.784,177.28 C151.088,177.32 150.275,177.15 149.81,176.6 C149.69,175.68 149.189,174.84 149.167,173.92 C149.554,172.99 150.261,172.12 151.224,171.75 L151.224,171.75 Z M127.911,170.4 C128.337,170.42 128.96,170.21 129.178,170.72 C129.715,171.76 129.421,172.98 129.495,174.11 C129.564,175.12 128.913,176 128.087,176.51 C127.313,176.67 126.346,176.26 126.225,175.41 C126.012,174.23 125.65,173.03 125.898,171.83 C126.325,171.1 127.133,170.64 127.911,170.4 L127.911,170.4 Z M60.683,167.74 C61.578,167.03 62.371,168.01 62.65,168.83 C63.141,169.66 62.207,170.37 62.222,171.19 C62.182,172.42 61.87,173.77 60.848,174.55 C60.264,175.07 59.229,174.67 59.067,173.94 C58.852,173.24 58.566,172.56 58.242,171.91 C57.758,170.94 57.934,169.6 58.903,169 C59.537,168.64 60.129,168.21 60.683,167.74 L60.683,167.74 Z M117.591,167.53 C118.076,167.51 118.7,167.4 118.947,167.94 C118.983,168.72 119.159,169.61 118.672,170.29 C117.915,171.35 118.016,173.06 116.713,173.67 C115.39,174.02 115.597,172.24 114.986,171.52 C114.04,169.69 115.958,167.98 117.591,167.53 L117.591,167.53 Z M162.315,165.63 C162.86,165.61 163.418,165.57 163.956,165.68 C164.696,166.37 165.191,167.4 164.99,168.43 C164.586,169.07 163.955,169.63 163.173,169.69 C162.249,169.8 161.491,170.63 160.524,170.38 C159.972,169.73 159.575,168.88 159.675,168 C159.875,166.73 161.062,165.77 162.315,165.63 L162.315,165.63 Z M173.008,165.43 C174.064,165.12 174.347,166.38 174.647,167.12 C174.935,167.71 174.523,168.29 174.382,168.85 C174.066,169.71 174.082,170.86 173.171,171.36 C172.381,171.36 171.38,170.84 171.367,169.95 C171.407,168.95 170.664,168.05 170.986,167.04 C171.459,166.32 172.137,165.61 173.008,165.43 L173.008,165.43 Z M101.148,165 C102.051,164.52 102.589,165.76 102.689,166.49 C102.772,167.89 102.316,169.47 101.179,170.39 C100.742,170.43 100.3,170.44 99.865,170.39 C99.03,169.82 98.968,168.72 98.74,167.83 C98.733,166.46 99.865,165.32 101.148,165 L101.148,165 Z M67.913,163.66 C68.794,163.08 69.712,164.09 69.652,164.96 C69.712,166.36 69.592,167.9 68.704,169.06 C68.135,169.62 67.508,170.43 66.606,170.21 C65.932,169.65 66.069,168.65 65.591,167.97 C65.186,167.35 64.835,166.53 65.301,165.83 C66.008,164.95 66.878,164.15 67.913,163.66 L67.913,163.66 Z M54.717,161.38 C55.467,160.88 56.043,161.72 56.459,162.24 C56.786,163.79 55.632,165.07 55.252,166.5 C54.937,167.24 54.623,168.49 53.59,168.32 C52.4,168.42 52.408,166.88 51.976,166.11 C51.441,165.25 52.003,164.37 52.285,163.54 C52.568,162.39 53.761,161.87 54.717,161.38 L54.717,161.38 Z M61.421,160.86 C61.908,160.87 62.56,160.66 62.885,161.14 C63.371,161.57 63.172,162.31 63.144,162.88 C62.759,164.23 62.461,165.73 61.419,166.74 C60.675,167.37 59.786,166.67 59.399,166 C59.288,165.45 59.167,164.9 58.85,164.43 C58.387,163.79 58.673,162.98 58.848,162.29 C59.719,161.83 60.466,161.13 61.421,160.86 L61.421,160.86 Z M132.881,160.27 C134.483,159.89 135.07,161.66 135.992,162.56 C136.631,163.18 136.617,164.82 135.506,164.92 C134.362,165.31 132.713,166.01 131.816,164.82 C131.903,163.66 130.798,162.8 131.018,161.65 C131.472,161.03 132.085,160.38 132.881,160.27 L132.881,160.27 Z M72.297,160.2 C72.884,159.92 73.527,160.27 74.125,160.35 C74.328,160.81 74.551,161.26 74.771,161.71 C75.053,162.81 74.463,163.98 73.592,164.64 C72.749,164.96 72.088,164.07 72.149,163.3 C72.186,162.53 71.162,162.14 71.36,161.33 C71.249,160.73 71.861,160.43 72.297,160.2 L72.297,160.2 Z M169.196,158.74 C169.618,158.58 170.072,158.51 170.525,158.56 C171.403,159.01 171.486,160.21 171.115,161.03 C170.752,162.06 169.846,162.75 168.931,163.26 C168.36,163.51 167.618,163.36 167.376,162.73 C167.173,161.89 166.733,161.04 166.97,160.16 C167.406,159.32 168.343,159 169.196,158.74 L169.196,158.74 Z M190.207,157.59 C191.335,157.54 192.346,158.12 193.365,158.52 C194.739,159.15 196.335,159.29 197.569,160.22 C200.436,162.34 203.862,163.4 207.088,164.84 C208.253,165.33 208.254,166.91 207.418,167.72 C205.744,167.91 204.441,166.5 202.83,166.23 C200.99,165.95 199.552,164.7 197.989,163.8 C196.409,162.9 194.96,161.77 193.29,161.03 C192.156,160.41 190.954,159.87 189.946,159.05 C189.439,158.73 189.547,157.6 190.207,157.59 L190.207,157.59 Z M197.848,156.45 C199.231,156.17 200.431,157.17 201.804,157.03 C202.92,156.95 203.943,157.53 205.05,157.58 C207.508,157.69 209.93,158.21 212.407,158.18 C213.133,158.23 213.481,159.19 212.996,159.72 C211.856,161.32 209.609,160.96 207.922,160.88 C206.407,161.27 204.871,160.65 203.405,160.3 C201.55,159.35 199.203,159.33 197.671,157.81 C197.173,157.47 197.194,156.55 197.848,156.45 L197.848,156.45 Z M112.442,156.45 C113.656,156.29 114.078,157.9 113.689,158.82 C113.278,160.07 112.81,161.96 111.202,161.99 C109.83,161.46 109.619,159.71 109.834,158.44 C110.484,157.57 111.313,156.6 112.442,156.45 L112.442,156.45 Z M149.313,155.87 C151.254,155.49 152.117,157.61 152.996,158.93 C153.915,160.03 152.844,161.38 152.038,162.2 C150.895,162.95 148.686,162.82 148.44,161.16 C148.585,159.92 147.35,159.07 147.45,157.87 C147.761,157.01 148.418,156.11 149.313,155.87 L149.313,155.87 Z M66.391,155.3 C67.11,155.3 68.018,155.26 68.492,155.9 C68.981,157 69.06,158.29 68.633,159.42 C68.446,160.46 67.238,160.69 66.413,161.04 C65.627,160.96 64.316,161.42 64.018,160.4 C63.833,159.85 63.458,159.39 63.181,158.88 C63.106,157.13 64.771,155.58 66.391,155.3 L66.391,155.3 Z M138.627,154.35 C138.962,154.21 139.321,154.11 139.69,154.18 C140.393,155.05 141.492,155.92 141.116,157.19 C140.56,158.37 139.376,159.1 138.307,159.77 C137.39,160.34 136.441,159.14 136.554,158.27 C136.667,157.41 135.878,156.66 136.236,155.8 C136.617,154.81 137.779,154.72 138.627,154.35 L138.627,154.35 Z M79.185,152.05 C80.129,151.8 80.837,152.53 81.313,153.24 C81.259,154.35 81.392,155.47 81.297,156.58 C80.68,157.88 79.063,157.65 77.888,157.59 C76.943,156.78 76.447,155.43 76.365,154.22 C76.911,153.15 78.113,152.45 79.185,152.05 L79.185,152.05 Z M168.051,151.29 C169.096,150.94 169.334,152.17 169.785,152.82 C170.337,153.59 169.58,154.41 169.01,154.9 C168.055,155.6 167.495,156.71 166.467,157.33 C165.602,157.93 165.385,159.63 164.071,159.33 C163.325,159.07 162.691,158.12 163.01,157.31 C163.325,156.24 163.276,155.13 163.336,154.03 C164.245,152.3 166.437,152.06 168.051,151.29 L168.051,151.29 Z M55.881,150.9 C56.319,150.91 56.837,150.82 57.162,151.19 C57.749,152.14 57.235,153.25 57.112,154.26 C57.06,155.39 56.258,156.29 55.481,157.03 C54.848,157.11 54.242,156.66 53.971,156.11 C53.574,155.52 54.132,154.61 53.419,154.17 C52.506,153.51 52.874,152.13 53.829,151.72 C54.512,151.45 55.129,150.93 55.881,150.9 L55.881,150.9 Z M21.668,149.53 C21.916,149.13 22.451,149.47 22.655,149.77 C23.307,150.63 24.48,150.84 25.135,151.69 C25.543,152.27 25.836,152.97 25.686,153.69 C25.5,154.39 25.679,155.29 24.91,155.69 C24.043,155.81 23.316,155.22 22.724,154.67 C21.358,153.41 20.536,151.22 21.668,149.53 L21.668,149.53 Z M155.245,148.38 C156.316,147.82 156.909,149.3 157.349,150.04 C157.479,151.2 157,152.53 156.005,153.19 C155.437,153.24 154.742,153.32 154.389,152.77 C154.169,152.04 153.899,151.33 153.586,150.63 C153.485,149.59 154.373,148.79 155.245,148.38 L155.245,148.38 Z M145.67,148.15 C146.669,147.84 147.955,148.16 148.565,149.07 C148.888,150.39 147.947,151.46 147.33,152.52 C146.85,153.31 145.426,153.59 145.018,152.6 C144.788,151.66 144.112,150.81 144.215,149.84 C144.518,149.14 144.981,148.5 145.67,148.15 L145.67,148.15 Z M68.677,148.24 C69.843,147.93 70.882,149.11 70.816,150.22 C70.959,151.27 70.447,152.35 69.631,153 C68.708,152.96 67.592,153.34 66.873,152.57 C65.978,152.1 65.6,150.68 66.461,150.01 C67.198,149.43 67.873,148.7 68.677,148.24 L68.677,148.24 Z M214.477,147.67 C215.104,147.37 215.881,147.44 216.401,147.92 C216.326,148.93 216.848,150.43 215.704,150.99 C214.924,151.45 214.462,152.33 213.592,152.67 C212.357,153.2 211.201,154.01 209.83,154.15 C207.902,154.11 206.237,155.55 204.284,155.3 C202.873,155.09 201.072,155.32 200.189,153.92 C200.036,153.12 200.929,152.62 201.597,152.47 C203.451,152.56 205.055,151.44 206.84,151.1 C208.203,150.85 209.525,150.44 210.788,149.87 C212.251,149.54 213.054,148.08 214.477,147.67 L214.477,147.67 Z M116.445,146.51 C117.402,146.46 117.969,147.5 118.581,148.1 C118.699,149.18 117.55,149.8 117.304,150.79 C116.985,151.92 115.098,153 114.408,151.64 C114.503,150.31 113.976,149.02 114.206,147.69 C114.793,147.08 115.65,146.74 116.445,146.51 L116.445,146.51 Z M123.13,145.56 C123.872,145.01 124.459,145.85 124.781,146.44 C125.52,147.58 124.854,148.99 124.151,149.98 C123.845,150.32 123.892,150.8 123.954,151.22 C124.546,151.59 125.283,151.79 125.676,152.41 C126.071,152.89 125.775,153.54 125.471,153.98 C124.824,155.19 123.795,156.15 122.673,156.91 C121.737,157.43 120.812,156.5 120.614,155.61 C120.417,154.78 119.809,153.86 120.346,153.04 C120.776,152.26 121.696,152.05 122.392,151.59 C122.639,150.85 122.004,150.25 121.858,149.56 C121.722,148.69 120.812,148.06 121.073,147.11 C121.618,146.44 122.342,145.91 123.13,145.56 L123.13,145.56 Z M104.809,143.1 C106.031,142.68 106.934,143.64 107.495,144.59 C107.51,145.38 107.684,146.29 107.194,146.99 C106.512,148.06 106.039,149.37 104.933,150.09 C103.746,150.55 102.359,149.56 102.28,148.33 C101.983,147.03 101.612,145.5 102.418,144.3 C103.051,143.64 103.998,143.45 104.809,143.1 L104.809,143.1 Z M113.586,139.45 C114.741,139.17 115.241,140.5 115.872,141.21 C116.493,141.85 116.615,142.73 116.466,143.58 C114.695,144.5 112.318,144.22 111.042,142.59 C110.023,141.77 110.849,140.38 111.791,139.91 C112.374,139.71 112.98,139.57 113.586,139.45 L113.586,139.45 Z M215.998,137.91 C216.093,137.9 216.286,137.89 216.383,137.89 C216.84,139.47 216.345,141.1 216.41,142.71 C215.556,143.22 214.608,143.65 213.987,144.47 C213.04,145.79 211.442,146.4 209.952,146.87 C209.071,146.9 207.966,147.49 207.248,146.73 C207.05,145.9 207.946,145.48 208.512,145.1 C209.417,144.65 210.142,143.93 210.75,143.14 C211.716,141.75 213.376,141.05 214.343,139.66 C214.852,139.06 215.262,138.23 215.998,137.91 L215.998,137.91 Z M60.843,136.97 C62.046,136.65 62.465,138.09 62.761,138.97 C62.79,140.1 62.935,141.5 61.965,142.3 C61.421,142.35 60.874,142.32 60.329,142.29 C59.758,141.93 59.578,141.25 59.243,140.71 C58.956,140.21 58.431,139.77 58.593,139.14 C58.95,138.11 59.835,137.32 60.843,136.97 L60.843,136.97 Z M78.219,135.35 C79.296,134.84 80.4,135.64 80.612,136.74 C81.008,137.79 80.444,138.85 80.295,139.9 C79.422,140.7 78.469,141.82 77.151,141.54 C76.37,141.14 76.625,140.22 76.508,139.52 C76.237,138.84 75.773,138.15 75.985,137.38 C76.454,136.45 77.332,135.84 78.219,135.35 L78.219,135.35 Z M47.821,135.16 C48.588,134.68 49.28,135.53 49.339,136.27 C49.929,137.35 49.857,138.6 49.771,139.8 C49.308,140.67 48.353,141.24 47.359,141.17 C46.983,140.53 47.151,139.74 46.945,139.05 C47.008,138.29 46.151,137.81 46.372,137.05 C46.626,136.27 47.216,135.68 47.821,135.16 L47.821,135.16 Z M209.139,128.91 C209.531,128.78 209.671,128.97 209.579,129.36 C209.191,129.45 209.011,129.3 209.139,128.91 L209.139,128.91 Z M15.559,128.17 C15.933,128.16 16.311,128.15 16.686,128.2 C17.469,128.74 17.406,129.75 17.274,130.58 C16.946,131.49 16.093,132.09 15.801,133.02 C15.702,133.58 16.004,134.33 15.384,134.67 C14.276,134.83 13.371,133.94 12.777,133.11 C12.233,132.03 11.289,130.77 11.977,129.53 C12.669,128.22 14.327,128.47 15.559,128.17 L15.559,128.17 Z M34.86,127.01 C35.111,126.93 35.362,126.87 35.619,126.81 C36.431,127.61 36.744,128.82 36.802,129.92 C36.734,130.6 37.319,131.14 37.19,131.83 C36.952,132.09 36.697,132.41 36.305,132.38 C35.528,132.3 35.051,133.58 34.285,132.95 C32.584,131.99 32.793,129.7 33.298,128.1 C33.44,127.36 34.245,127.19 34.86,127.01 L34.86,127.01 Z M211.62,126.84 C211.876,126.81 212.138,126.8 212.397,126.85 C213.376,127.58 214.104,128.62 214.478,129.78 C214.769,132.64 213.732,135.4 212.71,138.02 C212.316,139.14 211.248,139.85 210.936,141.02 C210.487,142.19 209.575,143.86 208.072,143.45 C207.213,142.1 207.799,140.47 208.586,139.24 C209.438,137.17 210.56,135.13 210.723,132.86 C211.012,131.2 210.787,129.52 210.909,127.85 C211.06,127.48 211.263,127.02 211.62,126.84 L211.62,126.84 Z M45.162,123.32 C46.226,122.75 46.702,124.12 47.24,124.78 C47.921,125.55 47.081,126.36 46.922,127.15 C46.762,128.31 45.724,129.51 44.455,129.13 C43.635,128.8 43.944,127.77 43.853,127.07 C43.551,126.49 42.873,126.02 43.104,125.27 C43.417,124.32 44.352,123.8 45.162,123.32 L45.162,123.32 Z M203.98,122.63 C205.182,122.3 206.219,123.2 206.494,124.33 C206.839,125.68 207.999,126.79 207.842,128.27 C207.683,130.87 208.203,133.57 207.275,136.08 C207.015,136.97 206.605,138.52 205.42,138.29 C203.535,136.01 204.937,132.98 204.941,130.36 C204.449,128.46 204.494,126.4 203.474,124.66 C203.394,123.98 203.164,122.93 203.98,122.63 L203.98,122.63 Z M26.63,117.26 C27.18,117.16 27.492,117.74 27.811,118.09 C27.889,119.35 27.312,120.72 26.204,121.4 C25.217,122.28 24.066,122.92 22.914,123.55 C22.295,123.42 21.668,123.35 21.051,123.56 C20.197,123.32 19.312,123.42 18.44,123.39 C17.614,123.04 16.53,122.49 16.714,121.42 C16.617,120.79 17.392,120.91 17.793,120.92 C20.332,121.6 22.825,120.27 24.931,118.97 C25.649,118.57 25.963,117.64 26.63,117.26 L26.63,117.26 Z M86.837,116.52 C87.335,116.54 87.816,116.42 88.303,116.33 C88.732,116.73 89.361,117.5 88.717,117.99 C87.606,118.75 86.523,119.68 85.155,119.92 C84.081,120.05 83.024,120.3 81.972,120.54 C81.127,120.34 80.261,120.32 79.396,120.33 C78.879,119.96 78.241,119.42 78.474,118.69 C79.412,118.17 80.591,118.4 81.613,118.14 C82.367,117.91 83.092,117.5 83.897,117.48 C84.985,117.57 85.761,116.51 86.837,116.52 L86.837,116.52 Z M35.231,116.13 C35.659,116.1 36.099,116.08 36.521,116.17 C37.483,117.07 38.082,118.56 37.446,119.81 C36.813,121.86 33.618,121.2 33.03,119.48 C33.083,118.11 33.75,116.49 35.231,116.13 L35.231,116.13 Z M23.939,112.59 C24.484,112.36 25.112,112.53 25.514,112.96 C25.716,113.99 25.23,115 24.654,115.83 C23.358,117.11 21.709,118.84 19.699,118.05 C18.654,118.48 17.444,118.09 16.747,117.23 C16.416,116.34 17.344,115.9 18.095,115.95 C19.799,115.96 21.306,115.01 22.558,113.94 C22.989,113.46 23.316,112.86 23.939,112.59 L23.939,112.59 Z M17.452,110.73 C18.384,110.37 20.122,111.08 19.777,112.29 C18.568,113.38 17.027,114.58 15.291,114.19 C14.859,113.66 14.643,112.9 14.913,112.26 C15.436,111.32 16.544,111.12 17.452,110.73 L17.452,110.73 Z M30.244,110.32 C31.275,109.96 32.288,110.87 32.848,111.69 C33.568,112.55 33.064,113.83 32.185,114.38 C31.468,114.81 30.876,115.67 29.953,115.56 C29.213,114.99 28.885,114.05 28.59,113.19 C28.556,112.03 29.414,111.04 30.244,110.32 L30.244,110.32 Z M92.951,109.8 C94.179,109.24 96.18,110.15 95.829,111.67 C94.512,112.82 92.592,112.82 90.929,112.91 C90.523,113.3 90.337,113.85 89.946,114.25 C88.714,115.11 87.143,114.77 85.837,115.35 C83.909,115.25 82.001,116.16 80.085,115.58 C78.662,115.82 77.299,115.01 75.885,115.53 C74.782,115.61 73.671,115.03 72.914,114.25 C72.537,113.19 73.823,113.11 74.542,112.95 C75.784,112.86 76.946,112.09 78.187,112.5 C79.855,111.48 81.873,111.58 83.704,111.01 C85.732,111.1 87.618,110.19 89.63,110.16 C90.73,109.99 91.839,109.88 92.951,109.8 L92.951,109.8 Z M74.433,107.18 C75.499,106.73 76.682,107.06 77.782,107.2 C78.144,107.62 78.418,108.12 78.841,108.48 C80.193,108.53 81.627,108.34 82.893,108.91 C82.733,110.11 81.235,109.96 80.337,110.03 C78.891,110.33 77.4,110.26 76.002,109.82 C74.704,109.99 73.43,110.5 72.076,110.41 C70.653,110.89 69.005,110.48 67.927,109.46 C67.596,109.2 67.75,108.73 67.787,108.38 C68.551,108.1 69.352,107.94 70.135,107.74 C70.886,107.72 71.667,107.87 72.373,107.53 C73.025,107.2 73.782,107.49 74.433,107.18 L74.433,107.18 Z M80.721,100.65 C81.805,100.39 82.579,101.3 83.339,101.91 C83.725,102.54 82.981,103.05 82.548,103.42 C81.489,103.78 80.204,103.44 79.285,104.2 C78.552,104.43 77.679,104.09 76.997,104.57 C76.053,105.17 74.878,104.57 73.898,105.05 C73.236,105.4 72.427,105.04 71.803,105.47 C70.903,106.09 69.78,105.66 68.775,105.85 C67.366,106.45 65.794,106.11 64.304,106.18 C63.485,105.81 62.151,105.42 62.217,104.32 C62.778,103.53 63.887,103.63 64.718,103.33 C65.649,103.18 66.516,102.7 67.47,102.76 C68.681,102.88 69.685,101.92 70.91,102.18 C72.058,102.38 73.072,101.84 74.184,101.76 C75.125,101.08 76.316,101.25 77.376,100.88 C78.498,100.87 79.598,100.65 80.721,100.65 L80.721,100.65 Z M77.659,95.71 C78.847,95.43 80.034,95.52 81.202,95.85 C81.932,95.8 82.621,96.65 82.167,97.28 C80.734,98.68 78.53,98.2 76.854,99.06 C75.926,99.6 74.78,99.04 73.846,99.49 C72.778,100.31 71.242,99.55 70.168,100.4 C69.51,100.94 68.597,100.48 67.852,100.76 C65.935,101.4 63.958,101.87 62.001,102.37 C60.35,102.3 58.788,103.02 57.141,102.99 C56.549,103.09 55.737,103.42 55.341,102.78 C55.151,102.15 55.543,101.62 56.151,101.46 C59.157,100.32 62.297,99.59 65.352,98.6 C66.495,98.71 67.351,97.69 68.492,97.79 C69.252,97.88 69.878,97.4 70.547,97.14 C72.914,96.7 75.343,96.38 77.659,95.71 L77.659,95.71 Z M65.626,92.83 C66.053,92.79 66.491,92.78 66.92,92.84 C67.443,93.47 67.76,94.39 67.465,95.18 C66.703,96.5 65.004,96.16 63.731,96.29 C62.847,96.72 61.84,96.66 60.961,97.11 C58.345,97.21 56.141,99.1 53.518,99.2 C52.099,99.94 50.452,99.7 48.959,99.41 C48.526,99.09 47.907,98.74 48.057,98.1 C47.973,97.47 48.689,97.15 49.186,96.98 C52.585,96 55.899,94.57 59.453,94.27 C60.267,93.79 61.106,94.29 61.959,94.14 C62.879,93.01 64.396,93.31 65.626,92.83 L65.626,92.83 Z M59.509,88.6 C60.543,88.02 62.419,88.97 62.006,90.28 C61.516,90.96 60.874,91.75 59.946,91.69 C58.506,91.94 57.141,92.53 55.838,93.19 C53.862,92.94 52.174,94.14 50.295,94.47 C48.372,94.89 46.742,96.23 44.736,96.34 C43.944,96.63 42.43,96.15 42.725,95.1 C44.367,93.51 46.693,92.96 48.81,92.23 C49.343,92.03 49.916,92.08 50.47,92.01 C51.368,91.62 52.136,90.88 53.167,90.85 C54.483,90.33 55.682,89.28 57.178,89.38 C58.038,89.46 58.817,89.06 59.509,88.6 L59.509,88.6 Z M50.721,84.42 C51.797,84.09 53.382,84.82 53.031,86.12 C52.317,86.95 51.271,87.4 50.551,88.23 C49.353,89.52 47.852,90.48 46.254,91.2 C45.18,91.48 44.134,91.9 43.244,92.58 C40.858,94.26 37.839,94.54 35.305,95.92 C34.266,96.34 33.132,96.55 32.013,96.45 C31.834,95.87 32.145,95.5 32.718,95.42 C33.889,95.23 34.486,94.07 35.565,93.7 C36.392,93.31 37.383,93.22 38.066,92.56 C40.525,90.48 43.511,89.16 46.015,87.14 C46.728,86.66 47.608,86.49 48.326,86.02 C49.09,85.44 49.785,84.71 50.721,84.42 L50.721,84.42 Z M122.753,27.66 C123.51,27.52 124.212,27.92 124.699,28.47 C124.842,29.02 124.522,29.75 123.865,29.59 C122.858,29.76 121.407,28.18 122.753,27.66 L122.753,27.66 Z M123.659,24.88 C124.635,24.83 126.75,24.97 126.231,26.56 C125.4,27.39 124.129,26.67 123.391,26.03 C123.325,25.63 123.248,25.12 123.659,24.88 L123.659,24.88 Z M164.648,16.65 C165.532,16.45 164.441,17.54 164.648,16.65 L164.648,16.65 Z M33.323,186.01 C32.726,186.35 32.102,186.7 31.656,187.23 C31.076,188.76 30.773,190.36 30.306,191.92 C30.345,193.25 30.276,194.57 30.293,195.9 C30.284,196.48 30.566,197.07 31.107,197.33 C32.405,197.3 33.725,197.47 34.971,197.02 C36.192,197.19 37.421,197.28 38.636,197.48 C39.472,197.31 40.326,197.31 41.171,197.35 C42.782,197.68 44.443,197.45 46.076,197.57 C47.266,197.88 48.509,197.7 49.725,197.71 C50.015,197.73 50.581,197.41 50.308,197.07 C49.414,195.25 47.379,194.5 46.155,192.97 C44.834,191.11 42.935,189.78 41.125,188.44 C40.151,187.53 38.977,186.78 37.623,186.62 C36.199,186.42 34.765,185.56 33.323,186.01 L33.323,186.01 Z M138.816,184.92 C138.464,184.92 138.123,185.01 137.783,185.08 C134.096,185.11 130.73,186.91 127.087,187.28 C124.888,187.91 122.673,188.6 120.392,188.79 C119.648,189.3 118.845,189.74 117.923,189.77 C116.236,190.56 114.403,191.03 112.538,191.08 C112.043,191.17 112.028,191.72 111.797,192.07 C111.488,192.48 111.059,192.77 110.733,193.17 C110.691,193.63 111.004,194.03 110.963,194.5 C110.549,194.84 109.927,194.65 109.429,194.65 C108.697,194.19 108.621,192.87 109.494,192.45 C110.031,191.94 111.195,191.91 111.195,191.02 C109.949,190.99 108.837,191.71 107.591,191.66 C106.23,191.97 104.809,191.6 103.46,192.01 C101.196,192.66 98.827,192.28 96.509,192.39 C94.525,192.37 92.57,192.02 90.59,191.94 C87.6,191.12 84.478,191.52 81.418,191.42 C79.672,191.29 78.014,192.01 76.264,191.79 C74.463,192.03 72.331,192.31 71.215,193.93 C70.414,195.15 68.995,195.9 68.46,197.31 C69.217,197.74 70.259,197.55 71.106,197.4 C72.832,197.39 74.558,196.89 76.277,197.3 C77.173,197.03 78.144,197.35 79.014,196.98 C80.087,196.54 81.275,196.96 82.375,196.65 C83.951,196.7 85.583,197.14 87.157,196.79 C87.743,196.92 88.275,197.23 88.866,197.34 C90.083,197.31 91.28,196.79 92.506,197.03 C93.587,197.36 94.652,196.67 95.75,196.78 C97.897,196.99 100.14,197.19 102.24,196.6 C103.69,196.84 105.175,196.77 106.644,196.77 C107.776,196.6 108.957,196.45 110.087,196.74 C110.791,196.89 111.468,196.45 112.18,196.61 C113.371,196.89 114.603,196.77 115.815,196.79 C116.901,196.76 118.005,196.9 119.067,196.61 C120.336,197.01 121.636,196.66 122.894,196.42 C123.688,196.68 124.495,197.14 125.357,196.9 C126.621,196.56 127.917,196.96 129.189,196.94 C131.472,196.36 133.78,197.31 136.069,196.85 C137.028,197.14 137.962,196.64 138.935,196.76 C142.461,196.86 146.009,196.63 149.518,196.97 C150.836,196.95 152.147,197.54 153.452,197.19 C154.218,197.11 155.004,197.23 155.757,197.01 C157.474,197.23 159.301,196.61 161.027,197.2 C160.968,196.94 161.174,196.49 160.827,196.4 C158.065,195.2 156.955,192.09 154.524,190.46 C153.425,189.73 153.145,188.22 151.911,187.67 C150.568,187.55 149.332,186.96 148.033,186.64 C146.549,186.26 145.235,185.23 143.647,185.31 C142.02,185.38 140.435,184.92 138.816,184.92 L138.816,184.92 Z M83.394,145.56 C82.838,145.58 82.367,145.99 81.802,145.93 C78.552,145.95 75.301,145.92 72.049,145.97 C71.219,146.09 70.379,146.2 69.583,146.48 C68.568,146.64 67.514,146.33 66.516,146.65 C64.934,146.83 63.309,146.51 61.744,146.88 C60.835,147.06 59.95,146.72 59.055,146.73 C57.482,147.22 55.88,146.41 54.292,146.79 C52.539,147.3 50.748,146.02 49.016,146.7 C47.992,147.13 46.73,146.6 45.81,147.36 C45.593,148.39 46.182,149.35 46.328,150.36 C46.407,151.19 46.515,152.04 46.809,152.83 C47.829,153.07 48.213,151.84 48.779,151.23 C49.89,149.97 50.767,148.27 52.399,147.64 C52.893,148.2 53.87,148.66 53.599,149.54 C52.927,150.65 51.73,151.27 51.019,152.33 C49.234,154.52 47.638,157.1 47.516,159.99 C47.577,160.69 47.811,161.39 47.655,162.1 C47.123,162.9 46.099,163.48 46.173,164.57 C46.217,168.97 46.381,173.61 48.536,177.58 C49.132,179.16 50.379,180.33 51.342,181.68 C52.399,182.85 53.68,183.79 54.854,184.83 C55.462,185.43 56.357,185.47 57.077,185.86 C58.512,186.78 60.118,188.33 59.455,190.19 C59.034,190.8 58.313,190.16 57.739,190.14 C56.052,190.11 54.903,188.67 53.534,187.87 C52.482,186.65 51.342,185.49 50.189,184.35 C48.983,183.56 47.784,182.72 46.446,182.16 C45.137,181.78 44.192,180.66 42.821,180.44 C40.205,179.25 37.385,178.53 34.867,177.11 C34.257,176.73 33.492,176.87 32.88,177.18 C31.071,177.88 29.063,178.65 27.862,180.23 C27.817,181.81 27.098,183.28 27.012,184.87 C26.679,185.93 26.304,186.98 26.236,188.1 C25.432,189.97 25.623,192.1 24.839,193.98 C24.623,194.86 23.983,195.96 24.824,196.71 C25.76,196.86 27.062,197.37 27.809,196.59 C27.875,194.07 27.587,191.51 28.08,189.03 C28.644,187.63 28.735,186.05 29.579,184.77 C30.2,183.49 31.679,183.07 32.893,182.55 C33.975,182.03 35.219,182.21 36.31,182.6 C37.881,182.59 39.171,183.61 40.522,184.27 C43.32,186.26 46.586,187.82 48.485,190.82 C49.894,191.47 50.847,192.65 51.757,193.85 C53.058,194.71 53.966,196.03 55.275,196.87 C57.398,197.52 59.667,196.83 61.812,197.38 C62.675,197.64 63.59,197.57 64.481,197.52 C64.929,197.1 65.1,196.48 65.419,195.97 C65.959,194.83 67.179,194.24 67.712,193.09 C68.809,191.05 71.035,190.15 73.03,189.23 C74.775,188.89 76.552,188.74 78.321,188.67 C79.343,188.03 80.947,188.88 81.61,187.69 C82.002,184.77 82.167,181.78 82.923,178.9 C83.24,177.72 83.179,176.49 83.394,175.29 C83.366,173.64 84.023,172.07 84.004,170.43 C84.649,166.77 85.287,163.11 85.587,159.41 C86.078,157.6 85.815,155.7 85.923,153.85 C86.309,151.16 87.294,148.53 87.039,145.79 C85.816,145.79 84.622,145.41 83.394,145.56 L83.394,145.56 Z M144.752,138.68 C144.525,138.93 144.137,139.16 144.194,139.55 C144.275,140.63 146.097,140.76 146.483,139.82 C146.692,138.94 145.467,138.04 144.752,138.68 L144.752,138.68 Z M139.532,138.29 C139.032,138.16 139.237,138.8 139.213,139.09 C139.514,139.39 139.995,139.21 140.374,139.25 C140.538,138.71 140.106,138.15 139.532,138.29 L139.532,138.29 Z M35.592,137.56 C34.007,137.27 33.365,139.28 33.63,140.49 C34.197,142.2 36.251,142.32 37.428,143.4 C38.231,144.07 38.978,145.11 40.148,144.99 C40.797,145.1 41.73,144.48 41.291,143.77 C40.695,142.55 40.371,141.12 39.234,140.26 C38.485,138.86 36.971,138.19 35.592,137.56 L35.592,137.56 Z M91.548,130.36 C91.323,130.56 91.222,130.83 91.264,131.13 C91.362,133.72 90.572,136.23 90.313,138.78 C90.442,141.24 89.723,143.62 89.395,146.04 C88.88,149.85 88.564,153.71 87.83,157.5 C87.935,160.26 87.628,162.99 87.365,165.72 C87.101,166.73 86.575,167.71 86.675,168.78 C86.806,170.72 86.091,172.58 86.088,174.52 C86.359,176.6 85.114,178.49 85.34,180.56 C85.41,181.77 84.673,182.86 84.758,184.07 C84.815,185.23 84.767,186.39 84.415,187.5 C84.122,188.15 84.847,188.62 85.427,188.55 C86.527,188.53 87.63,188.65 88.727,188.53 C89.9,187.57 88.536,185.88 89.104,184.64 C89.241,181.61 89.902,178.63 90.316,175.64 C91.272,169.99 91.768,164.28 92.411,158.59 C92.567,156.94 92.535,155.25 93.04,153.66 C93.5,151.21 93.602,148.72 93.929,146.25 C94.682,143.39 94.698,140.42 95.26,137.51 C95.212,135.86 95.829,134.29 95.834,132.63 C95.386,131.51 94.044,131.31 93.116,130.74 C92.634,130.57 92.007,130.11 91.548,130.36 L91.548,130.36 Z M137.085,103.53 C136.138,103.5 136.22,104.75 136.695,105.28 C137.338,106.9 137.988,108.57 138.186,110.32 C138.367,111.15 139.096,111.91 138.75,112.8 C138.394,113.96 138.985,115.09 139.103,116.23 C139.38,118.9 140.171,121.44 140.662,124.06 C141.633,126.02 141.65,128.31 142.693,130.25 C143.945,131.93 143.634,134.26 144.765,136 C144.94,136.35 145.554,136.67 145.689,136.12 C145.883,134.87 145.467,133.65 145.529,132.4 C145.033,128.23 145.811,123.86 144.273,119.86 C143.044,115.94 142.126,111.93 141.857,107.82 C141.483,106.56 142.064,104.97 141.058,103.94 C140.414,103.89 139.718,104.02 139.181,103.57 C138.548,103.06 137.787,103.56 137.085,103.53 L137.085,103.53 Z M21.403,97.03 C20.895,97.34 20.4,97.67 19.923,98.02 C20.586,98.13 21.342,97.75 21.403,97.03 L21.403,97.03 Z M167.685,86.91 C166.789,87.32 165.777,87 164.835,87.1 C164.142,87.12 163.98,88.19 164.531,88.53 C165.468,89.3 166.576,89.95 167.806,90.02 C169.851,90.92 172.075,91.36 174.283,91.57 C175.218,91.79 176.052,92.28 176.96,92.57 C177.966,92.71 179.005,92.75 179.96,93.13 C181.749,93.77 183.67,94.21 185.205,95.39 C186.015,96 186.911,96.5 187.821,96.95 C189.307,97.6 190.958,97.43 192.532,97.4 C193.343,97.1 193.606,95.86 192.814,95.35 C191.523,95.38 190.298,94.81 189.003,94.95 C187.309,95.08 186.083,93.69 184.607,93.11 C182.864,91.92 181.029,90.87 179.33,89.62 C177.432,88.7 175.675,87.25 173.471,87.27 C172.99,87.61 172.683,88.37 171.997,88.24 C170.369,88.43 169.337,86.06 167.685,86.91 L167.685,86.91 Z M63.515,29.73 C63.282,30.08 63.347,30.52 63.325,30.92 C64.068,30.89 64.807,30.93 65.528,31.14 C65.419,30.34 64.137,29.38 63.515,29.73 L63.515,29.73 Z M58.953,29.57 C58.609,29.72 58.523,30.24 58.313,30.55 C59.102,30.95 60.205,29.23 58.953,29.57 L58.953,29.57 Z M128.663,21.88 C128.77,21.99 128.77,21.99 128.663,21.88 L128.663,21.88 Z M115.685,14.66 C114.941,14.63 114.365,15.22 113.904,15.74 C112.773,17.74 112.902,20.75 114.97,22.11 C115.456,22.42 116.087,23.24 116.634,22.64 C116.89,20.66 117.587,18.68 117.17,16.67 C116.963,16.11 116.878,15.52 116.815,14.93 C116.518,14.61 116.08,14.65 115.685,14.66 L115.685,14.66 Z M172.265,11.03 C171.765,11.37 171.724,12.03 171.473,12.54 C171.201,13.28 170.43,13.66 170.037,14.33 C169.412,15.34 168.844,16.41 167.899,17.16 C166.608,18.23 165.749,19.74 164.352,20.69 C162.496,22.07 160.933,23.89 158.802,24.89 C157.073,25.8 155.476,26.96 153.708,27.8 C151.011,28.83 148.574,30.4 145.876,31.42 C144.868,31.78 144.037,32.54 142.966,32.74 C140.951,33.16 139.083,34.14 137.037,34.41 C136.396,34.54 135.761,34.7 135.135,34.87 C133.329,35.51 131.293,34.62 129.581,35.65 C127.715,35.48 125.998,36.55 124.692,37.78 C124.252,37.84 123.645,37.93 123.602,37.32 C123.361,33.82 124.823,30.37 126.971,27.66 C127.331,26.98 128.237,26.48 128.121,25.64 C127.65,24.53 126.942,23.55 126.317,22.53 C125.617,22.29 124.911,22.92 124.226,22.58 C123.375,22.22 122.537,21.83 121.61,21.71 C120.441,21.54 120.011,19.76 120.908,19.08 C121.989,18.86 123.017,19.47 124.102,19.25 C124.295,18.47 124.009,17.72 123.47,17.17 C122.255,17.18 121.057,17.54 119.9,17.89 C118.926,18.1 118.672,19.26 118.749,20.11 C118.629,21.15 119.163,22.15 118.83,23.17 C118.589,25.33 119.001,27.52 118.602,29.66 C118.141,32.28 119.387,34.86 118.902,37.5 C118.657,38.47 118.911,39.47 118.74,40.44 C118.51,40.81 118.164,41.21 117.674,41.03 C116.602,39.79 116.94,38.02 116.836,36.51 C116.472,35.59 115.411,35.96 114.659,35.86 C113.091,35.4 111.497,36.17 109.907,35.79 C108.635,35.41 107.52,36.43 106.269,36.44 C104.373,36.45 102.556,37.02 100.704,37.36 C98.984,37.5 97.254,37.31 95.533,37.43 C93.906,37.8 92.218,37.41 90.586,37.74 C89.11,37.91 87.656,37.55 86.183,37.56 C84.409,36.76 82.416,36.63 80.653,35.8 C78.447,34.51 75.937,33.91 73.514,33.2 C71.719,32.2 69.542,32.35 67.768,31.32 C67.391,31.23 67,31.29 66.621,31.31 C67.702,32.44 69.22,32.94 70.591,33.61 C73.564,35.41 76.745,36.8 79.893,38.26 C80.513,38.62 81.123,39.07 81.868,39.12 C82.752,39.2 83.467,39.86 84.356,39.9 C86.351,40.25 88.392,39.99 90.406,40.11 C91.792,40.49 93.212,39.77 94.603,40.25 C96.766,39.98 98.927,39.64 101.104,39.49 C103.738,39.51 106.374,39.52 109.006,39.51 C109.832,39.6 110.837,39.72 111.306,40.51 C111.529,41.86 110.748,43.08 110.417,44.34 C110.152,45.48 109.554,46.49 109.234,47.6 C109.036,48.47 109.788,49.12 110.414,49.59 C111.785,50.77 113.11,52.03 114.63,53.01 C115.336,53.27 116.112,54.25 116.874,53.66 C118.881,51.79 120.655,49.55 123.207,48.37 C125.208,46.93 127.611,46.36 129.923,45.66 C131.03,45.49 132.624,45.49 133.031,44.2 C133.357,42.95 133.691,41.7 134.125,40.49 C134.496,39.85 135.188,39.5 135.799,39.13 C138.391,37.86 141.055,36.71 143.831,35.9 C146.443,34.88 149.051,33.84 151.78,33.15 C153.13,32.54 154.392,31.72 155.591,30.84 C158.398,28.49 161.479,26.46 164.039,23.82 C166.711,21.36 168.728,18.31 171.03,15.52 C171.467,15.09 171.74,14.54 171.984,13.98 C172.436,12.97 173.108,11.94 172.836,10.77 C172.692,10.84 172.406,10.97 172.265,11.03 L172.265,11.03 Z M174.173,6.82 C173.347,7.36 173.475,8.51 173.396,9.38 C173.793,8.39 174.745,7.95 175.553,7.36 C175.703,6.67 174.591,6.42 174.173,6.82 L174.173,6.82 Z M178.181,0.33 C179.723,0.11 181.621,1.51 181.437,3.14 C181.029,3.88 180.202,4.17 179.536,4.61 C179.375,5.63 179.809,6.61 179.734,7.62 C178.661,9.08 176.637,9.24 175.205,10.19 C175.104,12 174.761,13.8 173.717,15.33 C173.296,16.46 172.06,16.89 171.543,17.94 C170.528,19.85 169.107,21.48 167.779,23.16 C166.157,24.23 165.416,26.15 163.875,27.31 C163.167,27.87 162.695,28.71 161.83,29.06 C158.422,30.67 155.721,33.61 152.004,34.57 C149.11,35.71 146.11,36.52 143.164,37.5 C141.728,38.35 140.05,38.74 138.719,39.77 C138.001,40.28 137.025,40.44 136.463,41.16 C135.769,42.76 135.757,44.56 135.228,46.22 C134.725,47.39 134.63,48.67 134.584,49.92 C134.119,50.95 133.734,52.03 133.9,53.17 C134.062,54.49 133.47,55.73 133.5,57.02 C134.083,57.54 134.691,57.01 135.241,56.73 C136.043,56.27 136.977,56.11 137.779,55.65 C139.031,54.95 140.514,54.82 141.739,54.06 C143.239,53.33 144.884,52.94 146.403,52.25 C148.203,51.43 150.23,51.28 152.007,50.4 C156.903,48.72 161.92,47.46 166.782,45.68 C168.483,44.98 170.358,44.83 172.031,44.05 C173.996,43.22 176.332,43.33 178.144,44.49 C179.028,45.01 180.531,45.61 180.094,46.9 C178.853,48.58 176.878,49.42 175.076,50.34 C174.483,50.54 174.272,51.54 175.032,51.65 C177.081,52.12 178.822,53.4 180.858,53.9 C181.638,54.27 182.169,54.99 182.868,55.48 C183.347,55.95 184.109,56.39 183.953,57.17 C184.009,57.82 183.384,58.29 182.825,58.48 C181.5,58.85 180.196,59.3 178.874,59.67 C178.336,59.76 177.967,60.47 178.439,60.87 C179.171,61.52 180.047,62.01 180.945,62.38 C182.061,62.39 182.711,63.4 183.533,63.99 C184.755,64.91 185.439,66.3 186.271,67.53 C186.839,68.3 186.67,69.4 186.04,70.08 C185.285,70.76 184.16,70.65 183.355,71.23 C183.209,72.34 184.827,72.43 185.258,73.33 C186.046,74.83 187.195,76.43 186.754,78.22 C185.986,79.78 184.042,79.71 182.574,80.01 C181.464,79.99 180.293,79.95 179.345,80.64 C179.29,81.24 179.419,81.84 179.32,82.44 C178.874,83.47 178.166,84.36 177.401,85.17 C177.155,85.35 177.218,85.68 177.235,85.95 C179.179,87.48 181.666,88.03 183.664,89.46 C184.509,89.93 185.477,90.26 186.101,91.04 C186.648,91.74 187.43,92.21 188.221,92.59 C189.05,92.69 189.897,92.57 190.71,92.8 C192.213,92.85 193.801,92.74 195.191,93.41 C196.151,94.13 196.761,95.2 197.355,96.22 C197.976,97.59 196.862,99.12 195.493,99.4 C193.858,99.71 192.197,100.02 190.528,99.85 C189.334,99.55 188.118,99.35 186.931,99.04 C186.138,98.62 185.414,98.08 184.59,97.72 C182.695,97.01 181.129,95.59 179.139,95.12 C176.818,94.77 174.623,93.88 172.384,93.24 C170.962,93.26 169.62,92.69 168.287,92.26 C167.576,91.96 166.892,91.5 166.083,91.66 C166.279,92.39 167.121,92.85 166.93,93.68 C166.943,95.55 164.52,96.01 163.088,95.54 C162.325,95.27 160.738,94.94 160.811,96.19 C160.88,98 159.167,99.27 157.544,99.52 C156.087,99.7 154.897,98.71 153.74,98 C152.218,97.97 150.692,97.96 149.171,98.01 C149.026,99.85 151.06,100.77 151.83,102.24 C152.074,103.1 151.181,103.51 150.587,103.87 C149.245,104.12 148.092,102.76 146.754,103.24 C145.812,103.54 144.809,103.45 143.878,103.79 C143.291,104.37 143.894,105.21 143.858,105.92 C144.216,106.96 143.469,108.07 143.964,109.09 C144.394,109.8 144.021,110.66 144.364,111.39 C144.792,112.49 145.156,113.61 145.405,114.76 C145.787,115.52 146.072,116.33 146.076,117.19 C146.044,118.32 146.578,119.35 146.722,120.46 C146.844,121.2 147.428,121.71 147.779,122.35 C147.845,123.24 147.834,124.14 147.674,125.03 C148.096,126.11 147.469,127.17 147.604,128.27 C147.699,130.23 147.429,132.23 148.042,134.13 C148.366,134.89 148.118,135.72 148.239,136.51 C149.366,137.53 149.057,139.16 149.199,140.52 C150.308,140.91 151.446,141.35 152.638,141.37 C154.78,141.67 156.873,142.36 158.731,143.48 C160.228,144.01 161.776,144.44 163.331,144.76 C166.169,145.84 169.082,146.72 171.981,147.62 C174.164,147.74 176.161,148.8 178.327,149.02 C179.407,149.14 180.458,149.48 181.556,149.4 C183.647,149.87 185.777,149.43 187.875,149.3 C189.079,149.14 190.183,148.6 191.372,148.37 C193.359,147.26 194.733,145.37 196.269,143.75 C197.116,143.04 197.387,141.93 197.894,141 C199.127,138.84 199.962,136.38 199.799,133.88 C200.276,132.51 199.544,131.18 199.547,129.8 C199.05,128.56 198.102,127.56 197.649,126.3 C197.181,125.46 197.93,124.12 198.939,124.33 C200.441,124.24 200.963,126.01 201.41,127.14 C201.702,128.75 202.894,130.1 202.859,131.78 C202.913,133.24 203.573,134.74 203.032,136.17 C202.692,137.13 203.026,138.18 202.773,139.15 C202.467,140.08 201.904,140.9 201.561,141.81 C201.031,143.07 200.459,144.46 199.204,145.17 C197.435,146.32 196.539,148.46 194.585,149.36 C192.743,150.63 190.673,152.56 188.244,151.9 C186.689,152.33 185.056,152.75 183.452,152.46 C181.784,152.59 180.215,151.86 178.561,151.85 C176.812,151.49 175.042,151.21 173.293,150.85 C172.197,150.55 171.172,149.94 170.007,149.95 C168.762,149.8 167.744,148.95 166.536,148.65 C165.108,148.29 163.712,147.67 162.219,147.67 C161.788,148.16 162.158,148.89 161.779,149.38 C161.344,149.42 160.902,149.42 160.47,149.37 C159.167,148.28 158.939,146.03 157.081,145.65 C155.613,144.9 153.958,144.49 152.32,144.35 C151.125,143.79 149.787,143.61 148.474,143.64 C147.775,143.6 147.276,142.93 146.587,142.88 C144.616,143.02 142.828,141.77 140.848,141.91 C139.891,141.93 138.872,141.81 138.017,142.34 C138.251,142.9 138.671,143.38 138.854,143.95 C138.997,146.05 137.585,147.74 136.627,149.47 C136.384,149.97 135.621,149.83 135.284,149.5 C134.626,148.96 133.791,148.3 133.865,147.36 C133.9,146.52 133.11,145.9 133.131,145.08 C133.385,144.22 133.935,143.43 134.684,142.93 C135.402,142.85 136.22,142.83 136.704,142.19 C134.171,140.97 131.111,141.81 128.559,140.55 C127.658,139.99 126.56,140.29 125.561,140.21 C124.405,140.32 123.489,139.31 122.337,139.43 C121.872,139.42 121.435,139.61 120.976,139.63 C117.826,139.09 114.647,138.41 111.665,137.18 C110.749,137.14 109.83,137.17 108.962,136.82 C107.212,136.83 105.599,135.91 103.85,135.98 C103.765,137.13 104.219,138.67 103.105,139.44 C102.213,140 101.499,141.05 100.337,140.99 C99.293,141.06 98.073,140.06 98.368,138.96 C98.72,138.09 99.292,137.33 99.909,136.63 C100.39,136.02 101.279,135.88 101.636,135.15 C100.901,134.13 99.641,133.76 98.483,133.5 C97.729,133.64 98.035,134.6 97.854,135.14 C97.308,136.49 97.802,137.97 97.405,139.36 C97.397,142.85 96.353,146.23 95.853,149.67 C95.947,151.57 95.494,153.44 95.469,155.34 C96.466,155.28 97.024,154.12 98.042,154.14 C98.772,154.01 99.206,154.76 99.458,155.32 C99.63,156.76 99.366,158.19 99.208,159.61 C98.988,160.45 98.962,161.54 98.073,161.99 C96.962,162.06 95.982,161.4 95.204,160.68 C94.449,160.36 94.629,161.47 94.449,161.92 C93.863,163.65 94.41,165.52 93.882,167.26 C93.248,169.52 93.954,171.94 93.022,174.13 C93.001,175.16 92.69,176.15 92.767,177.19 C92.948,178.62 91.854,179.78 91.862,181.19 C91.894,182.93 91.356,184.62 91.442,186.37 C91.472,187.25 91.121,188.09 90.816,188.91 C91.789,189.21 92.81,189.1 93.813,189.12 C96.947,189.74 100.236,189.67 103.369,189.04 C106.532,188.74 109.628,187.93 112.783,187.55 C115.126,186.47 117.727,186.19 120.208,185.58 C123.07,185.16 125.819,184.18 128.612,183.45 C130.406,183.52 132.073,182.79 133.761,182.28 C136.246,182.34 138.677,181.8 141.165,181.86 C138.675,180.03 135.108,181.12 132.597,179.28 C132.317,178.74 132.517,177.92 133.269,178.04 C135.279,178.13 137.358,177.79 139.304,178.39 C140.078,178.32 140.662,178.94 141.408,178.99 C142.293,178.98 143.026,179.55 143.872,179.75 C147.261,180.56 150.137,182.62 153.239,184.11 C153.731,184.78 154.283,185.34 155.176,185.39 C155.745,186.25 156.376,187.09 156.722,188.07 C157.161,189.03 157.985,189.73 158.626,190.56 C159.323,191.46 160.418,191.95 161.038,192.92 C161.789,194.1 163.214,194.59 164.531,194.78 C165.615,194.94 166.217,195.95 166.836,196.74 C168.104,196.74 169.397,196.87 170.65,196.61 C171.599,196.44 172.503,196.91 173.456,196.79 C174.313,196.86 175.158,196.44 176.006,196.68 C176.836,196.96 177.654,196.48 178.494,196.58 C180.275,196.5 182.083,196.73 183.843,196.43 C186.876,196.88 189.956,196.32 193.016,196.36 C193.936,195.29 193.279,193.71 192.516,192.76 C190.469,192.55 189.518,195.22 187.449,194.66 C186.6,193.61 187.108,192.13 188.039,191.32 C189.433,189.62 191.765,189.55 193.763,189.23 C195.075,188.95 194.869,186.52 193.4,186.82 C191.364,187.22 189.915,188.88 188.273,190.03 C187.525,190.54 186.908,191.21 186.193,191.76 C184.809,192.51 183.726,193.88 182.095,194.1 C181.238,193.67 180.863,192.77 180.558,191.93 C179.726,190.34 179.536,188.49 179.867,186.74 C180.009,185.56 179.745,184.34 180.107,183.18 C180.212,181.82 179.953,180.44 180.226,179.09 C180.441,177.39 179.372,175.82 179.566,174.12 C180.067,172.35 179.225,170.55 179.356,168.76 C179.286,166.32 177.948,164.17 177.438,161.83 C177.1,159.62 174.751,158.06 175.164,155.69 C176.108,155.34 176.927,156.79 177.749,156 C177.996,155.81 178.267,155.58 178.606,155.7 C181.435,156.61 184.45,157.4 186.775,159.36 C188.525,160.38 190.241,161.46 191.87,162.66 C192.925,163.39 193.524,164.61 194.652,165.25 C195.433,165.77 196.569,166.37 196.342,167.5 C195.804,168.61 194.275,168.52 193.487,167.74 C191.668,166.76 190.391,165.11 188.827,163.8 C187.844,162.51 186.148,162.21 185.028,161.1 C184.055,160.25 182.854,159.77 181.68,159.28 C181.253,159.03 180.748,159.11 180.285,159.16 C180.848,160.5 180.741,162.02 181.446,163.31 C181.739,164.34 181.981,165.44 181.71,166.5 C181.588,166.94 181.903,167.32 182.048,167.71 C182.743,169.05 182.162,170.63 182.719,172.02 C182.822,173.2 183.692,174.36 183.138,175.54 C182.778,176.7 182.949,177.96 183.258,179.11 C183.701,180.92 182.99,182.75 183.176,184.57 C183.633,185.83 182.643,187.25 183.63,188.4 C184.886,187.87 186.127,187.27 187.289,186.56 C188.919,185.12 190.925,184.24 192.643,182.92 C193.483,182.46 194.446,182.27 195.371,182.06 C197.097,181.76 199.257,183.32 198.782,185.2 C198.462,186.78 198.399,188.4 198.441,190.01 C197.703,191.78 197.022,193.66 197.137,195.61 C197.968,196.06 199.125,195.68 200.087,195.81 C203.066,195.48 206.059,195.44 209.065,195.4 C210.865,194.98 212.712,195.03 214.551,195.05 C214.763,195.04 214.935,195.12 215.067,195.29 C215.217,199.46 214.891,203.61 214.855,207.77 C214.484,209.03 215.1,210.79 213.889,211.67 C211.79,211.42 209.655,211.53 207.535,211.5 C205.692,211.87 203.795,211.59 201.925,211.68 C201.296,211.6 200.692,212.04 200.076,211.77 C199.243,211.45 198.402,212.02 197.578,211.76 C194.119,211.88 190.561,211.98 187.103,211.73 C185.334,211.99 183.524,211.82 181.737,211.85 C180.032,211.42 178.298,212.19 176.586,211.74 C175.431,211.44 174.287,212.03 173.149,211.71 C172.075,211.98 170.973,211.84 169.897,211.69 C162.826,211.69 155.749,211.69 148.677,211.67 C147.46,211.34 146.23,211.81 144.983,211.68 C143.833,211.88 142.88,210.96 141.733,211.1 C139.977,211.23 138.123,210.77 136.458,211.49 C136.08,211.46 135.714,211.22 135.343,211.39 C134.305,211.74 133.273,211.18 132.222,211.29 C130.338,211.13 128.491,211.61 126.633,211.28 C124.968,210.9 123.246,211.27 121.571,211.03 C120.806,210.79 120.025,211 119.26,211.1 C113.845,211.13 108.428,211.1 103.013,211.12 C102.28,211.1 101.575,211.35 100.841,211.31 C86.342,211.31 71.84,211.28 57.34,211.32 C56.081,211.55 54.781,211.54 53.523,211.31 C50.721,211.33 47.916,211.26 45.11,211.31 C43.955,211.39 42.818,210.9 41.68,211.27 C38.111,211.25 34.506,211.47 30.966,211.12 C30.018,211.45 29.056,211.17 28.102,211.12 C26.787,211.42 25.43,211.29 24.094,211.29 C21.095,211.31 18.098,211.29 15.102,211.29 C13.85,210.97 12.562,211.55 11.289,211.17 C8.682,211.05 6.065,211.16 3.457,211.07 C1.996,210.97 1.538,209.37 1.465,208.15 C1.451,205.35 1.463,202.54 1.461,199.73 C1.529,199.13 1.527,198.34 2.155,198.05 C3.405,197.5 4.771,197.25 6.134,197.34 C7.389,197.13 8.695,197.05 9.947,197.33 C12.291,197.04 14.687,197.26 17.016,196.8 C18.188,196.8 19.33,196.55 20.502,196.56 C21.996,195.45 21.906,193.47 22.279,191.84 C22.473,189.67 23.553,187.72 23.968,185.61 C23.985,184.24 24.627,183.01 24.996,181.72 C25.491,180.08 26.309,178.54 27.352,177.19 C28.975,175.98 30.788,174.99 32.685,174.27 C34.459,174.08 36.222,174.82 37.612,175.89 C39.072,176.81 40.897,176.77 42.41,177.59 C43.838,177.75 44.936,179.08 46.425,178.81 C45.659,176.91 44.844,175.02 44.21,173.06 C42.976,168.97 43.445,164.61 44.546,160.55 C44.732,159.11 45.08,157.62 44.655,156.18 C44.678,154.38 44.411,152.56 43.699,150.89 C43.254,149.61 43.34,147.96 42.12,147.1 C41.5,147.03 40.796,147.15 40.412,147.69 C40.385,148.24 40.663,148.74 40.649,149.29 C40.792,150.83 39.47,151.89 38.887,153.18 C38.65,153.82 37.896,153.9 37.358,154.17 C36.794,154.37 36.285,154.82 35.657,154.75 C34.54,154.48 34.363,152.61 33.064,152.8 C32.198,152.69 32.373,153.87 32.396,154.43 C32.685,155.39 32.61,156.39 32.623,157.37 C33.123,158.22 34.203,158.84 34.137,159.93 C34.197,160.46 33.645,160.76 33.268,161.01 C31.3,161.17 29.296,160.83 27.344,161.22 C25.67,161.22 23.894,161.44 22.373,160.58 C21.14,159.97 20.751,158.56 20.15,157.44 C19.735,156.6 18.894,156 18.726,155.04 C18.444,153.7 17.544,152.63 17.018,151.4 C14.178,145 11.071,138.72 7.743,132.57 C6.629,130.53 5.596,128.44 4.602,126.35 C4.123,125.68 3.407,125.25 2.781,124.74 C1.764,123.8 0.904,122.67 0.335,121.4 C0.249,118.4 0.319,115.4 0.324,112.4 C0.321,111.21 0.873,110.13 1.045,108.97 C0.646,107.24 0.219,105.39 0.587,103.64 C1.993,102.33 3.784,103.86 5.104,104.56 C5.49,103.58 5.237,102.23 6.274,101.62 C7.655,101.22 8.265,103.2 9.651,102.75 C10.307,102.19 10.63,101.32 11.314,100.78 C13.207,99.37 14.922,97.73 16.89,96.42 C19.43,94.36 20.875,91.21 23.695,89.46 C24.893,88.58 26.355,87.58 27.9,88.15 C28.392,88.58 29.184,89.1 28.903,89.86 C28.34,90.97 27.024,91.31 26.129,92.08 C24.37,93.11 23.2,94.79 21.895,96.29 C21.92,96.5 21.687,97.18 22.158,96.83 C22.927,96.45 23.599,95.89 24.367,95.5 C26.955,93.68 29.867,92.3 32.212,90.15 C32.817,89.37 33.813,89.1 34.552,88.48 C35.753,87.5 37.444,87.48 38.594,86.4 C39.62,85.45 42.105,85.83 42.135,87.4 C41.181,88.81 39.492,89.38 38.222,90.43 C35.619,92.12 32.884,93.62 30.024,94.84 C27.142,96.4 24.705,98.66 21.793,100.18 C20.932,100.73 19.502,101.36 18.82,100.24 C18.872,99.56 19.298,99 19.518,98.38 C18.207,99.18 17.108,100.26 15.815,101.08 C14.246,102.33 13.146,104.06 11.614,105.35 C11.26,107.7 12.314,109.97 12.138,112.31 C11.946,112.79 11.355,113 10.857,112.87 C10.346,112.51 9.969,112 9.573,111.53 C8.695,111.69 9.156,112.85 8.501,113.26 C7.957,113.31 7.359,113.34 6.898,112.99 C6.311,112.46 6.154,111.65 5.788,110.98 C4.99,110.83 4.534,111.73 4.368,112.38 C4.187,113.34 3.162,113.76 2.797,114.63 C2.11,115.88 2.383,117.38 2.754,118.68 C2.759,119.69 3.141,121.24 4.427,121.13 C6.541,121.84 8.758,122.24 10.976,122.48 C12.665,123.02 14.52,122.78 16.133,123.63 C18.234,124.89 20.723,125.76 23.204,125.47 C24.427,124.98 26.053,124.45 27.19,125.39 C27.562,126.33 26.385,126.81 25.813,127.32 C24.866,128.2 23.595,128.51 22.402,128.91 C20.845,129.22 19.4,128.46 17.905,128.17 C16.892,128 16.311,126.98 15.287,126.82 C14.274,126.7 13.493,125.58 12.429,125.99 C11.316,126.31 9.978,125.72 9.044,126.6 C8.511,127.02 8.619,127.82 8.922,128.35 C10.791,132.48 12.522,136.74 15.146,140.47 C15.212,141.92 16.06,143.14 16.487,144.49 C17.901,146.86 18.749,149.52 20.152,151.9 C21.006,153.6 21.453,155.56 22.758,157 C24.035,157.05 25.292,157.32 26.578,157.2 C28.023,157.13 29.844,157.99 30.988,156.74 C31.379,155.42 30.605,154.08 30.672,152.73 C30.599,151.64 31.434,150.72 32.353,150.25 C33.733,149.62 35.193,151.12 36.494,150.24 C37.33,149.49 38.203,148.5 38.135,147.31 C37.685,146.73 36.983,146.62 36.326,146.89 C34.747,146.55 33.1,146.91 31.539,146.43 C30.643,146.28 29.196,146.02 29.339,144.82 C29.645,144.37 30.257,144.16 30.778,144.27 C31.629,144.5 32.517,144.43 33.385,144.39 C32.864,142.49 31.235,140.67 31.822,138.59 C31.927,137.24 32.489,135.72 33.776,135.08 C35.055,134.84 36.287,135.41 37.392,135.99 C38.871,137.17 40.57,138.16 41.665,139.76 C42.269,140.67 43.05,141.46 43.566,142.43 C43.968,143.22 44.01,144.33 44.893,144.78 C46.686,144.8 48.481,144.79 50.275,144.77 C52.036,144.4 53.842,144.7 55.626,144.62 C56.416,144.55 57.124,145.12 57.915,144.96 C58.917,144.72 59.971,144.76 60.976,144.96 C64.374,144.32 67.873,144.67 71.286,144.05 C73.663,144.15 76.007,143.67 78.379,143.84 C79.755,143.18 81.298,143.58 82.765,143.44 C84.252,143.15 85.869,143.07 87.218,143.87 C88.316,142.8 87.916,141.09 88.314,139.74 C88.528,136.1 88.704,132.42 89.344,128.84 C88.49,128.3 87.761,127.39 86.764,127.21 C85.512,127.62 84.494,128.56 83.446,129.34 C82.584,130.03 81.496,130.33 80.512,130.8 C78.968,130.89 77.838,132.08 76.517,132.74 C75.223,133.54 73.739,133.99 72.233,134.16 C69.442,135.2 66.426,135.76 63.461,135.3 C62.694,135.7 62.108,134.94 61.341,135.02 C59.95,134.6 58.525,134.29 57.128,133.89 C56.31,134.56 55.211,135.77 54.097,134.96 C52.775,134.18 53.176,132.47 53.605,131.28 C52.36,129.56 50.305,128.47 49.346,126.51 C48.692,125.18 47.616,124 47.469,122.46 C47.222,121.19 46.289,120.22 45.563,119.2 C44.896,119.06 44.264,119.3 43.664,119.56 C42.059,119.82 40.138,118.33 40.413,116.61 C40.295,115.53 41.61,114.91 41.571,113.9 C40.502,112.46 38.969,111.5 37.73,110.23 C36.049,109.37 34.354,108.44 32.517,107.94 C31.08,108.03 29.669,107.81 28.296,107.39 C27.043,107.34 25.925,108.23 24.636,108.12 C22.482,108.49 20.353,109.07 18.302,109.82 C17.389,109.87 16.292,109.9 15.623,109.17 C15.34,108.3 15.68,107.32 16.548,106.95 C19.686,105.03 23.4,104.28 27.037,104.3 C28.358,104.69 29.708,105.04 31.095,105.05 C32.149,105.01 32.974,105.83 33.985,105.98 C35.369,106.06 36.555,106.87 37.65,107.64 C40.094,109.58 42.361,111.74 44.816,113.66 C45.88,114.72 46.523,116.13 47.609,117.17 C48.419,117.93 48.827,118.98 49.205,119.99 C49.733,121.2 50.735,122.26 50.77,123.63 C51.387,125.68 52.895,127.28 54.5,128.63 C54.962,128.98 55.565,129.05 56.035,129.38 C57.895,131.84 61.256,132.01 64.049,132.51 C65.753,132.84 67.384,132.14 69.073,132.17 C70.781,131.84 72.421,131.24 74.133,130.93 C75.423,130.65 76.278,129.49 77.565,129.2 C79.712,128.18 81.659,126.79 83.697,125.57 C84.85,124.66 86.28,124.15 87.346,123.12 C88.146,122.36 89.181,121.92 89.996,121.18 C90.937,120.44 91.942,119.42 93.241,119.57 C94.125,119.52 95.116,120.48 94.837,121.38 C93.687,123.55 90.758,123.48 89.163,125.11 C88.986,126.22 90.652,126.09 91.318,126.61 C92.943,127.88 94.96,128.43 96.766,129.36 C97.61,129.94 98.537,130.47 99.603,130.31 C100.568,131.28 102.132,131.17 102.934,132.37 C104.029,132.23 104.979,132.89 106.075,132.78 C107.643,133.16 109.032,134.1 110.615,134.45 C112.622,134.93 114.498,135.95 116.588,136.06 C117.559,136.14 118.464,136.62 119.446,136.59 C122.115,136.64 124.609,137.91 127.286,137.74 C128.786,137.89 130.158,138.75 131.687,138.7 C133.215,138.76 134.627,139.6 136.171,139.44 C136.834,138.5 136.749,137.18 137.706,136.41 C138.587,135.2 140.113,136.1 141.271,136.21 C142.217,135.35 141.226,134.13 140.887,133.21 C140.16,131.96 140.157,130.48 139.524,129.21 C138.888,127.5 138.54,125.7 138.302,123.91 C138.123,122.06 137.434,120.32 136.982,118.54 C136.655,116.25 136.052,113.98 136.152,111.65 C136.061,110.38 135.657,109.14 135.16,107.98 C134.94,107.11 134.836,106.14 134.289,105.41 C132.744,104.49 131.084,103.75 129.663,102.63 C128.83,102.28 128.109,101.72 127.572,101 C127.558,100.77 127.462,100.39 127.758,100.3 C128.57,100.26 129.388,100.25 130.2,100.3 C130.915,100.84 131.515,101.84 132.56,101.62 C132.23,99.83 131.376,98.16 130.49,96.58 C129.929,94.85 129.069,93.22 128.77,91.42 C128.607,90.37 127.976,89.39 128.158,88.29 C128.276,87.86 128.702,87.78 129.096,87.86 C129.913,88.56 129.984,89.73 130.523,90.62 C131.487,92.48 131.468,94.72 132.732,96.44 C133.512,97.65 133.615,99.14 134.351,100.37 C134.739,101.24 134.81,102.83 136.07,102.77 C137.004,102.94 137.337,101.9 137.761,101.29 C138.412,100.35 139.857,100.66 140.562,99.86 C140.562,98.63 139.921,97.55 139.691,96.36 C139.191,93.82 138.556,91.31 138.146,88.74 C137.831,87.49 137.311,86.03 137.943,84.8 C138.354,84.77 138.864,84.68 139.109,85.11 C139.977,85.98 140.049,87.22 140.278,88.35 C140.757,91.76 141.595,95.06 142.468,98.4 C142.615,99.06 142.77,99.77 143.261,100.27 C144.207,100.24 145.906,100.25 145.786,98.9 C146.928,98.7 147.25,97.64 147.502,96.66 C148.136,95.46 149.653,95.69 150.788,95.7 C153.148,95.96 155.453,96.76 157.855,96.42 C158.667,95.83 158.85,94.81 159.299,93.98 C159.94,93.15 161.09,93.12 162.038,92.95 C162.947,92.47 162.4,91.44 162.106,90.75 C161.828,90.32 162.195,89.58 161.603,89.39 C160.222,88.8 158.782,88.35 157.384,87.82 C156.485,87.23 155.305,87.23 154.515,86.46 C154.255,85.37 155.638,85.51 156.327,85.55 C157.296,85.37 157.871,86.47 158.823,86.35 C159.821,86.46 160.594,87.53 161.65,87.25 C162.298,86.15 162.974,84.79 164.334,84.47 C164.845,84.36 165.841,84.42 165.609,83.64 C163.566,82.94 162.171,81.2 160.398,80.06 C158.061,78.62 156.054,76.73 153.766,75.23 C152.921,74.76 152.015,74.35 151.368,73.6 C149.565,72 147.549,70.63 145.405,69.53 C143.708,69.18 142.161,68.37 140.516,67.85 C140.022,67.8 140.173,67.25 140.19,66.9 C141.381,66.11 142.825,66.55 144.129,66.68 C146.383,67.26 148.38,68.49 150.397,69.61 C151.136,70.05 151.664,70.78 152.439,71.18 C153.056,71.5 153.67,71.84 154.129,72.37 C155.653,74.12 157.958,74.85 159.6,76.47 C161.057,77.39 162.333,78.56 163.674,79.64 C165.083,81.06 166.764,82.32 168.731,82.8 C169.713,83.06 170.545,83.84 171.616,83.65 C172.34,83.79 172.778,83.12 173.344,82.8 C174.123,82.23 175.335,82.57 175.938,81.7 C175.813,81.23 175.555,80.78 175.54,80.28 C175.826,79.8 176.308,79.49 176.641,79.05 C177.041,78.13 177.119,76.99 177.935,76.31 C178.796,75.82 179.799,75.61 180.788,75.58 C181.183,75.44 181.846,75.3 181.641,74.73 C180.933,73.54 179.786,72.69 178.806,71.72 C178.495,70.81 179.445,70.22 179.62,69.4 C179.809,68.92 179.799,68.27 180.344,68.04 C180.881,67.63 181.865,67.28 181.639,66.45 C180.397,64.86 178.468,64.17 176.979,62.88 C176.097,62.31 174.474,61.46 175.421,60.22 C176.202,58.33 178.238,57.69 179.935,56.89 C179.981,56.47 179.985,55.96 179.533,55.78 C178.065,55.19 176.515,54.8 175.103,54.07 C173.773,53.91 172.429,54.14 171.097,54.03 C170.189,53.79 169.515,52.77 169.877,51.84 C170.298,50.92 170.553,49.78 171.489,49.23 C172.735,48.52 173.82,47.57 174.967,46.72 C175.01,45.79 173.871,45.96 173.255,46.01 C171.782,46.45 170.354,47.06 168.931,47.65 C166.342,48.09 163.928,49.2 161.592,50.38 C160.41,50.67 159.261,51.22 158.02,51.17 C156.476,51.21 155.128,52.08 153.637,52.38 C150.87,53.25 148.203,54.39 145.435,55.26 C142.651,56.53 139.659,57.33 137.017,58.9 C135.694,59.64 134.067,59.91 132.917,60.91 C132.418,62.96 131.995,65.08 131.957,67.21 C131.968,68.15 130.462,67.98 130.275,67.2 C129.866,65.79 129.459,64.26 129.849,62.8 C130.079,61.5 130.179,60.17 130.576,58.91 C130.601,56.39 131.528,53.97 131.608,51.45 C131.78,50.34 132.146,49.25 131.958,48.12 C130.512,48.06 128.948,48.19 127.718,49.02 C126.823,49.53 125.713,49.55 124.895,50.22 C123.493,51.33 121.701,51.92 120.503,53.28 C119.465,54.4 119.036,55.97 117.899,57.01 C116.815,57.44 115.885,56.53 114.954,56.1 C113.643,55.43 112.815,54.16 111.579,53.39 C111.501,53.47 111.347,53.63 111.272,53.71 C112.263,55.21 113.272,56.71 114.152,58.28 C115.241,59.6 116.418,60.85 117.636,62.05 C118.264,62.53 118.094,63.53 118.806,63.93 C119.408,64.33 119.924,64.86 120.36,65.44 C121.71,67.43 123.218,69.32 124.85,71.09 C125.631,72.06 126.785,73.09 126.614,74.47 C125.74,74.47 124.702,74.7 124.019,74.02 C123.097,73.14 122.184,72.22 121.618,71.07 C121.185,70.08 120.124,69.57 119.687,68.59 C119.343,67.83 118.094,67.76 118.21,66.76 C118.256,66.16 117.409,66.46 117.164,66.75 C116.456,67.48 115.41,66.51 114.659,67.1 C113.876,67.42 113.351,68.1 112.853,68.75 C112.258,69.68 110.845,69.4 110.315,70.41 C109.098,72.41 107.573,74.3 106.962,76.6 C106.282,78.69 105.099,80.61 104.751,82.8 C103.859,85.77 103.781,88.91 104.122,91.96 C104.557,93.43 104.582,95.15 105.846,96.21 C106.398,96.16 106.798,96.47 107.166,96.84 C108.067,96.93 109.138,96.22 109.944,96.88 C111.071,98.12 110.309,100 111.232,101.32 C111.793,102.44 112.469,104.05 114.022,103.73 C114.732,102.36 114.398,100.39 115.83,99.44 C116.66,99.01 117.382,98.13 118.405,98.37 C118.974,98.73 119.004,99.38 119.029,99.99 C119.476,101.32 120.387,102.45 121.521,103.27 C122.4,103.94 123.31,105 124.516,104.87 C125.141,104.26 125.188,102.9 126.255,102.88 C126.279,103.53 126.171,104.19 126.245,104.84 C126.442,105.72 126.96,106.54 126.785,107.47 C126.478,107.95 126.015,108.5 125.378,108.27 C123.781,107.63 122.452,106.52 120.908,105.79 C119.757,104.83 118.775,103.7 117.911,102.48 C117.705,102.09 117.25,102.17 116.887,102.19 C116.191,102.81 116.595,103.78 116.388,104.58 C116.172,105.57 116.572,106.7 115.968,107.59 C115.622,108.28 114.659,108.49 114.027,108.08 C112.205,107.54 111.128,105.88 109.973,104.5 C109.247,103.76 108.77,102.84 108.156,102.02 C107.429,101.77 107.078,102.6 106.461,102.77 C105.519,102.55 104.69,101.89 104.283,101.01 C103.151,98.84 102.473,96.47 101.797,94.13 C101.458,93.33 101.366,92.45 101.404,91.58 C101.47,90.73 101.004,89.95 101.025,89.1 C101.166,87.69 101.382,86.28 101.407,84.86 C101.719,83.21 102.466,81.62 102.361,79.91 C103.198,77.25 104.778,74.88 105.651,72.22 C106.837,70.91 107.802,69.42 108.921,68.05 C110.544,66.04 112.733,64.5 115.15,63.6 C115.363,62.01 113.237,61.78 112.586,60.61 C111.748,58.91 110.409,57.53 109.468,55.9 C109.046,55.18 108.121,54.8 107.996,53.91 C107.781,52.82 107.182,51.83 107.086,50.71 C106.397,48.17 107.475,45.66 108.452,43.35 C108.653,42.66 109.136,42.01 109.039,41.25 C108.514,40.72 107.73,41.28 107.094,41.23 C105.288,41.26 103.473,40.78 101.675,41.21 C99.623,40.62 97.614,41.7 95.564,41.69 C94.136,41.7 92.792,42.32 91.358,42.2 C89.587,42.08 87.831,42.87 86.074,42.39 C82.062,41.65 78.461,39.65 74.765,38.05 C72.662,36.7 70.408,35.61 68.157,34.54 C66.921,33.77 65.437,33.55 64.015,33.4 C62.49,33.9 60.734,34.88 59.174,33.96 C58.246,33.53 58.139,32.41 57.546,31.68 C56.754,31.6 55.895,32.17 55.17,31.65 C54.451,31.12 53.569,30.3 54.152,29.34 C54.756,27.6 56.641,26.98 58.177,26.31 C59.642,25.73 61.026,24.58 62.693,24.83 C64.315,25.7 65.689,26.99 66.797,28.44 C67.185,28.98 67.827,29.18 68.441,29.32 C72.003,30.24 75.288,31.92 78.774,33.06 C80.479,33.75 82.252,34.24 83.931,35 C86.114,35.95 88.512,35.17 90.774,35.67 C91.567,35.7 92.385,35.76 93.143,35.47 C94.437,34.95 95.787,35.83 97.08,35.33 C98.171,35.32 99.245,35.04 100.338,35.12 C101.168,35.21 101.826,34.52 102.647,34.54 C103.624,34.61 104.52,34.09 105.496,34.17 C106.628,34.26 107.608,33.45 108.743,33.59 C110.466,33.55 112.205,33.67 113.908,33.4 C114.757,33.57 115.58,33.98 116.482,33.77 C117.086,33.13 116.822,32.19 116.692,31.41 C116.588,29.52 116.72,27.62 116.663,25.73 C116.296,25.23 115.626,25.48 115.155,25.19 C114.002,24.54 112.878,23.73 112.212,22.55 C111.653,21.59 110.969,20.53 111.196,19.37 C111.422,18.52 111.228,17.64 111.342,16.78 C111.997,15.35 112.997,14.12 113.893,12.84 C114.188,12.43 114.678,12.21 115.173,12.18 C116.626,12.14 116.25,9.91 117.683,9.72 C119.589,9.52 121.542,8.39 123.438,9.24 C124.273,9.5 124.596,10.38 124.968,11.08 C125.911,10.87 126.644,9.99 127.665,10.07 C128.987,9.85 130.035,10.93 131.372,10.67 C132.236,11.52 133.454,11.52 134.543,11.88 C135.352,12.13 136.231,11.84 137.045,12.05 C138.031,12.63 139.159,13.14 139.789,14.14 C139.954,14.93 139.183,15.38 138.799,15.96 C137.775,17.08 137.595,18.73 137.88,20.15 C137.284,21.25 136.063,21.83 135.117,22.6 C133.9,23.69 132.344,24.38 131.352,25.71 C130.314,26.47 129.526,27.47 128.829,28.54 C127.48,29.93 126.682,31.71 125.884,33.44 C125.782,33.75 125.828,34.08 125.849,34.41 C126.841,34.17 127.791,33.74 128.827,33.74 C130.34,33.05 132.05,33.42 133.577,32.84 C134.777,32.81 136.006,32.95 137.145,32.48 C138.995,32.12 140.655,31.02 142.583,31.07 C144.41,30.13 146.419,29.62 148.236,28.65 C150.338,27.62 152.556,26.85 154.519,25.56 C156.859,23.73 159.567,22.4 161.791,20.41 C163.349,19.45 164.431,17.95 165.873,16.85 C167.287,14.94 168.8,13.05 169.893,10.94 C170.827,8.85 171.025,6.57 171.789,4.43 C172.095,3.5 172.769,2.65 173.729,2.35 C175.248,1.76 176.473,0.35 178.181,0.33 L178.181,0.33 Z" id="Fill-198" fill="#417505"></path>
            <path d="M23.708,237.316 L23.708,229.792 C24.116002,229.72 24.7099961,229.636 25.49,229.54 C26.2700039,229.444 27.0859957,229.354 27.938,229.27 C28.7900043,229.186 29.6059961,229.114 30.386,229.054 C31.1660039,228.994 31.759998,228.964 32.168,228.964 C32.4080012,228.964 32.6119992,228.856001 32.78,228.64 C32.9480008,228.423999 33.032,228.124002 33.032,227.74 C33.032,227.307998 32.8040023,227.092 32.348,227.092 C31.7719971,227.092 30.9980049,227.157999 30.026,227.29 C29.0539951,227.422001 27.9440062,227.488 26.696,227.488 L23.852,227.488 C23.852,227.175998 23.8460001,226.870002 23.834,226.57 C23.8219999,226.269998 23.816,225.964002 23.816,225.652 C23.816,224.715995 23.8219999,223.786005 23.834,222.862 C23.8460001,221.937995 23.8879996,221.128003 23.96,220.432 C24.0080002,220.023998 24.0619997,219.772 24.122,219.676 C24.1820003,219.58 24.2719994,219.52 24.392,219.496 C24.800002,219.424 25.3579965,219.352 26.066,219.28 C26.7740035,219.208 27.5359959,219.13 28.352,219.046 C29.1680041,218.962 29.971996,218.878 30.764,218.794 C31.556004,218.71 32.2279972,218.62 32.78,218.524 C32.9000006,218.5 33.0139995,218.434001 33.122,218.326 C33.2300005,218.217999 33.3259996,218.098001 33.41,217.966 C33.4940004,217.833999 33.5659997,217.696001 33.626,217.552 C33.6860003,217.407999 33.716,217.3 33.716,217.228 C33.716,217.083999 33.6680005,216.988 33.572,216.94 C33.4759995,216.892 33.3920004,216.868 33.32,216.868 C33.0559987,216.868 32.6060032,216.886 31.97,216.922 C31.3339968,216.958 30.614004,216.994 29.81,217.03 C29.005996,217.066 28.1600044,217.102 27.272,217.138 C26.3839956,217.174 25.5560038,217.192 24.788,217.192 C24.0919965,217.192 23.5580019,217.162 23.186,217.102 C22.8139981,217.042 22.4720016,217.012 22.16,217.012 C21.9919992,217.012 21.7880012,217.089999 21.548,217.246 C21.3079988,217.402001 21.0740011,217.587999 20.846,217.804 C20.6179989,218.020001 20.4260008,218.241999 20.27,218.47 C20.1139992,218.698001 20.036,218.871999 20.036,218.992 C20.036,219.256001 20.131999,219.591998 20.324,220 C20.516001,220.408002 20.7559986,220.815998 21.044,221.224 C21.0680001,221.584002 21.1039998,222.033997 21.152,222.574 C21.2000002,223.114003 21.2419998,223.641997 21.278,224.158 C21.3140002,224.674003 21.3499998,225.141998 21.386,225.562 C21.4220002,225.982002 21.44,226.263999 21.44,226.408 C21.44,226.816002 21.3860005,227.187998 21.278,227.524 C21.1699995,227.860002 21.116,228.219998 21.116,228.604 C21.116,228.844001 21.1399998,229.053999 21.188,229.234 C21.2360002,229.414001 21.2959996,229.599999 21.368,229.792 C21.4400004,229.984001 21.4999998,230.199999 21.548,230.44 C21.5960002,230.680001 21.62,231.003998 21.62,231.412 C21.62,233.092008 21.6080001,234.441995 21.584,235.462 C21.5599999,236.482005 21.5360001,237.285997 21.512,237.874 C21.4879999,238.462003 21.4640001,238.905999 21.44,239.206 C21.4159999,239.506001 21.404,239.775999 21.404,240.016 C21.404,240.136001 21.4579995,240.249999 21.566,240.358 C21.6740005,240.466001 21.7999993,240.568 21.944,240.664 C22.0880007,240.76 22.2439992,240.838 22.412,240.898 C22.5800008,240.958 22.7239994,240.988 22.844,240.988 C23.0120008,240.988 23.1499995,240.832002 23.258,240.52 C23.3660005,240.207998 23.4559996,239.848002 23.528,239.44 C23.6000004,239.031998 23.6479999,238.624002 23.672,238.216 C23.6960001,237.807998 23.708,237.508001 23.708,237.316 Z M43.148,226.156 C43.2200004,226.348001 43.4359982,226.444 43.796,226.444 C43.8680004,226.444 44.1499975,226.324001 44.642,226.084 C45.1340025,225.843999 45.6619972,225.502002 46.226,225.058 C46.7900028,224.613998 47.2939978,224.062003 47.738,223.402 C48.1820022,222.741997 48.404,221.992004 48.404,221.152 C48.404,219.951994 48.1640024,219.106002 47.684,218.614 C47.2039976,218.121998 46.6280034,217.876 45.956,217.876 C45.547998,217.876 45.1160023,217.971999 44.66,218.164 C44.2039977,218.356001 43.8440013,218.643998 43.58,219.028 C43.5079996,219.244001 43.4480002,219.555998 43.4,219.964 C43.3519998,220.372002 43.3100002,220.839997 43.274,221.368 C43.2379998,221.896003 43.2080001,222.441997 43.184,223.006 C43.1599999,223.570003 43.148,224.103997 43.148,224.608 L43.148,226.156 Z M46.568,215.788 C48.0560074,215.788 49.1659963,216.255995 49.898,217.192 C50.6300037,218.128005 50.996,219.279993 50.996,220.648 C50.996,221.416004 50.9060009,222.105997 50.726,222.718 C50.5459991,223.330003 50.3120014,223.857998 50.024,224.302 C49.7359986,224.746002 49.4240017,225.111999 49.088,225.4 C48.7519983,225.688001 48.4280016,225.903999 48.116,226.048 L45.56,227.2 L45.56,227.272 C45.8240013,227.32 46.051999,227.38 46.244,227.452 C46.436001,227.524 46.6039993,227.655999 46.748,227.848 C47.756005,229.096006 48.7339953,230.205995 49.682,231.178 C50.6300047,232.150005 51.4759963,232.983997 52.22,233.68 C52.9640037,234.376003 53.5639977,234.927998 54.02,235.336 C54.4760023,235.744002 54.704,235.996 54.704,236.092 C54.704,236.260001 54.6740003,236.409999 54.614,236.542 C54.5539997,236.674001 54.428001,236.835999 54.236,237.028 C54.0199989,237.244001 53.8580005,237.4 53.75,237.496 C53.6419995,237.592 53.5280006,237.64 53.408,237.64 L52.832,237.64 C52.639999,237.64 52.4660008,237.61 52.31,237.55 C52.1539992,237.49 51.980001,237.340001 51.788,237.1 C51.4519983,236.691998 51.0500023,236.200003 50.582,235.624 C50.1139977,235.047997 49.4600042,234.304005 48.62,233.392 L44.732,229.18 C44.4919988,228.915999 44.2460013,228.742 43.994,228.658 C43.7419987,228.574 43.4600016,228.532 43.148,228.532 C43.1239999,228.916002 43.1060001,229.335998 43.094,229.792 C43.0819999,230.248002 43.076,230.775997 43.076,231.376 L43.076,237.244 C43.076,237.436001 43.0280005,237.609999 42.932,237.766 C42.8359995,237.922001 42.6560013,238 42.392,238 C42.2239992,238 41.9960014,237.964 41.708,237.892 C41.4199986,237.82 41.1320014,237.724001 40.844,237.604 C40.5559986,237.483999 40.3040011,237.346001 40.088,237.19 C39.8719989,237.033999 39.764,236.872001 39.764,236.704 C39.764,236.583999 39.8299993,236.428001 39.962,236.236 C40.0940007,236.043999 40.255999,235.816001 40.448,235.552 C40.5200004,235.431999 40.5859997,235.030003 40.646,234.346 C40.7060003,233.661997 40.7539998,232.888004 40.79,232.024 C40.8260002,231.159996 40.8559999,230.308004 40.88,229.468 C40.9040001,228.627996 40.916,227.992002 40.916,227.56 L40.916,225.652 C40.916,224.643995 40.8980002,223.678005 40.862,222.754 C40.8259998,221.829995 40.7720004,221.044003 40.7,220.396 C40.6759999,220.203999 40.6100005,220.078 40.502,220.018 C40.3939995,219.958 40.2860005,219.904 40.178,219.856 C40.0699995,219.808 39.9680005,219.730001 39.872,219.622 C39.7759995,219.513999 39.728,219.340001 39.728,219.1 C39.728,218.691998 39.8839984,218.380001 40.196,218.164 C40.796003,217.731998 41.4199968,217.366001 42.068,217.066 C42.7160032,216.765998 43.3279971,216.520001 43.904,216.328 C44.4800029,216.135999 45.0019977,215.998 45.47,215.914 C45.9380023,215.83 46.3039987,215.788 46.568,215.788 Z M61.436,227.596 C61.436,228.028002 61.5199992,228.651996 61.688,229.468 C61.8560008,230.284004 62.1619978,231.093996 62.606,231.898 C63.0500022,232.702004 63.6559962,233.403997 64.424,234.004 C65.1920038,234.604003 66.175994,234.904 67.376,234.904 C67.8800025,234.904 68.4439969,234.808001 69.068,234.616 C69.6920031,234.423999 70.2859972,234.064003 70.85,233.536 C71.4140028,233.007997 71.8819981,232.282005 72.254,231.358 C72.6260019,230.433995 72.812,229.252007 72.812,227.812 C72.812,226.323993 72.6560016,225.076005 72.344,224.068 C72.0319984,223.059995 71.6240025,222.250003 71.12,221.638 C70.6159975,221.025997 70.0400032,220.582001 69.392,220.306 C68.7439968,220.029999 68.0720035,219.892 67.376,219.892 C66.4399953,219.892 65.6000037,220.101998 64.856,220.522 C64.1119963,220.942002 63.4880025,221.499997 62.984,222.196 C62.4799975,222.892003 62.0960013,223.707995 61.832,224.644 C61.5679987,225.580005 61.436,226.563995 61.436,227.596 Z M58.844,228.172 C58.844,226.995994 59.0119983,225.796006 59.348,224.572 C59.6840017,223.347994 60.2239963,222.232005 60.968,221.224 C61.7120037,220.215995 62.6659942,219.394003 63.83,218.758 C64.9940058,218.121997 66.4039917,217.804 68.06,217.804 C69.0200048,217.804 69.9319957,217.989998 70.796,218.362 C71.6600043,218.734002 72.4159968,219.309996 73.064,220.09 C73.7120032,220.870004 74.2279981,221.865994 74.612,223.078 C74.9960019,224.290006 75.188,225.723992 75.188,227.38 C75.188,228.964008 74.9420025,230.367994 74.45,231.592 C73.9579975,232.816006 73.3040041,233.841996 72.488,234.67 C71.6719959,235.498004 70.7420052,236.127998 69.698,236.56 C68.6539948,236.992002 67.5680056,237.208 66.44,237.208 C65.5519956,237.208 64.6520046,237.016002 63.74,236.632 C62.8279954,236.247998 62.0120036,235.678004 61.292,234.922 C60.5719964,234.165996 59.9840023,233.224006 59.528,232.096 C59.0719977,230.967994 58.844,229.660007 58.844,228.172 Z M84.908,226.948 C84.908,228.556008 84.806001,229.953994 84.602,231.142 C84.397999,232.330006 84.1820011,233.337996 83.954,234.166 C83.7259989,234.994004 83.510001,235.653998 83.306,236.146 C83.101999,236.638002 83,237.003999 83,237.244 C83,237.388001 83.0539995,237.519999 83.162,237.64 C83.2700005,237.760001 83.4019992,237.868 83.558,237.964 C83.7140008,238.06 83.8819991,238.132 84.062,238.18 C84.2420009,238.228 84.3919994,238.252 84.512,238.252 C84.8000014,238.252 85.0759987,238.120001 85.34,237.856 C85.6040013,237.591999 85.7959994,237.184003 85.916,236.632 C86.0840008,235.767996 86.2219995,234.796005 86.33,233.716 C86.4380005,232.635995 86.5279996,231.562005 86.6,230.494 C86.6720004,229.425995 86.7379997,228.436005 86.798,227.524 C86.8580003,226.611995 86.9239996,225.892003 86.996,225.364 C87.4280022,225.772002 87.8599978,226.161998 88.292,226.534 C88.7240022,226.906002 89.2099973,227.295998 89.75,227.704 C90.2900027,228.112002 90.9199964,228.555998 91.64,229.036 C92.3600036,229.516002 93.2359948,230.073997 94.268,230.71 C95.3000052,231.346003 96.5239929,232.077996 97.94,232.906 C99.3560071,233.734004 101.02399,234.699994 102.944,235.804 C103.304002,236.020001 103.585999,236.283998 103.79,236.596 C103.994001,236.908002 104.167999,237.201999 104.312,237.478 C104.456001,237.754001 104.581999,237.993999 104.69,238.198 C104.798001,238.402001 104.923999,238.504 105.068,238.504 C105.236001,238.504 105.451999,238.468 105.716,238.396 C105.980001,238.324 106.237999,238.210001 106.49,238.054 C106.742001,237.897999 106.963999,237.700001 107.156,237.46 C107.348001,237.219999 107.444,236.944002 107.444,236.632 C107.444,236.295998 107.426,235.948002 107.39,235.588 C107.354,235.227998 107.306,234.814002 107.246,234.346 C107.186,233.877998 107.138,233.338003 107.102,232.726 C107.066,232.113997 107.048,231.400004 107.048,230.584 C107.048,227.895987 107.078,225.766008 107.138,224.194 C107.198,222.621992 107.27,221.410004 107.354,220.558 C107.438,219.705996 107.51,219.112002 107.57,218.776 C107.63,218.439998 107.66,218.176001 107.66,217.984 C107.66,217.671998 107.528001,217.474 107.264,217.39 C106.999999,217.306 106.736001,217.264 106.472,217.264 C106.255999,217.264 105.998002,217.288 105.698,217.336 C105.397999,217.384 105.110001,217.45 104.834,217.534 C104.557999,217.618 104.324001,217.731999 104.132,217.876 C103.939999,218.020001 103.844,218.199999 103.844,218.416 C103.844,218.608001 103.897999,218.775999 104.006,218.92 C104.114001,219.064001 104.233999,219.231999 104.366,219.424 C104.498001,219.616001 104.623999,219.855999 104.744,220.144 C104.864001,220.432001 104.936,220.815998 104.96,221.296 C105.008,222.664007 105.056,224.007993 105.104,225.328 C105.152,226.648007 105.176,228.099992 105.176,229.684 C105.176,230.116002 105.17,230.517998 105.158,230.89 C105.146,231.262002 105.128,231.627998 105.104,231.988 C105.08,232.348002 105.05,232.731998 105.014,233.14 C104.978,233.548002 104.936,234.015997 104.888,234.544 C103.039991,233.583995 101.330008,232.630005 99.758,231.682 C98.1859921,230.733995 96.6320077,229.696006 95.096,228.568 C93.5599923,227.439994 91.994008,226.180007 90.398,224.788 C88.801992,223.395993 87.0560095,221.776009 85.16,219.928 C84.4639965,219.255997 83.912002,218.734002 83.504,218.362 C83.095998,217.989998 82.7780011,217.714001 82.55,217.534 C82.3219989,217.353999 82.1660004,217.246 82.082,217.21 C81.9979996,217.174 81.9200004,217.156 81.848,217.156 C81.3919977,217.156 81.0080016,217.287999 80.696,217.552 C80.3839984,217.816001 80.228,218.055999 80.228,218.272 C80.228,218.392001 80.2579997,218.517999 80.318,218.65 C80.3780003,218.782001 80.503999,218.973999 80.696,219.226 C80.888001,219.478001 81.1639982,219.801998 81.524,220.198 C81.8840018,220.594002 82.363997,221.115997 82.964,221.764 C83.6600035,222.508004 84.1579985,223.269996 84.458,224.05 C84.7580015,224.830004 84.908,225.795994 84.908,226.948 Z M114.536,219.964 L118.64,219.964 C118.760001,221.044005 118.832,222.099995 118.856,223.132 C118.88,224.164005 118.892,225.219995 118.892,226.3 C118.892,227.572006 118.862,228.663995 118.802,229.576 C118.742,230.488005 118.682,231.255997 118.622,231.88 C118.562,232.504003 118.502,233.007998 118.442,233.392 C118.382,233.776002 118.352,234.087999 118.352,234.328 C118.352,234.760002 118.459999,235.221998 118.676,235.714 C118.892001,236.206002 119.203998,236.661998 119.612,237.082 C120.020002,237.502002 120.505997,237.843999 121.07,238.108 C121.634003,238.372001 122.275996,238.504 122.996,238.504 C123.356002,238.504 123.769998,238.420001 124.238,238.252 C124.706002,238.083999 125.071999,237.904001 125.336,237.712 C125.552001,237.519999 125.66,237.244002 125.66,236.884 C125.66,236.739999 125.642,236.578001 125.606,236.398 C125.57,236.217999 125.468001,236.128 125.3,236.128 C125.179999,236.128 124.994001,236.146 124.742,236.182 C124.489999,236.218 124.280001,236.236 124.112,236.236 C123.487997,236.236 122.972002,236.140001 122.564,235.948 C122.155998,235.755999 121.838001,235.510001 121.61,235.21 C121.381999,234.909999 121.22,234.574002 121.124,234.202 C121.028,233.829998 120.98,233.452002 120.98,233.068 C120.98,231.363991 120.998,229.846007 121.034,228.514 C121.07,227.181993 121.118,225.988005 121.178,224.932 C121.238,223.875995 121.31,222.934004 121.394,222.106 C121.478,221.277996 121.579999,220.516003 121.7,219.82 L122.852,219.82 C123.308002,219.82 123.775998,219.808 124.256,219.784 C124.736002,219.76 125.209998,219.736 125.678,219.712 C126.146002,219.688 126.559998,219.652 126.92,219.604 C127.088001,219.58 127.267999,219.508001 127.46,219.388 C127.652001,219.267999 127.825999,219.124001 127.982,218.956 C128.138001,218.787999 128.269999,218.626001 128.378,218.47 C128.486001,218.313999 128.54,218.188 128.54,218.092 C128.54,217.755998 128.360002,217.588 128,217.588 C126.679993,217.588 125.360007,217.636 124.04,217.732 C122.719993,217.828 121.400007,217.876 120.08,217.876 C119.071995,217.876 118.208004,217.858 117.488,217.822 C116.767996,217.786 116.150003,217.75 115.634,217.714 C115.117997,217.678 114.680002,217.648 114.32,217.624 C113.959998,217.6 113.648001,217.588 113.384,217.588 C113.167999,217.588 112.934001,217.719999 112.682,217.984 C112.429999,218.248001 112.304,218.475999 112.304,218.668 C112.304,218.980002 112.375999,219.285999 112.52,219.586 C112.664001,219.886001 112.879999,220.036 113.168,220.036 C113.408001,220.036 113.641999,220.024 113.87,220 C114.098001,219.976 114.319999,219.964 114.536,219.964 Z M142.796,226.48 L137.936,226.48 C137.575998,226.48 137.264001,226.533999 137,226.642 C136.735999,226.750001 136.508001,226.887999 136.316,227.056 C136.412,225.255991 136.615998,223.780006 136.928,222.628 C137.240002,221.475994 137.617998,220.570003 138.062,219.91 C138.506002,219.249997 138.997997,218.800001 139.538,218.56 C140.078003,218.319999 140.635997,218.2 141.212,218.2 L143.336,218.2 C143.792002,218.2 144.02,217.936003 144.02,217.408 C144.02,216.999998 143.840002,216.718001 143.48,216.562 C143.119998,216.405999 142.436005,216.328 141.428,216.328 C140.419995,216.328 139.442005,216.537998 138.494,216.958 C137.545995,217.378002 136.712004,218.085995 135.992,219.082 C135.271996,220.078005 134.690002,221.385992 134.246,223.006 C133.801998,224.626008 133.58,226.635988 133.58,229.036 C133.58,229.708003 133.604,230.415996 133.652,231.16 C133.7,231.904004 133.819999,232.641996 134.012,233.374 C134.204001,234.106004 134.485998,234.801997 134.858,235.462 C135.230002,236.122003 135.739997,236.703997 136.388,237.208 C137.036003,237.712003 137.839995,238.113999 138.8,238.414 C139.760005,238.714001 140.923993,238.864 142.292,238.864 C143.204005,238.864 143.839998,238.768001 144.2,238.576 C144.560002,238.383999 144.74,238.192001 144.74,238 C144.74,237.687998 144.650001,237.484 144.47,237.388 C144.289999,237.292 143.936003,237.244 143.408,237.244 C140.935988,237.244 139.136006,236.518007 138.008,235.066 C136.879994,233.613993 136.316,231.448014 136.316,228.568 C137.036004,228.544 137.857995,228.526 138.782,228.514 C139.706005,228.502 140.707995,228.448 141.788,228.352 C141.908001,228.352 142.057999,228.292001 142.238,228.172 C142.418001,228.051999 142.603999,227.908001 142.796,227.74 C142.988001,227.571999 143.149999,227.410001 143.282,227.254 C143.414001,227.097999 143.48,226.984 143.48,226.912 C143.48,226.623999 143.252002,226.48 142.796,226.48 Z M153.56,226.948 C153.56,228.556008 153.458001,229.953994 153.254,231.142 C153.049999,232.330006 152.834001,233.337996 152.606,234.166 C152.377999,234.994004 152.162001,235.653998 151.958,236.146 C151.753999,236.638002 151.652,237.003999 151.652,237.244 C151.652,237.388001 151.705999,237.519999 151.814,237.64 C151.922001,237.760001 152.053999,237.868 152.21,237.964 C152.366001,238.06 152.533999,238.132 152.714,238.18 C152.894001,238.228 153.043999,238.252 153.164,238.252 C153.452001,238.252 153.727999,238.120001 153.992,237.856 C154.256001,237.591999 154.447999,237.184003 154.568,236.632 C154.736001,235.767996 154.873999,234.796005 154.982,233.716 C155.090001,232.635995 155.18,231.562005 155.252,230.494 C155.324,229.425995 155.39,228.436005 155.45,227.524 C155.51,226.611995 155.576,225.892003 155.648,225.364 C156.080002,225.772002 156.511998,226.161998 156.944,226.534 C157.376002,226.906002 157.861997,227.295998 158.402,227.704 C158.942003,228.112002 159.571996,228.555998 160.292,229.036 C161.012004,229.516002 161.887995,230.073997 162.92,230.71 C163.952005,231.346003 165.175993,232.077996 166.592,232.906 C168.008007,233.734004 169.67599,234.699994 171.596,235.804 C171.956002,236.020001 172.237999,236.283998 172.442,236.596 C172.646001,236.908002 172.819999,237.201999 172.964,237.478 C173.108001,237.754001 173.233999,237.993999 173.342,238.198 C173.450001,238.402001 173.575999,238.504 173.72,238.504 C173.888001,238.504 174.103999,238.468 174.368,238.396 C174.632001,238.324 174.889999,238.210001 175.142,238.054 C175.394001,237.897999 175.615999,237.700001 175.808,237.46 C176.000001,237.219999 176.096,236.944002 176.096,236.632 C176.096,236.295998 176.078,235.948002 176.042,235.588 C176.006,235.227998 175.958,234.814002 175.898,234.346 C175.838,233.877998 175.79,233.338003 175.754,232.726 C175.718,232.113997 175.7,231.400004 175.7,230.584 C175.7,227.895987 175.73,225.766008 175.79,224.194 C175.85,222.621992 175.922,221.410004 176.006,220.558 C176.09,219.705996 176.162,219.112002 176.222,218.776 C176.282,218.439998 176.312,218.176001 176.312,217.984 C176.312,217.671998 176.180001,217.474 175.916,217.39 C175.651999,217.306 175.388001,217.264 175.124,217.264 C174.907999,217.264 174.650002,217.288 174.35,217.336 C174.049999,217.384 173.762001,217.45 173.486,217.534 C173.209999,217.618 172.976001,217.731999 172.784,217.876 C172.591999,218.020001 172.496,218.199999 172.496,218.416 C172.496,218.608001 172.549999,218.775999 172.658,218.92 C172.766001,219.064001 172.885999,219.231999 173.018,219.424 C173.150001,219.616001 173.275999,219.855999 173.396,220.144 C173.516001,220.432001 173.588,220.815998 173.612,221.296 C173.66,222.664007 173.708,224.007993 173.756,225.328 C173.804,226.648007 173.828,228.099992 173.828,229.684 C173.828,230.116002 173.822,230.517998 173.81,230.89 C173.798,231.262002 173.78,231.627998 173.756,231.988 C173.732,232.348002 173.702,232.731998 173.666,233.14 C173.63,233.548002 173.588,234.015997 173.54,234.544 C171.691991,233.583995 169.982008,232.630005 168.41,231.682 C166.837992,230.733995 165.284008,229.696006 163.748,228.568 C162.211992,227.439994 160.646008,226.180007 159.05,224.788 C157.453992,223.395993 155.708009,221.776009 153.812,219.928 C153.115997,219.255997 152.564002,218.734002 152.156,218.362 C151.747998,217.989998 151.430001,217.714001 151.202,217.534 C150.973999,217.353999 150.818,217.246 150.734,217.21 C150.65,217.174 150.572,217.156 150.5,217.156 C150.043998,217.156 149.660002,217.287999 149.348,217.552 C149.035998,217.816001 148.88,218.055999 148.88,218.272 C148.88,218.392001 148.91,218.517999 148.97,218.65 C149.03,218.782001 149.155999,218.973999 149.348,219.226 C149.540001,219.478001 149.815998,219.801998 150.176,220.198 C150.536002,220.594002 151.015997,221.115997 151.616,221.764 C152.312003,222.508004 152.809999,223.269996 153.11,224.05 C153.410002,224.830004 153.56,225.795994 153.56,226.948 Z M187.976,229.144 C187.976,230.056005 187.97,230.949996 187.958,231.826 C187.946,232.702004 187.94,233.511996 187.94,234.256 C187.94,235.168005 188.035999,235.743999 188.228,235.984 C188.420001,236.224001 188.731998,236.344 189.164,236.344 C190.292006,236.344 191.317995,236.200001 192.242,235.912 C193.166005,235.623999 193.963997,235.096004 194.636,234.328 C195.308003,233.559996 195.829998,232.516007 196.202,231.196 C196.574002,229.875993 196.76,228.18401 196.76,226.12 C196.76,224.607992 196.496003,223.348005 195.968,222.34 C195.439997,221.331995 194.822004,220.522003 194.114,219.91 C193.405996,219.297997 192.704003,218.860001 192.008,218.596 C191.311997,218.331999 190.796002,218.2 190.46,218.2 C190.051998,218.2 189.608002,218.277999 189.128,218.434 C188.647998,218.590001 188.264001,218.763999 187.976,218.956 L187.976,229.144 Z M188.876,238.396 C188.635999,238.396 188.402001,238.378 188.174,238.342 C187.945999,238.306 187.736001,238.276 187.544,238.252 L185.528,238 C185.119998,237.952 184.826001,237.886 184.646,237.802 C184.465999,237.718 184.376,237.580001 184.376,237.388 C184.376,237.195999 184.429999,237.046001 184.538,236.938 C184.646001,236.829999 184.765999,236.704001 184.898,236.56 C185.030001,236.415999 185.155999,236.212001 185.276,235.948 C185.396001,235.683999 185.468,235.312002 185.492,234.832 C185.564,233.391993 185.624,231.916008 185.672,230.404 C185.72,228.891992 185.744,227.488006 185.744,226.192 C185.744,225.663997 185.726,225.094003 185.69,224.482 C185.654,223.869997 185.606,223.264003 185.546,222.664 C185.486,222.063997 185.42,221.506003 185.348,220.99 C185.276,220.473997 185.204,220.048002 185.132,219.712 C185.084,219.495999 184.982001,219.37 184.826,219.334 C184.669999,219.298 184.514001,219.268 184.358,219.244 C184.201999,219.22 184.058001,219.178 183.926,219.118 C183.793999,219.058 183.728,218.896001 183.728,218.632 C183.728,218.295998 183.817999,218.062001 183.998,217.93 C184.178001,217.797999 184.579997,217.636001 185.204,217.444 L187.724,216.724 C188.252003,216.579999 188.677998,216.478 189.002,216.418 C189.326002,216.358 189.571999,216.328 189.74,216.328 C189.812,216.328 190.099997,216.352 190.604,216.4 C191.108003,216.448 191.713996,216.567999 192.422,216.76 C193.130004,216.952001 193.891996,217.233998 194.708,217.606 C195.524004,217.978002 196.273997,218.487997 196.958,219.136 C197.642003,219.784003 198.211998,220.593995 198.668,221.566 C199.124002,222.538005 199.352,223.707993 199.352,225.076 C199.352,226.324006 199.316,227.421995 199.244,228.37 C199.172,229.318005 199.046001,230.163996 198.866,230.908 C198.685999,231.652004 198.452001,232.329997 198.164,232.942 C197.875999,233.554003 197.516002,234.159997 197.084,234.76 C196.819999,235.120002 196.454002,235.461998 195.986,235.786 C195.517998,236.110002 195.002003,236.403999 194.438,236.668 C193.873997,236.932001 193.292003,237.171999 192.692,237.388 C192.091997,237.604001 191.534003,237.783999 191.018,237.928 C190.501997,238.072001 190.052002,238.186 189.668,238.27 C189.283998,238.354 189.020001,238.396 188.876,238.396 Z" id="FRONTEND" fill="#7ED321"></path>
        </g>
    </g>
</svg>