<?xml version="1.0" encoding="UTF-8" standalone="no"?>
<svg width="27px" height="31px" viewBox="0 0 27 31" version="1.1" xmlns="http://www.w3.org/2000/svg" xmlns:xlink="http://www.w3.org/1999/xlink">
    <!-- Generator: Sketch 43.1 (39012) - http://www.bohemiancoding.com/sketch -->
    <title>U</title>
    <desc>Created with Sketch.</desc>
    <defs></defs>
    <g id="Page-1" stroke="none" stroke-width="1" fill="none" fill-rule="evenodd">
        <path d="M26.856,23.796 C25.3199923,25.9800109 23.3700118,27.671994 21.006,28.872 C18.6419882,30.072006 16.1280133,30.672 13.464,30.672 C10.8479869,30.672 8.31601224,30.0540062 5.868,28.818 C3.41998776,27.5819938 1.46400732,25.9080106 0,23.796 L1.188,22.644 C2.67600744,24.6840102 4.4699895,26.2619944 6.57,27.378 C8.6700105,28.4940056 10.9679875,29.052 13.464,29.052 C15.8880121,29.052 18.1799892,28.4820057 20.34,27.342 C22.5000108,26.2019943 24.275993,24.63601 25.668,22.644 L26.856,23.796 Z M25.668,9.072 L23.832,12.06 L23.652,11.952 L23.148,9.864 L21.132,8.568 C20.123995,10.2000082 18.516011,11.016 16.308,11.016 C16.2839999,11.2320011 16.2300004,11.4479989 16.146,11.664 C16.0619996,11.8800011 15.9420008,12.1019989 15.786,12.33 C15.6299992,12.5580011 15.4980005,12.7439993 15.39,12.888 C15.2819995,13.0320007 15.1200011,13.2299987 14.904,13.482 C14.6879989,13.7340013 14.5440004,13.9079995 14.472,14.004 L22.896,23.004 L25.056,22.212 C24.4799971,23.1240046 23.7240047,23.9879959 22.788,24.804 L16.308,19.332 C15.4679958,19.8360025 14.5560049,20.088 13.572,20.088 C12.3959941,20.088 11.3160049,19.7280036 10.332,19.008 L4.464,23.04 L5.364,25.776 C4.37999508,25.1279968 3.43200456,24.2640054 2.52,23.184 L11.196,15.048 L9.828,13.644 L10.8,12.672 L11.988,13.896 L11.988,5.4 L10.44,6.984 L9.936,6.48 L11.988,4.392 L11.988,2.34 L10.728,0.972 L10.728,0.252 C11.4240035,0.08399916 12.3359944,0 13.464,0 C14.4240048,0 15.3239958,0.08399916 16.164,0.252 L16.164,0.972 L14.688,2.52 C15.0480018,2.83200156 15.228,3.21599772 15.228,3.672 C15.228,3.93600132 15.1920004,4.1279994 15.12,4.248 L19.944,7.272 C20.1120008,6.93599832 20.196,6.61200156 20.196,6.3 L21.672,7.236 C21.6479999,7.4760012 21.540001,7.78799808 21.348,8.172 L23.4,9.432 L25.524,8.964 L25.668,9.072 Z M19.728,7.704 L14.868,4.68 C14.6279988,4.99200156 14.2680024,5.17199976 13.788,5.22 L13.788,5.904 C15.2520073,6.55200324 16.1279986,7.70399172 16.416,9.36 L16.596,9.36 C17.988007,9.36 19.0319965,8.80800552 19.728,7.704 Z" id="U" fill="#E7DE81"></path>
    </g>
</svg>