<?xml version="1.0" encoding="UTF-8" standalone="no"?>
<svg width="28px" height="32px" viewBox="0 0 28 32" version="1.1" xmlns="http://www.w3.org/2000/svg" xmlns:xlink="http://www.w3.org/1999/xlink">
    <!-- Generator: Sketch 43.1 (39012) - http://www.bohemiancoding.com/sketch -->
    <title>U</title>
    <desc>Created with Sketch.</desc>
    <defs></defs>
    <g id="Page-1" stroke="none" stroke-width="1" fill="none" fill-rule="evenodd">
        <path d="M27.288,24.436 C25.7519923,26.6200109 23.8020118,28.311994 21.438,29.512 C19.0739882,30.712006 16.5600133,31.312 13.896,31.312 C11.2799869,31.312 8.74801224,30.6940062 6.3,29.458 C3.85198776,28.2219938 1.89600732,26.5480106 0.432,24.436 L1.62,23.284 C3.10800744,25.3240102 4.9019895,26.9019944 7.002,28.018 C9.1020105,29.1340056 11.3999875,29.692 13.896,29.692 C16.3200121,29.692 18.6119892,29.1220057 20.772,27.982 C22.9320108,26.8419943 24.707993,25.27601 26.1,23.284 L27.288,24.436 Z M26.1,9.712 L24.264,12.7 L24.084,12.592 L23.58,10.504 L21.564,9.208 C20.555995,10.8400082 18.948011,11.656 16.74,11.656 C16.7159999,11.8720011 16.6620004,12.0879989 16.578,12.304 C16.4939996,12.5200011 16.3740008,12.7419989 16.218,12.97 C16.0619992,13.1980011 15.9300005,13.3839993 15.822,13.528 C15.7139995,13.6720007 15.5520011,13.8699987 15.336,14.122 C15.1199989,14.3740013 14.9760004,14.5479995 14.904,14.644 L23.328,23.644 L25.488,22.852 C24.9119971,23.7640046 24.1560047,24.6279959 23.22,25.444 L16.74,19.972 C15.8999958,20.4760025 14.9880049,20.728 14.004,20.728 C12.8279941,20.728 11.7480049,20.3680036 10.764,19.648 L4.896,23.68 L5.796,26.416 C4.81199508,25.7679968 3.86400456,24.9040054 2.952,23.824 L11.628,15.688 L10.26,14.284 L11.232,13.312 L12.42,14.536 L12.42,6.04 L10.872,7.624 L10.368,7.12 L12.42,5.032 L12.42,2.98 L11.16,1.612 L11.16,0.892 C11.8560035,0.72399916 12.7679944,0.64 13.896,0.64 C14.8560048,0.64 15.7559958,0.72399916 16.596,0.892 L16.596,1.612 L15.12,3.16 C15.4800018,3.47200156 15.66,3.85599772 15.66,4.312 C15.66,4.57600132 15.6240004,4.7679994 15.552,4.888 L20.376,7.912 C20.5440008,7.57599832 20.628,7.25200156 20.628,6.94 L22.104,7.876 C22.0799999,8.1160012 21.972001,8.42799808 21.78,8.812 L23.832,10.072 L25.956,9.604 L26.1,9.712 Z M20.16,8.344 L15.3,5.32 C15.0599988,5.63200156 14.7000024,5.81199976 14.22,5.86 L14.22,6.544 C15.6840073,7.19200324 16.5599986,8.34399172 16.848,10 L17.028,10 C18.420007,10 19.4639965,9.44800552 20.16,8.344 Z" id="U" fill="#E7DE81"></path>
    </g>
</svg>