<?xml version="1.0" encoding="UTF-8" standalone="no"?>
<svg width="41px" height="32px" viewBox="0 0 41 32" version="1.1" xmlns="http://www.w3.org/2000/svg" xmlns:xlink="http://www.w3.org/1999/xlink">
    <!-- Generator: Sketch 43.1 (39012) - http://www.bohemiancoding.com/sketch -->
    <title>I</title>
    <desc>Created with Sketch.</desc>
    <defs></defs>
    <g id="Page-1" stroke="none" stroke-width="1" fill="none" fill-rule="evenodd">
        <path d="M36.936,17.2 L37.008,17.308 L37.008,17.452 C37.008,17.5720006 36.9660004,17.6739996 36.882,17.758 C36.7979996,17.8420004 36.6840007,17.9199996 36.54,17.992 C36.3959993,18.0640004 36.2640006,18.1239998 36.144,18.172 C36.0239994,18.2200002 35.868001,18.2739997 35.676,18.334 C35.483999,18.3940003 35.3760001,18.424 35.352,18.424 C34.7279969,22.2880193 32.9640145,25.3899883 30.06,27.73 C27.1559855,30.0700117 23.7360197,31.24 19.8,31.24 C16.2719824,31.24 13.0440146,29.9920125 10.116,27.496 C8.98799436,27.8080016 8.32800096,27.964 8.136,27.964 C7.8959988,27.964 7.69200084,27.9160005 7.524,27.82 C5.6039904,27.82 4.63200012,27.5920023 4.608,27.136 L4.68,26.992 C5.13600228,26.6079981 5.65199712,26.2960012 6.228,26.056 C6.03599904,25.5039972 5.86800072,24.7840044 5.724,23.896 C4.7639952,24.1120011 3.94800336,24.22 3.276,24.22 C2.74799736,24.22 2.11200372,24.1120011 1.368,23.896 C0.62399628,23.6799989 0.252,23.3800019 0.252,22.996 C0.252,22.8759994 0.29999952,22.7680005 0.396,22.672 C0.46800036,22.5999996 0.85799646,22.366002 1.566,21.97 C2.27400354,21.573998 3.05399574,21.1420023 3.906,20.674 C4.75800426,20.2059977 5.2439994,19.9360004 5.364,19.864 C5.05199844,18.6879941 4.896,17.4280067 4.896,16.084 C4.896,11.8119786 6.38398512,8.17001506 9.36,5.158 C12.3360149,2.14598494 15.9599786,0.64 20.232,0.64 C24.4080209,0.64 27.995985,2.11598524 30.996,5.068 C31.8360042,5.09200012 32.459998,5.12799976 32.868,5.176 C33.276002,5.22400024 33.8039968,5.35599892 34.452,5.572 C35.1000032,5.78800108 35.6159981,6.09999796 36,6.508 C36.5280026,7.03600264 36.792,7.55199748 36.792,8.056 C36.792,8.22400084 36.7380005,8.3979991 36.63,8.578 C36.5219995,8.7580009 36.3540011,8.92599922 36.126,9.082 C35.8979989,9.23800078 35.7120007,9.36399952 35.568,9.46 C35.4239993,9.55600048 35.1960016,9.68199922 34.884,9.838 C34.5719984,9.99400078 34.4040001,10.0839999 34.38,10.108 C34.6440013,10.7560032 34.8599992,11.4039968 35.028,12.052 C35.4600022,11.8359989 35.8679981,11.728 36.252,11.728 C37.0920042,11.728 37.512,12.0519968 37.512,12.7 C37.512,12.9880014 37.410001,13.3719976 37.206,13.852 C37.001999,14.3320024 36.8880001,14.6559992 36.864,14.824 C36.9120002,14.824 37.1639977,14.7880004 37.62,14.716 C38.0760023,14.6439996 38.4119989,14.608 38.628,14.608 L39.06,14.608 C39.7320034,14.608 40.068,14.7759983 40.068,15.112 C39.9959996,15.304001 39.7680019,15.5319987 39.384,15.796 C38.9999981,16.0600013 38.508003,16.3539984 37.908,16.678 C37.307997,17.0020016 36.9840002,17.1759999 36.936,17.2 Z M34.56,18.748 L18.936,24.328 C19.5840032,24.6400016 19.908,25.1559964 19.908,25.876 C19.908,26.3800025 19.7460016,26.7939984 19.422,27.118 C19.0979984,27.4420016 18.6840025,27.604 18.18,27.604 C17.6279972,27.604 17.2020015,27.4300017 16.902,27.082 C16.6019985,26.7339983 16.452,26.2840028 16.452,25.732 C16.452,25.5639992 16.4999995,25.384001 16.596,25.192 C16.0919975,25.384001 15.8280001,25.5039998 15.804,25.552 C15.8280001,25.6240004 15.8759996,25.7139995 15.948,25.822 C16.0200004,25.9300005 16.0679999,26.0319995 16.092,26.128 C16.1160001,26.2240005 16.128,26.3439993 16.128,26.488 C16.128,26.8720019 16.0080012,27.1839988 15.768,27.424 C15.5279988,27.6640012 15.2160019,27.784 14.832,27.784 C13.9199954,27.784 13.464,27.2920049 13.464,26.308 L10.908,27.208 C13.6200136,29.3920109 16.6919828,30.484 20.124,30.484 C23.7000179,30.484 26.8319866,29.3980109 29.52,27.226 C32.2080134,25.0539891 33.8879966,22.2280174 34.56,18.748 Z M10.152,22.636 C10.152,21.6039948 9.99000162,20.488006 9.666,19.288 C9.34199838,18.087994 8.8200036,17.488 8.1,17.488 C7.6199976,17.488 7.21800162,17.8479964 6.894,18.568 C6.56999838,19.2880036 6.36000048,19.9959965 6.264,20.692 C6.16799952,21.3880035 6.12,21.9999974 6.12,22.528 C6.12,23.4880048 6.28799832,24.5499942 6.624,25.714 C6.96000168,26.8780058 7.47599652,27.46 8.172,27.46 C8.82000324,27.46 9.31199832,26.8780058 9.648,25.714 C9.98400168,24.5499942 10.152,23.5240044 10.152,22.636 Z M8.316,21.556 L8.352,22.384 C8.352,22.7440018 8.32800024,22.9959993 8.28,23.14 C7.60799664,23.14 7.00800264,22.8760026 6.48,22.348 C7.00800264,21.8199974 7.61999652,21.556 8.316,21.556 Z M18.18,27.1 C18.5160017,27.1 18.8039988,26.9860011 19.044,26.758 C19.2840012,26.5299989 19.404,26.2480017 19.404,25.912 C19.404,25.0719958 18.9960041,24.652 18.18,24.652 C17.8439983,24.652 17.5560012,24.7659989 17.316,24.994 C17.0759988,25.2220011 16.956,25.5039983 16.956,25.84 C16.956,26.6800042 17.3639959,27.1 18.18,27.1 Z M18.216,26.344 C17.9519987,26.344 17.82,26.1640018 17.82,25.804 C17.9400006,25.5879989 18.0719993,25.48 18.216,25.48 C18.4800013,25.48 18.612,25.6599982 18.612,26.02 C18.5159995,26.2360011 18.3840008,26.344 18.216,26.344 Z M24.552,16.408 L24.3,16.444 C24.107999,16.444 23.8680014,16.4200002 23.58,16.372 C23.58,16.8280023 23.484001,17.3019975 23.292,17.794 C23.099999,18.2860025 22.800002,18.532 22.392,18.532 C21.8399972,18.532 21.4320013,17.9560058 21.168,16.804 L20.988,16.84 L19.98,19.504 L18.72,19.144 L19.44,17.164 C18.8159969,17.2360004 18.204003,17.367999 17.604,17.56 L16.704,19.9 L15.408,19.54 L16.02,17.884 C13.427987,18.5080031 11.4960064,18.9999982 10.224,19.36 C10.5120014,20.3200048 10.656,21.3279947 10.656,22.384 C10.656,22.6960016 10.6320002,23.1159974 10.584,23.644 C11.3040036,24.1000023 12.0719959,24.328 12.888,24.328 C13.4160026,24.328 13.7159996,24.3160001 13.788,24.292 L23.796,19.252 L24.552,16.408 Z M13.392,23.284 C13.0799984,23.284 12.924,23.1160017 12.924,22.78 C12.924,22.4919986 13.0799984,22.348 13.392,22.348 C13.7040016,22.348 13.86,22.5159983 13.86,22.852 C13.86,22.9480005 13.8120005,23.0439995 13.716,23.14 C13.6199995,23.2360005 13.5120006,23.284 13.392,23.284 Z M11.952,23.176 C11.6399984,23.176 11.484,23.0080017 11.484,22.672 C11.484,22.3839986 11.6399984,22.24 11.952,22.24 C12.2640016,22.24 12.42,22.4079983 12.42,22.744 C12.42,22.8400005 12.3720005,22.9359995 12.276,23.032 C12.1799995,23.1280005 12.0720006,23.176 11.952,23.176 Z M29.268,5.068 L29.88,5.068 C27.1679864,2.61998776 23.9520186,1.396 20.232,1.396 C16.1999798,1.396 12.7560143,2.82998566 9.9,5.698 C7.04398572,8.56601434 5.616,12.0159798 5.616,16.048 C5.616,17.2000058 5.75999856,18.3399944 6.048,19.468 C6.24000096,18.8439969 6.52199814,18.2740026 6.894,17.758 C7.26600186,17.2419974 7.71599736,16.984 8.244,16.984 C8.67600216,16.984 9.0119988,17.1519983 9.252,17.488 C11.4120108,16.1199932 14.4539804,14.0800136 18.378,11.368 C22.3020196,8.65598644 25.1399912,6.72400576 26.892,5.572 C27.4200026,5.23599832 28.2119947,5.068 29.268,5.068 Z M18.288,14.392 L17.892,14.32 L16.092,19.216 L16.416,19.288 L18.288,14.392 Z M28.044,7.48 L27.468,7.372 L24.372,18.964 L24.984,18.676 L28.044,7.48 Z M21.564,13.96 L21.168,13.888 L19.368,18.82 L19.692,18.892 L21.564,13.96 Z M29.664,16.228 L26.136,16.336 L25.596,18.352 C25.8360012,18.2319994 26.2439971,18.0160016 26.82,17.704 C27.3960029,17.3919984 27.8999978,17.140001 28.332,16.948 C28.7640022,16.755999 29.1959978,16.6000006 29.628,16.48 L29.664,16.228 Z M23.04,16.444 L21.744,17.164 C21.936001,17.5960022 22.1039993,17.8839993 22.248,18.028 L22.392,18.064 C22.584001,18.0159998 22.7999988,17.4760052 23.04,16.444 Z M39.456,15.112 C39.2879992,15.0639998 39.0360017,15.04 38.7,15.04 C38.0519968,15.04 37.2660046,15.141999 36.342,15.346 C35.4179954,15.550001 34.7040025,15.7959986 34.2,16.084 C34.2720004,16.084 34.4279988,16.1019998 34.668,16.138 C34.9080012,16.1740002 35.0999993,16.1979999 35.244,16.21 C35.3880007,16.2220001 35.555999,16.2519998 35.748,16.3 C35.940001,16.3480002 36.1079993,16.4139996 36.252,16.498 C36.3960007,16.5820004 36.5279994,16.6839994 36.648,16.804 L39.456,15.112 Z M33.084,7.552 L32.508,7.444 L30.168,16.336 L30.744,16.228 L33.084,7.552 Z M36.108,12.196 L35.856,12.304 C35.663999,12.3520002 35.4840008,12.4119996 35.316,12.484 C35.1479992,12.5560004 34.9500011,12.6759992 34.722,12.844 C34.4939989,13.0120008 34.2960008,13.2159988 34.128,13.456 C33.5999974,14.2720041 33.1680017,15.1359954 32.832,16.048 L33.444,16.048 C33.9960028,15.4959972 34.9559932,15.1120011 36.324,14.896 C36.7800023,13.5279932 37.008,12.7240012 37.008,12.484 C36.8639993,12.291999 36.5640023,12.196 36.108,12.196 Z M24.804,15.472 L24.048,15.904 L24.696,15.868 L24.804,15.472 Z M30.744,12.124 L26.676,14.428 L26.28,15.76 L29.808,15.76 L30.744,12.124 Z M34.38,12.484 C34.187999,11.7639964 33.9720012,11.0920031 33.732,10.468 L32.652,11.044 L31.392,15.724 L32.472,15.688 C32.6160007,15.495999 32.8499984,15.0100039 33.174,14.23 C33.4980016,13.4499961 33.8999976,12.8680019 34.38,12.484 Z" id="I" fill="#417505"></path>
    </g>
</svg>