<?xml version="1.0" encoding="UTF-8" standalone="no"?>
<svg width="27px" height="32px" viewBox="0 0 27 32" version="1.1" xmlns="http://www.w3.org/2000/svg" xmlns:xlink="http://www.w3.org/1999/xlink">
    <!-- Generator: Sketch 43.1 (39012) - http://www.bohemiancoding.com/sketch -->
    <title>Group 2</title>
    <desc>Created with Sketch.</desc>
    <defs></defs>
    <g id="Page-1" stroke="none" stroke-width="1" fill="none" fill-rule="evenodd">
        <g id="Group-2" transform="translate(-3.000000, 0.000000)">
            <path d="M29.424,14.104 C29.424,16.3840114 28.2480118,19.3359819 25.896,22.96 L25.896,23.176 L27.984,23.176 L27.444,24.328 L24.888,24.328 C23.7839945,25.7680072 22.7040053,26.9199957 21.648,27.784 C21.648,27.9040006 21.6120004,28.0179995 21.54,28.126 C21.4679996,28.2340005 21.4020003,28.3119998 21.342,28.36 C21.2819997,28.4080002 21.1860007,28.4799995 21.054,28.576 C20.9219993,28.6720005 20.8440001,28.7319999 20.82,28.756 L21,29.08 L20.64,29.368 L20.28,29.008 L19.704,29.476 L20.064,29.908 L19.704,30.232 L18.66,29.044 L19.02,28.72 L19.38,29.152 L19.956,28.612 L19.596,28.216 L19.956,27.892 L20.172,28.072 C20.2200002,28.0239998 20.2799996,27.9580004 20.352,27.874 C20.4240004,27.7899996 20.4899997,27.7240002 20.55,27.676 C20.6100003,27.6279998 20.6759996,27.5800002 20.748,27.532 C20.8200004,27.4839998 20.9039995,27.4480001 21,27.424 C21.0960005,27.3999999 21.2039994,27.388 21.324,27.388 C22.3560052,26.4999956 23.3159956,25.4800058 24.204,24.328 L9.552,24.328 L9.552,28.072 C9.552,28.9120042 9.24000312,29.6439969 8.616,30.268 C7.99199688,30.9160032 7.23600444,31.24 6.348,31.24 C5.45999556,31.24 4.69800318,30.9280031 4.062,30.304 C3.42599682,29.6799969 3.108,28.9240044 3.108,28.036 L3.108,3.844 C3.108,2.95599556 3.42599682,2.20000312 4.062,1.576 C4.69800318,0.95199688 5.45999556,0.64 6.348,0.64 C7.23600444,0.64 7.99199688,0.95199688 8.616,1.576 C9.24000312,2.20000312 9.552,2.95599556 9.552,3.844 L9.552,7.372 L11.496,9.568 L12.36,8.776 L13.836,10.432 L15.132,9.46 L16.716,11.26 L17.796,10.288 L19.38,11.728 L20.388,10.792 L21.936,12.412 L23.412,11.332 L24.636,12.412 L24.636,10.504 L23.376,9.892 L23.376,8.956 C23.376,8.52399784 23.7239965,8.308 24.42,8.308 C24.5400006,8.308 24.701999,8.31399994 24.906,8.326 C25.110001,8.33800006 25.2479996,8.344 25.32,8.344 C25.7760023,8.344 26.004,8.7639958 26.004,9.604 C26.004,9.77200084 25.9920001,9.99999856 25.968,10.288 C25.9439999,10.5760014 25.932,10.7439998 25.932,10.792 L26.616,10.792 L26.616,11.44 C26.9040014,11.3919998 27.1079994,11.368 27.228,11.368 C27.9960038,11.368 28.5539983,11.6259974 28.902,12.142 C29.2500017,12.6580026 29.424,13.311996 29.424,14.104 Z M11.46,23.176 L9.516,21.268 L9.516,23.176 L11.46,23.176 Z M24.636,23.176 L24.636,18.604 L23.412,19.684 L21.936,18.568 L20.388,20.188 L19.416,19.288 L17.796,20.728 L16.716,19.756 L15.132,21.556 L13.836,20.584 L12.648,21.988 L13.152,22.492 C13.3920012,22.4439998 13.5599995,22.42 13.656,22.42 C14.256003,22.42 14.6879987,22.6719975 14.952,23.176 L24.636,23.176 Z M28.884,14.104 C28.884,12.6399927 28.3200056,11.908 27.192,11.908 L26.904,11.908 C26.8559998,11.908 26.8080002,11.9139999 26.76,11.926 C26.7119998,11.9380001 26.6640002,11.944 26.616,11.944 L26.616,13.384 L26.976,13.384 L26.976,12.808 L27.804,12.808 L27.804,18.1 L26.976,18.1 L26.976,17.524 L26.616,17.524 L26.616,20.872 L26.616,20.8 L26.652,20.728 C28.1400074,18.1599872 28.884,15.9520092 28.884,14.104 Z" id="J" fill="#F28585"></path>
            <rect id="Rectangle" x="0" y="0" width="33" height="33"></rect>
        </g>
    </g>
</svg>