<?xml version="1.0" encoding="UTF-8" standalone="no"?>
<svg width="27px" height="32px" viewBox="0 0 27 32" version="1.1" xmlns="http://www.w3.org/2000/svg" xmlns:xlink="http://www.w3.org/1999/xlink">
    <!-- Generator: Sketch 43.1 (39012) - http://www.bohemiancoding.com/sketch -->
    <title>J</title>
    <desc>Created with Sketch.</desc>
    <defs></defs>
    <g id="Page-1" stroke="none" stroke-width="1" fill="none" fill-rule="evenodd">
        <path d="M26.424,14.104 C26.424,16.3840114 25.2480118,19.3359819 22.896,22.96 L22.896,23.176 L24.984,23.176 L24.444,24.328 L21.888,24.328 C20.7839945,25.7680072 19.7040053,26.9199957 18.648,27.784 C18.648,27.9040006 18.6120004,28.0179995 18.54,28.126 C18.4679996,28.2340005 18.4020003,28.3119998 18.342,28.36 C18.2819997,28.4080002 18.1860007,28.4799995 18.054,28.576 C17.9219993,28.6720005 17.8440001,28.7319999 17.82,28.756 L18,29.08 L17.64,29.368 L17.28,29.008 L16.704,29.476 L17.064,29.908 L16.704,30.232 L15.66,29.044 L16.02,28.72 L16.38,29.152 L16.956,28.612 L16.596,28.216 L16.956,27.892 L17.172,28.072 C17.2200002,28.0239998 17.2799996,27.9580004 17.352,27.874 C17.4240004,27.7899996 17.4899997,27.7240002 17.55,27.676 C17.6100003,27.6279998 17.6759996,27.5800002 17.748,27.532 C17.8200004,27.4839998 17.9039995,27.4480001 18,27.424 C18.0960005,27.3999999 18.2039994,27.388 18.324,27.388 C19.3560052,26.4999956 20.3159956,25.4800058 21.204,24.328 L6.552,24.328 L6.552,28.072 C6.552,28.9120042 6.24000312,29.6439969 5.616,30.268 C4.99199688,30.9160032 4.23600444,31.24 3.348,31.24 C2.45999556,31.24 1.69800318,30.9280031 1.062,30.304 C0.42599682,29.6799969 0.108,28.9240044 0.108,28.036 L0.108,3.844 C0.108,2.95599556 0.42599682,2.20000312 1.062,1.576 C1.69800318,0.95199688 2.45999556,0.64 3.348,0.64 C4.23600444,0.64 4.99199688,0.95199688 5.616,1.576 C6.24000312,2.20000312 6.552,2.95599556 6.552,3.844 L6.552,7.372 L8.496,9.568 L9.36,8.776 L10.836,10.432 L12.132,9.46 L13.716,11.26 L14.796,10.288 L16.38,11.728 L17.388,10.792 L18.936,12.412 L20.412,11.332 L21.636,12.412 L21.636,10.504 L20.376,9.892 L20.376,8.956 C20.376,8.52399784 20.7239965,8.308 21.42,8.308 C21.5400006,8.308 21.701999,8.31399994 21.906,8.326 C22.110001,8.33800006 22.2479996,8.344 22.32,8.344 C22.7760023,8.344 23.004,8.7639958 23.004,9.604 C23.004,9.77200084 22.9920001,9.99999856 22.968,10.288 C22.9439999,10.5760014 22.932,10.7439998 22.932,10.792 L23.616,10.792 L23.616,11.44 C23.9040014,11.3919998 24.1079994,11.368 24.228,11.368 C24.9960038,11.368 25.5539983,11.6259974 25.902,12.142 C26.2500017,12.6580026 26.424,13.311996 26.424,14.104 Z M8.46,23.176 L6.516,21.268 L6.516,23.176 L8.46,23.176 Z M21.636,23.176 L21.636,18.604 L20.412,19.684 L18.936,18.568 L17.388,20.188 L16.416,19.288 L14.796,20.728 L13.716,19.756 L12.132,21.556 L10.836,20.584 L9.648,21.988 L10.152,22.492 C10.3920012,22.4439998 10.5599995,22.42 10.656,22.42 C11.256003,22.42 11.6879987,22.6719975 11.952,23.176 L21.636,23.176 Z M25.884,14.104 C25.884,12.6399927 25.3200056,11.908 24.192,11.908 L23.904,11.908 C23.8559998,11.908 23.8080002,11.9139999 23.76,11.926 C23.7119998,11.9380001 23.6640002,11.944 23.616,11.944 L23.616,13.384 L23.976,13.384 L23.976,12.808 L24.804,12.808 L24.804,18.1 L23.976,18.1 L23.976,17.524 L23.616,17.524 L23.616,20.872 L23.616,20.8 L23.652,20.728 C25.1400074,18.1599872 25.884,15.9520092 25.884,14.104 Z" id="J" fill="#DD64EA"></path>
    </g>
</svg>