<?xml version="1.0" encoding="UTF-8" standalone="no"?>
<svg width="27px" height="31px" viewBox="0 0 27 31" version="1.1" xmlns="http://www.w3.org/2000/svg" xmlns:xlink="http://www.w3.org/1999/xlink">
    <!-- Generator: Sketch 43.1 (39012) - http://www.bohemiancoding.com/sketch -->
    <title>J</title>
    <desc>Created with Sketch.</desc>
    <defs></defs>
    <g id="Page-1" stroke="none" stroke-width="1" fill="none" fill-rule="evenodd">
        <path d="M26.316,13.464 C26.316,15.7440114 25.1400118,18.6959819 22.788,22.32 L22.788,22.536 L24.876,22.536 L24.336,23.688 L21.78,23.688 C20.6759945,25.1280072 19.5960053,26.2799957 18.54,27.144 C18.54,27.2640006 18.5040004,27.3779995 18.432,27.486 C18.3599996,27.5940005 18.2940003,27.6719998 18.234,27.72 C18.1739997,27.7680002 18.0780007,27.8399995 17.946,27.936 C17.8139993,28.0320005 17.7360001,28.0919999 17.712,28.116 L17.892,28.44 L17.532,28.728 L17.172,28.368 L16.596,28.836 L16.956,29.268 L16.596,29.592 L15.552,28.404 L15.912,28.08 L16.272,28.512 L16.848,27.972 L16.488,27.576 L16.848,27.252 L17.064,27.432 C17.1120002,27.3839998 17.1719996,27.3180004 17.244,27.234 C17.3160004,27.1499996 17.3819997,27.0840002 17.442,27.036 C17.5020003,26.9879998 17.5679996,26.9400002 17.64,26.892 C17.7120004,26.8439998 17.7959995,26.8080001 17.892,26.784 C17.9880005,26.7599999 18.0959994,26.748 18.216,26.748 C19.2480052,25.8599956 20.2079956,24.8400058 21.096,23.688 L6.444,23.688 L6.444,27.432 C6.444,28.2720042 6.13200312,29.0039969 5.508,29.628 C4.88399688,30.2760032 4.12800444,30.6 3.24,30.6 C2.35199556,30.6 1.59000318,30.2880031 0.954,29.664 C0.31799682,29.0399969 0,28.2840044 0,27.396 L0,3.204 C0,2.31599556 0.31799682,1.56000312 0.954,0.936 C1.59000318,0.31199688 2.35199556,0 3.24,0 C4.12800444,0 4.88399688,0.31199688 5.508,0.936 C6.13200312,1.56000312 6.444,2.31599556 6.444,3.204 L6.444,6.732 L8.388,8.928 L9.252,8.136 L10.728,9.792 L12.024,8.82 L13.608,10.62 L14.688,9.648 L16.272,11.088 L17.28,10.152 L18.828,11.772 L20.304,10.692 L21.528,11.772 L21.528,9.864 L20.268,9.252 L20.268,8.316 C20.268,7.88399784 20.6159965,7.668 21.312,7.668 C21.4320006,7.668 21.593999,7.67399994 21.798,7.686 C22.002001,7.69800006 22.1399996,7.704 22.212,7.704 C22.6680023,7.704 22.896,8.1239958 22.896,8.964 C22.896,9.13200084 22.8840001,9.35999856 22.86,9.648 C22.8359999,9.93600144 22.824,10.1039998 22.824,10.152 L23.508,10.152 L23.508,10.8 C23.7960014,10.7519998 23.9999994,10.728 24.12,10.728 C24.8880038,10.728 25.4459983,10.9859974 25.794,11.502 C26.1420017,12.0180026 26.316,12.671996 26.316,13.464 Z M8.352,22.536 L6.408,20.628 L6.408,22.536 L8.352,22.536 Z M21.528,22.536 L21.528,17.964 L20.304,19.044 L18.828,17.928 L17.28,19.548 L16.308,18.648 L14.688,20.088 L13.608,19.116 L12.024,20.916 L10.728,19.944 L9.54,21.348 L10.044,21.852 C10.2840012,21.8039998 10.4519995,21.78 10.548,21.78 C11.148003,21.78 11.5799987,22.0319975 11.844,22.536 L21.528,22.536 Z M25.776,13.464 C25.776,11.9999927 25.2120056,11.268 24.084,11.268 L23.796,11.268 C23.7479998,11.268 23.7000002,11.2739999 23.652,11.286 C23.6039998,11.2980001 23.5560002,11.304 23.508,11.304 L23.508,12.744 L23.868,12.744 L23.868,12.168 L24.696,12.168 L24.696,17.46 L23.868,17.46 L23.868,16.884 L23.508,16.884 L23.508,20.232 L23.508,20.16 L23.544,20.088 C25.0320074,17.5199872 25.776,15.3120092 25.776,13.464 Z" id="J" fill="#DD64EA"></path>
    </g>
</svg>