<?xml version="1.0" encoding="UTF-8" standalone="no"?>
<svg width="27px" height="32px" viewBox="0 0 27 32" version="1.1" xmlns="http://www.w3.org/2000/svg" xmlns:xlink="http://www.w3.org/1999/xlink">
    <!-- Generator: Sketch 43.1 (39012) - http://www.bohemiancoding.com/sketch -->
    <title>Q</title>
    <desc>Created with Sketch.</desc>
    <defs></defs>
    <g id="Page-1" stroke="none" stroke-width="1" fill="none" fill-rule="evenodd">
        <path d="M26.028,18.316 C26.028,21.916018 24.7680126,24.9699875 22.248,27.478 C19.7279874,29.9860125 16.668018,31.24 13.068,31.24 C9.467982,31.24 6.4080126,29.9860125 3.888,27.478 C1.3679874,24.9699875 0.108,21.916018 0.108,18.316 C0.108,16.2519897 0.58199526,14.2960092 1.53,12.448 C2.47800474,10.5999908 3.7919916,9.06400612 5.472,7.84 C4.871997,6.1599916 4.18800384,4.81600504 3.42,3.808 C5.7000114,2.3679928 8.44798392,1.31200336 11.664,0.64 C11.8080007,2.27200816 12.1559972,3.85599232 12.708,5.392 C12.7800004,5.36799988 12.8999992,5.356 13.068,5.356 C16.668018,5.356 19.7279874,6.6159874 22.248,9.136 C24.7680126,11.6560126 26.028,14.715982 26.028,18.316 Z M14.184,20.908 L13.176,20.908 L12.276,24.112 L13.356,23.752 L12.96,25.084 L10.944,24.76 L10.944,23.14 L12.168,24.04 L11.52,19.864 L8.1,19.864 L8.1,29.584 C9.4200066,30.1360028 10.7159936,30.4599995 11.988,30.556 L14.184,20.908 Z M25.38,18.316 C25.38,14.8599827 24.1740121,11.9440119 21.762,9.568 C19.3499879,7.19198812 16.4040174,6.004 12.924,6.004 C13.5960034,7.804009 14.3999953,9.44799256 15.336,10.936 C16.7040068,10.8639996 17.4119998,10.828 17.46,10.828 C18.1320034,10.828 18.6359983,10.8399999 18.972,10.864 L18.972,11.512 C18.6839986,11.4879999 18.2520029,11.476 17.676,11.476 C16.667995,11.476 15.8040036,11.5359994 15.084,11.656 C15.084,12.1360024 15.3179977,12.9399944 15.786,14.068 C16.2540023,15.1960056 16.6679982,16.059997 17.028,16.66 L15.804,17.092 L15.804,18.28 L14.4,18.28 C14.5680008,19.0000036 15.0359962,19.3839998 15.804,19.432 L15.804,20.908 L14.58,20.908 L13.752,24.616 L20.16,28.396 C21.7920082,27.2199941 23.0699954,25.7500088 23.994,23.986 C24.9180046,22.2219912 25.38,20.3320101 25.38,18.316 Z M7.704,21.124 L7.704,19.864 C7.704,17.655989 7.5240018,15.6880086 7.164,13.96 C5.91599376,14.6080032 4.82400468,15.2679966 3.888,15.94 L3.636,15.364 C4.78800576,14.5479959 5.91599448,13.8760026 7.02,13.348 C6.6599982,11.5719911 6.21600264,9.94000744 5.688,8.452 C4.29599304,9.50800528 3.17400426,10.7859925 2.322,12.286 C1.46999574,13.7860075 0.96000084,15.3999914 0.792,17.128 L7.704,21.124 Z M14.832,14.428 C14.832,14.2839993 14.7660007,14.1700004 14.634,14.086 C14.5019993,14.0019996 14.3640007,13.96 14.22,13.96 C14.0759993,13.96 13.9380007,14.0019996 13.806,14.086 C13.6739993,14.1700004 13.608,14.2839993 13.608,14.428 C13.608,14.7640017 13.811998,14.932 14.22,14.932 C14.628002,14.932 14.832,14.7640017 14.832,14.428 Z" id="Q" fill="#E37750"></path>
    </g>
</svg>