<?xml version="1.0" encoding="UTF-8" standalone="no"?>
<svg width="36px" height="32px" viewBox="0 0 36 32" version="1.1" xmlns="http://www.w3.org/2000/svg" xmlns:xlink="http://www.w3.org/1999/xlink">
    <!-- Generator: Sketch 43.1 (39012) - http://www.bohemiancoding.com/sketch -->
    <title>H</title>
    <desc>Created with Sketch.</desc>
    <defs></defs>
    <g id="Page-1" stroke="none" stroke-width="1" fill="none" fill-rule="evenodd">
        <path d="M34.176,31.24 L2.64,31.24 L2.64,28.972 L34.176,28.972 L34.176,31.24 Z M35.292,27.352 C35.292,27.9760031 35.1000019,28.491998 34.716,28.9 L34.392,28.504 L29.64,28.504 C29.0639971,27.9279971 28.3680041,27.6160002 27.552,27.568 L24.744,22.672 C23.6639946,23.1520024 22.5360059,23.392 21.36,23.392 C20.4959957,23.392 19.6080046,23.2840011 18.696,23.068 C17.7839954,22.8519989 16.7760055,22.5640018 15.672,22.204 C14.5679945,21.8439982 13.716003,21.5920007 13.116,21.448 L13.116,21.988 L10.776,21.124 L5.772,25.444 L6.132,25.444 C6.46800168,25.2999993 6.73199904,25.228 6.924,25.228 C7.57200324,25.228 8.11199784,25.4199981 8.544,25.804 C8.97600216,26.1880019 9.192,26.6919969 9.192,27.316 C9.192,27.8680028 8.98800204,28.347998 8.58,28.756 L8.292,28.504 L2.964,28.504 C2.91599976,27.1599933 2.26800624,26.2120028 1.02,25.66 L1.02,25.156 L4.404,17.992 C3.46799532,16.7439938 2.64600354,15.12401 1.938,13.132 C1.22999646,11.13999 0.876,9.38800756 0.876,7.876 C0.876,6.05199088 1.39199484,4.4500069 2.424,3.07 C3.45600516,1.6899931 4.85999112,1 6.636,1 C8.10000732,1 9.3119952,1.48599514 10.272,2.458 C11.2320048,3.43000486 11.7359998,4.64799268 11.784,6.112 C11.784,6.49600192 11.8439994,6.81999868 11.964,7.084 C12.0840006,7.34800132 12.2879986,7.62399856 12.576,7.912 C11.9519969,7.912 11.5140013,7.71400198 11.262,7.318 C11.0099987,6.92199802 10.8360005,6.3940033 10.74,5.734 C10.6439995,5.0739967 10.5120008,4.61200132 10.344,4.348 C10.0319984,3.89199772 9.67200204,3.46000204 9.264,3.052 C9.864003,3.84400396 10.2299993,4.79799442 10.362,5.914 C10.4940007,7.03000558 10.5959996,8.16999418 10.668,9.334 C10.7400004,10.4980058 10.9919978,11.475996 11.424,12.268 C10.4399951,11.9319983 9.80400144,11.4340033 9.516,10.774 C9.22799856,10.1139967 9.084,9.23200552 9.084,8.128 L9.084,6.184 C9.084,5.8239982 9.06000024,5.5840006 9.012,5.464 C9.012,5.9440024 8.84400168,6.65799526 8.508,7.606 C8.17199832,8.55400474 8.004,9.27999748 8.004,9.784 C8.004,10.2640024 8.08799916,10.6179989 8.256,10.846 C8.42400084,11.0740011 8.72999778,11.2659992 9.174,11.422 C9.61800222,11.5780008 9.8999994,11.6919996 10.02,11.764 L9.408,11.764 C7.7279916,11.764 6.888,10.5040126 6.888,7.984 C6.888,7.55199784 7.0079988,6.94000396 7.248,6.148 C7.4880012,5.35599604 7.608,4.74400216 7.608,4.312 C7.608,3.30399496 7.008006,2.8 5.808,2.8 C3.31198752,2.8 2.064,4.62398176 2.064,8.272 C2.064,10.6960121 3.05999004,13.5999831 5.052,16.984 C5.14800048,16.9359998 5.23199964,16.912 5.304,16.912 C5.56800132,16.8639998 5.94599754,16.8280001 6.438,16.804 C6.93000246,16.7799999 7.25999916,16.7560001 7.428,16.732 C9.85201212,16.4679987 12.0119905,15.9640037 13.908,15.22 C16.4040125,14.2359951 18.251994,12.9880076 19.452,11.476 C17.3159893,12.2200037 15.552007,13.4199917 14.16,15.076 C14.8080032,12.867989 16.0559908,11.0080076 17.904,9.496 C16.3919924,10.0720029 15.1080053,10.9719939 14.052,12.196 C14.7000032,10.0839894 15.9839904,8.38000648 17.904,7.084 C16.0559908,7.684003 14.4960064,8.72799256 13.224,10.216 C14.016004,7.79198788 15.4919892,5.88400696 17.652,4.492 C15.9239914,4.9720024 14.4240064,5.95599256 13.152,7.444 C13.8000032,5.4039898 14.9819914,3.76000624 16.698,2.512 C18.4140086,1.26399376 20.3399893,0.64 22.476,0.64 C23.8440068,0.64 25.127994,0.90399736 26.328,1.432 L29.244,1.432 L29.928,2.224 L33.708,2.224 L33.168,3.448 C33.4320013,4.19200372 33.564,4.93599628 33.564,5.68 C33.564,6.4000036 33.4320013,7.13199628 33.168,7.876 L33.024,7.84 L32.844,7.84 L32.304,8.884 L31.728,7.732 C30.719995,7.732 29.8680035,7.9119982 29.172,8.272 L28.308,10.684 C29.0280036,10.9240012 29.9039948,11.044 30.936,11.044 C31.0080004,11.044 31.1279992,11.0380001 31.296,11.026 C31.4640008,11.0139999 31.5839996,11.008 31.656,11.008 L32.232,9.748 L32.88,10.792 C32.9040001,10.7679999 32.9519996,10.7440001 33.024,10.72 L33.132,10.684 L33.132,10.936 C33.132,11.8240044 32.9640017,12.5919968 32.628,13.24 C31.8119959,12.4239959 30.7680064,12.016 29.496,12.016 C29.3279992,12.016 29.1960005,12.0279999 29.1,12.052 L29.1,12.376 L30.18,12.952 C31.3320058,13.0960007 32.1539975,13.5159965 32.646,14.212 C33.1380025,14.9080035 33.3780001,15.6399962 33.366,16.408 C33.3539999,17.1760038 33.449999,17.9439962 33.654,18.712 C33.858001,19.4800038 34.2719969,19.9839988 34.896,20.224 C34.8239996,20.224 34.7220007,20.2299999 34.59,20.242 C34.4579993,20.2540001 34.3680002,20.26 34.32,20.26 C33.5759963,20.26 32.9160029,20.0920017 32.34,19.756 C32.7720022,20.5960042 33.3959959,21.2919972 34.212,21.844 C33.7799978,21.8920002 33.468001,21.916 33.276,21.916 C32.0279938,21.916 30.9120049,21.616003 29.928,21.016 L31.116,25.3 C31.8840038,25.0119986 32.4479982,24.868 32.808,24.868 C33.5040035,24.868 34.0919976,25.1079976 34.572,25.588 C35.0520024,26.0680024 35.292,26.6559965 35.292,27.352 Z M28.02,3.088 L27.732,2.368 C27.2039974,2.75200192 26.9160002,3.26799676 26.868,3.916 C27.1560014,3.48399784 27.5399976,3.2080006 28.02,3.088 Z" id="H" fill="#237ADF"></path>
    </g>
</svg>