<?xml version="1.0" encoding="UTF-8" standalone="no"?>
<svg width="35px" height="31px" viewBox="0 0 35 31" version="1.1" xmlns="http://www.w3.org/2000/svg" xmlns:xlink="http://www.w3.org/1999/xlink">
    <!-- Generator: Sketch 43.1 (39012) - http://www.bohemiancoding.com/sketch -->
    <title>H</title>
    <desc>Created with Sketch.</desc>
    <defs></defs>
    <g id="Page-1" stroke="none" stroke-width="1" fill="none" fill-rule="evenodd">
        <path d="M33.3,30.6 L1.764,30.6 L1.764,28.332 L33.3,28.332 L33.3,30.6 Z M34.416,26.712 C34.416,27.3360031 34.2240019,27.851998 33.84,28.26 L33.516,27.864 L28.764,27.864 C28.1879971,27.2879971 27.4920041,26.9760002 26.676,26.928 L23.868,22.032 C22.7879946,22.5120024 21.6600059,22.752 20.484,22.752 C19.6199957,22.752 18.7320046,22.6440011 17.82,22.428 C16.9079954,22.2119989 15.9000055,21.9240018 14.796,21.564 C13.6919945,21.2039982 12.840003,20.9520007 12.24,20.808 L12.24,21.348 L9.9,20.484 L4.896,24.804 L5.256,24.804 C5.59200168,24.6599993 5.85599904,24.588 6.048,24.588 C6.69600324,24.588 7.23599784,24.7799981 7.668,25.164 C8.10000216,25.5480019 8.316,26.0519969 8.316,26.676 C8.316,27.2280028 8.11200204,27.707998 7.704,28.116 L7.416,27.864 L2.088,27.864 C2.03999976,26.5199933 1.39200624,25.5720028 0.144,25.02 L0.144,24.516 L3.528,17.352 C2.59199532,16.1039938 1.77000354,14.48401 1.062,12.492 C0.35399646,10.49999 0,8.74800756 0,7.236 C0,5.41199088 0.51599484,3.8100069 1.548,2.43 C2.58000516,1.0499931 3.98399112,0.36 5.76,0.36 C7.22400732,0.36 8.4359952,0.84599514 9.396,1.818 C10.3560048,2.79000486 10.8599998,4.00799268 10.908,5.472 C10.908,5.85600192 10.9679994,6.17999868 11.088,6.444 C11.2080006,6.70800132 11.4119986,6.98399856 11.7,7.272 C11.0759969,7.272 10.6380013,7.07400198 10.386,6.678 C10.1339987,6.28199802 9.96000048,5.7540033 9.864,5.094 C9.76799952,4.4339967 9.63600084,3.97200132 9.468,3.708 C9.15599844,3.25199772 8.79600204,2.82000204 8.388,2.412 C8.988003,3.20400396 9.35399934,4.15799442 9.486,5.274 C9.61800066,6.39000558 9.71999964,7.52999418 9.792,8.694 C9.86400036,9.85800582 10.1159978,10.835996 10.548,11.628 C9.56399508,11.2919983 8.92800144,10.7940033 8.64,10.134 C8.35199856,9.4739967 8.208,8.59200552 8.208,7.488 L8.208,5.544 C8.208,5.1839982 8.18400024,4.9440006 8.136,4.824 C8.136,5.3040024 7.96800168,6.01799526 7.632,6.966 C7.29599832,7.91400474 7.128,8.63999748 7.128,9.144 C7.128,9.6240024 7.21199916,9.97799886 7.38,10.206 C7.54800084,10.4340011 7.85399778,10.6259992 8.298,10.782 C8.74200222,10.9380008 9.0239994,11.0519996 9.144,11.124 L8.532,11.124 C6.8519916,11.124 6.012,9.8640126 6.012,7.344 C6.012,6.91199784 6.1319988,6.30000396 6.372,5.508 C6.6120012,4.71599604 6.732,4.10400216 6.732,3.672 C6.732,2.66399496 6.132006,2.16 4.932,2.16 C2.43598752,2.16 1.188,3.98398176 1.188,7.632 C1.188,10.0560121 2.18399004,12.9599831 4.176,16.344 C4.27200048,16.2959998 4.35599964,16.272 4.428,16.272 C4.69200132,16.2239998 5.06999754,16.1880001 5.562,16.164 C6.05400246,16.1399999 6.38399916,16.1160001 6.552,16.092 C8.97601212,15.8279987 11.1359905,15.3240037 13.032,14.58 C15.5280125,13.5959951 17.375994,12.3480076 18.576,10.836 C16.4399893,11.5800037 14.676007,12.7799917 13.284,14.436 C13.9320032,12.227989 15.1799908,10.3680076 17.028,8.856 C15.5159924,9.43200288 14.2320053,10.3319939 13.176,11.556 C13.8240032,9.44398944 15.1079904,7.74000648 17.028,6.444 C15.1799908,7.044003 13.6200064,8.08799256 12.348,9.576 C13.140004,7.15198788 14.6159892,5.24400696 16.776,3.852 C15.0479914,4.3320024 13.5480064,5.31599256 12.276,6.804 C12.9240032,4.7639898 14.1059914,3.12000624 15.822,1.872 C17.5380086,0.62399376 19.4639893,0 21.6,0 C22.9680068,0 24.251994,0.26399736 25.452,0.792 L28.368,0.792 L29.052,1.584 L32.832,1.584 L32.292,2.808 C32.5560013,3.55200372 32.688,4.29599628 32.688,5.04 C32.688,5.7600036 32.5560013,6.49199628 32.292,7.236 L32.148,7.2 L31.968,7.2 L31.428,8.244 L30.852,7.092 C29.843995,7.092 28.9920035,7.2719982 28.296,7.632 L27.432,10.044 C28.1520036,10.2840012 29.0279948,10.404 30.06,10.404 C30.1320004,10.404 30.2519992,10.3980001 30.42,10.386 C30.5880008,10.3739999 30.7079996,10.368 30.78,10.368 L31.356,9.108 L32.004,10.152 C32.0280001,10.1279999 32.0759996,10.1040001 32.148,10.08 L32.256,10.044 L32.256,10.296 C32.256,11.1840044 32.0880017,11.9519968 31.752,12.6 C30.9359959,11.7839959 29.8920064,11.376 28.62,11.376 C28.4519992,11.376 28.3200005,11.3879999 28.224,11.412 L28.224,11.736 L29.304,12.312 C30.4560058,12.4560007 31.2779975,12.8759965 31.77,13.572 C32.2620025,14.2680035 32.5020001,14.9999962 32.49,15.768 C32.4779999,16.5360038 32.573999,17.3039962 32.778,18.072 C32.982001,18.8400038 33.3959969,19.3439988 34.02,19.584 C33.9479996,19.584 33.8460007,19.5899999 33.714,19.602 C33.5819993,19.6140001 33.4920002,19.62 33.444,19.62 C32.6999963,19.62 32.0400029,19.4520017 31.464,19.116 C31.8960022,19.9560042 32.5199959,20.6519972 33.336,21.204 C32.9039978,21.2520002 32.592001,21.276 32.4,21.276 C31.1519938,21.276 30.0360049,20.976003 29.052,20.376 L30.24,24.66 C31.0080038,24.3719986 31.5719982,24.228 31.932,24.228 C32.6280035,24.228 33.2159976,24.4679976 33.696,24.948 C34.1760024,25.4280024 34.416,26.0159965 34.416,26.712 Z M27.144,2.448 L26.856,1.728 C26.3279974,2.11200192 26.0400002,2.62799676 25.992,3.276 C26.2800014,2.84399784 26.6639976,2.5680006 27.144,2.448 Z" id="H" fill="#237ADF"></path>
    </g>
</svg>